tgl_regular.sfdir
StartChar: quotedbl
Encoding: 34 34 15
Width: 911
Flags: W
LayerCount: 2
Back
Fore
SplineSet
600 1346 m 2,0,1
 600 1366 600 1366 607.5 1385 c 128,-1,2
 615 1404 615 1404 628.5 1419 c 128,-1,3
 642 1434 642 1434 661.5 1442.5 c 128,-1,4
 681 1451 681 1451 706 1451 c 0,5,6
 724 1451 724 1451 742.5 1444 c 128,-1,7
 761 1437 761 1437 774.5 1423.5 c 128,-1,8
 788 1410 788 1410 797 1391.5 c 128,-1,9
 806 1373 806 1373 807 1351 c 2,10,-1
 812 1172 l 1,11,-1
 812 1166 l 2,12,13
 812 1122 812 1122 787.5 1080 c 128,-1,14
 763 1038 763 1038 712 1008 c 0,15,16
 699 1000 699 1000 685.5 995.5 c 128,-1,17
 672 991 672 991 657 991 c 0,18,19
 636 991 636 991 616.5 999 c 128,-1,20
 597 1007 597 1007 583 1022 c 128,-1,21
 569 1037 569 1037 560.5 1055.5 c 128,-1,22
 552 1074 552 1074 552 1095 c 0,23,24
 552 1149 552 1149 600 1182 c 1,25,-1
 604 1185 l 1,26,-1
 604 1266 l 1,27,-1
 600 1346 l 2,0,1
155 1346 m 1,28,29
 154 1367 154 1367 161.5 1386 c 128,-1,30
 169 1405 169 1405 182.5 1420 c 128,-1,31
 196 1435 196 1435 215 1443 c 128,-1,32
 234 1451 234 1451 257 1451 c 0,33,34
 278 1451 278 1451 296 1443 c 128,-1,35
 314 1435 314 1435 328.5 1421 c 128,-1,36
 343 1407 343 1407 351.5 1389 c 128,-1,37
 360 1371 360 1371 360 1351 c 2,38,-1
 365 1172 l 1,39,-1
 365 1166 l 2,40,41
 365 1122 365 1122 339 1078.5 c 128,-1,42
 313 1035 313 1035 265 1008 c 1,43,44
 239 991 239 991 210 991 c 0,45,46
 188 991 188 991 168.5 999.5 c 128,-1,47
 149 1008 149 1008 135 1023 c 128,-1,48
 121 1038 121 1038 113 1056.5 c 128,-1,49
 105 1075 105 1075 105 1094 c 0,50,51
 105 1122 105 1122 118.5 1144.5 c 128,-1,52
 132 1167 132 1167 154 1182 c 1,53,-1
 155 1183 l 1,54,55
 157 1183 157 1183 157 1185 c 2,56,-1
 155 1266 l 1,57,-1
 155 1346 l 1,28,29
EndSplineSet
EndChar
StartChar: numbersign
Encoding: 35 35 17
Width: 2331
Flags: W
LayerCount: 2
Back
Fore
SplineSet
328 1223 m 1,0,1
 317 1212 317 1212 311.5 1198 c 128,-1,2
 306 1184 306 1184 306 1167 c 2,3,-1
 306 864 l 2,4,5
 306 842 306 842 297.5 823.5 c 128,-1,6
 289 805 289 805 274.5 790.5 c 128,-1,7
 260 776 260 776 241 768.5 c 128,-1,8
 222 761 222 761 201 761 c 0,9,10
 181 761 181 761 161.5 769 c 128,-1,11
 142 777 142 777 128.5 791 c 128,-1,12
 115 805 115 805 106.5 824 c 128,-1,13
 98 843 98 843 98 864 c 2,14,-1
 98 1167 l 1,15,-1
 98 1348 l 2,16,17
 98 1369 98 1369 106 1388 c 128,-1,18
 114 1407 114 1407 128 1421.5 c 128,-1,19
 142 1436 142 1436 161 1444 c 128,-1,20
 180 1452 180 1452 201 1452 c 0,21,22
 223 1452 223 1452 239 1445.5 c 128,-1,23
 255 1439 255 1439 268 1428 c 1,24,25
 290 1438 290 1438 319.5 1445 c 128,-1,26
 349 1452 349 1452 383 1452 c 0,27,28
 435 1452 435 1452 480.5 1435 c 128,-1,29
 526 1418 526 1418 565 1387 c 1,30,31
 602 1418 602 1418 648.5 1435 c 128,-1,32
 695 1452 695 1452 747 1452 c 0,33,34
 801 1452 801 1452 852.5 1431 c 128,-1,35
 904 1410 904 1410 944 1372 c 128,-1,36
 984 1334 984 1334 1008 1281.5 c 128,-1,37
 1032 1229 1032 1229 1032 1167 c 2,38,-1
 1032 864 l 2,39,40
 1032 842 1032 842 1023.5 823.5 c 128,-1,41
 1015 805 1015 805 1001 790.5 c 128,-1,42
 987 776 987 776 967.5 768.5 c 128,-1,43
 948 761 948 761 928 761 c 0,44,45
 907 761 907 761 888.5 768.5 c 128,-1,46
 870 776 870 776 855.5 790 c 128,-1,47
 841 804 841 804 833 822.5 c 128,-1,48
 825 841 825 841 825 864 c 2,49,-1
 825 1167 l 2,50,51
 825 1191 825 1191 816 1206.5 c 128,-1,52
 807 1222 807 1222 794.5 1230 c 128,-1,53
 782 1238 782 1238 769 1241.5 c 128,-1,54
 756 1245 756 1245 747 1245 c 0,55,56
 716 1245 716 1245 700.5 1233.5 c 128,-1,57
 685 1222 685 1222 677.5 1207 c 128,-1,58
 670 1192 670 1192 669 1179.5 c 128,-1,59
 668 1167 668 1167 668 1167 c 1,60,-1
 668 864 l 2,61,62
 668 841 668 841 660 822.5 c 128,-1,63
 652 804 652 804 637.5 790 c 128,-1,64
 623 776 623 776 604.5 768.5 c 128,-1,65
 586 761 586 761 565 761 c 0,66,67
 543 761 543 761 524.5 768.5 c 128,-1,68
 506 776 506 776 492 790.5 c 128,-1,69
 478 805 478 805 469.5 823.5 c 128,-1,70
 461 842 461 842 461 864 c 2,71,-1
 461 1167 l 2,72,73
 461 1199 461 1199 439.5 1222 c 128,-1,74
 418 1245 418 1245 383 1245 c 0,75,76
 364 1245 364 1245 350 1237 c 128,-1,77
 336 1229 336 1229 328 1223 c 1,0,1
697 38 m 2,78,79
 666 1 666 1 618 1 c 0,80,81
 596 1 596 1 576.5 9 c 128,-1,82
 557 17 557 17 543.5 30.5 c 128,-1,83
 530 44 530 44 521.5 63.5 c 128,-1,84
 513 83 513 83 513 105 c 0,85,86
 513 122 513 122 518.5 138.5 c 128,-1,87
 524 155 524 155 537 170 c 2,88,-1
 1568 1414 l 1,89,90
 1600 1451 1600 1451 1650 1451 c 0,91,92
 1671 1451 1671 1451 1689.5 1443 c 128,-1,93
 1708 1435 1708 1435 1721.5 1420.5 c 128,-1,94
 1735 1406 1735 1406 1743 1387 c 128,-1,95
 1751 1368 1751 1368 1751 1346 c 0,96,97
 1751 1312 1751 1312 1728 1282 c 1,98,-1
 1212 660 l 1,99,-1
 697 38 l 2,78,79
1870 492 m 1,100,101
 1852 473 1852 473 1848 457 c 128,-1,102
 1844 441 1844 441 1844 427 c 2,103,-1
 1844 104 l 2,104,105
 1844 81 1844 81 1835 61.5 c 128,-1,106
 1826 42 1826 42 1811.5 28.5 c 128,-1,107
 1797 15 1797 15 1778.5 7.5 c 128,-1,108
 1760 0 1760 0 1740 0 c 0,109,110
 1719 0 1719 0 1700 8.5 c 128,-1,111
 1681 17 1681 17 1667 31 c 128,-1,112
 1653 45 1653 45 1644.5 64 c 128,-1,113
 1636 83 1636 83 1636 104 c 2,114,-1
 1636 427 l 2,115,116
 1636 434 1636 434 1632.5 449.5 c 128,-1,117
 1629 465 1629 465 1619.5 480 c 128,-1,118
 1610 495 1610 495 1592 507 c 128,-1,119
 1574 519 1574 519 1546 519 c 0,120,121
 1530 519 1530 519 1514 513 c 128,-1,122
 1498 507 1498 507 1485 495.5 c 128,-1,123
 1472 484 1472 484 1463.5 466.5 c 128,-1,124
 1455 449 1455 449 1455 427 c 2,125,-1
 1455 104 l 2,126,127
 1455 83 1455 83 1447 63.5 c 128,-1,128
 1439 44 1439 44 1424 30.5 c 128,-1,129
 1409 17 1409 17 1390.5 8.5 c 128,-1,130
 1372 0 1372 0 1351 0 c 256,131,132
 1330 0 1330 0 1311 8.5 c 128,-1,133
 1292 17 1292 17 1278 31 c 128,-1,134
 1264 45 1264 45 1255.5 64 c 128,-1,135
 1247 83 1247 83 1247 104 c 2,136,-1
 1247 427 l 1,137,-1
 1247 622 l 2,138,139
 1247 644 1247 644 1255.5 662.5 c 128,-1,140
 1264 681 1264 681 1278 695.5 c 128,-1,141
 1292 710 1292 710 1311 718 c 128,-1,142
 1330 726 1330 726 1351 726 c 0,143,144
 1369 726 1369 726 1388 719 c 128,-1,145
 1407 712 1407 712 1421 699 c 1,146,147
 1452 712 1452 712 1484.5 719 c 128,-1,148
 1517 726 1517 726 1546 726 c 0,149,150
 1600 726 1600 726 1649.5 707 c 128,-1,151
 1699 688 1699 688 1740 654 c 1,152,153
 1782 689 1782 689 1831.5 707.5 c 128,-1,154
 1881 726 1881 726 1935 726 c 0,155,156
 1971 726 1971 726 2009.5 716.5 c 128,-1,157
 2048 707 2048 707 2085 685 c 128,-1,158
 2122 663 2122 663 2154 628.5 c 128,-1,159
 2186 594 2186 594 2209 543 c 1,160,161
 2233 485 2233 485 2233 427 c 2,162,-1
 2233 104 l 2,163,164
 2233 83 2233 83 2224.5 64 c 128,-1,165
 2216 45 2216 45 2202 31 c 128,-1,166
 2188 17 2188 17 2168.5 8.5 c 128,-1,167
 2149 0 2149 0 2129 0 c 0,168,169
 2107 0 2107 0 2088.5 8.5 c 128,-1,170
 2070 17 2070 17 2055.5 31 c 128,-1,171
 2041 45 2041 45 2033 64 c 128,-1,172
 2025 83 2025 83 2025 104 c 2,173,-1
 2025 427 l 2,174,175
 2025 445 2025 445 2018 462 c 128,-1,176
 2011 479 2011 479 1998.5 491.5 c 128,-1,177
 1986 504 1986 504 1970 511.5 c 128,-1,178
 1954 519 1954 519 1935 519 c 0,179,180
 1920 519 1920 519 1903.5 513.5 c 128,-1,181
 1887 508 1887 508 1870 492 c 1,100,101
EndSplineSet
EndChar
StartChar: ampersand
Encoding: 38 38 14
Width: 1440
Flags: W
LayerCount: 2
Back
Fore
SplineSet
1237 207 m 0,0,1
 1258 207 1258 207 1277 199 c 128,-1,2
 1296 191 1296 191 1310.5 177 c 128,-1,3
 1325 163 1325 163 1333 144 c 128,-1,4
 1341 125 1341 125 1341 104 c 256,5,6
 1341 83 1341 83 1333 64 c 128,-1,7
 1325 45 1325 45 1310.5 31 c 128,-1,8
 1296 17 1296 17 1277.5 8.5 c 128,-1,9
 1259 0 1259 0 1237 0 c 0,10,11
 1211 0 1211 0 1182.5 7.5 c 128,-1,12
 1154 15 1154 15 1129 24.5 c 128,-1,13
 1104 34 1104 34 1084 44 c 128,-1,14
 1064 54 1064 54 1055 59 c 0,15,16
 1048 63 1048 63 1037.5 68 c 128,-1,17
 1027 73 1027 73 1015 81 c 1,18,19
 938 37 938 37 842 18.5 c 128,-1,20
 746 0 746 0 636 0 c 0,21,22
 540 0 540 0 445 26 c 128,-1,23
 350 52 350 52 274 101 c 128,-1,24
 198 150 198 150 150 221.5 c 128,-1,25
 102 293 102 293 102 383 c 0,26,27
 102 479 102 479 158.5 567.5 c 128,-1,28
 215 656 215 656 326 720 c 1,29,-1
 308 738 l 1,30,31
 240 801 240 801 205.5 884.5 c 128,-1,32
 171 968 171 968 171 1054 c 0,33,34
 171 1084 171 1084 178.5 1125 c 128,-1,35
 186 1166 186 1166 203.5 1210.5 c 128,-1,36
 221 1255 221 1255 250.5 1298 c 128,-1,37
 280 1341 280 1341 325 1375.5 c 128,-1,38
 370 1410 370 1410 432 1431 c 128,-1,39
 494 1452 494 1452 577 1452 c 2,40,-1
 587 1452 l 1,41,42
 590 1451 590 1451 600 1451 c 0,43,44
 665 1448 665 1448 731 1421 c 128,-1,45
 797 1394 797 1394 850 1344.5 c 128,-1,46
 903 1295 903 1295 936.5 1223 c 128,-1,47
 970 1151 970 1151 970 1055 c 1,48,-1
 971 1055 l 1,49,50
 971 1052 971 1052 970.5 1050.5 c 128,-1,51
 970 1049 970 1049 970 1046 c 2,52,-1
 970 1032 l 1,53,54
 967 972 967 972 944 919.5 c 128,-1,55
 921 867 921 867 886 823 c 128,-1,56
 851 779 851 779 808.5 745 c 128,-1,57
 766 711 766 711 721 689 c 1,58,-1
 681 668 l 1,59,-1
 1013 353 l 1,60,61
 1025 369 1025 369 1034.5 386 c 128,-1,62
 1044 403 1044 403 1053 425 c 128,-1,63
 1062 447 1062 447 1071.5 475 c 128,-1,64
 1081 503 1081 503 1093 540 c 0,65,66
 1097 554 1097 554 1105.5 567.5 c 128,-1,67
 1114 581 1114 581 1127.5 591 c 128,-1,68
 1141 601 1141 601 1156.5 607.5 c 128,-1,69
 1172 614 1172 614 1189 614 c 0,70,71
 1213 614 1213 614 1232 605.5 c 128,-1,72
 1251 597 1251 597 1265.5 582 c 128,-1,73
 1280 567 1280 567 1287.5 549 c 128,-1,74
 1295 531 1295 531 1295 512 c 0,75,76
 1295 495 1295 495 1291 483 c 0,77,78
 1266 397 1266 397 1239.5 336.5 c 128,-1,79
 1213 276 1213 276 1179 228 c 1,80,-1
 1183 227 l 1,81,82
 1200 218 1200 218 1215 212.5 c 128,-1,83
 1230 207 1230 207 1237 207 c 0,0,1
840 232 m 1,84,-1
 484 570 l 1,85,-1
 450 552 l 1,86,87
 379 516 379 516 344.5 471.5 c 128,-1,88
 310 427 310 427 310 384 c 0,89,90
 310 346 310 346 340 313.5 c 128,-1,91
 370 281 370 281 418 257.5 c 128,-1,92
 466 234 466 234 524 220.5 c 128,-1,93
 582 207 582 207 636 207 c 0,94,95
 704 207 704 207 752 213.5 c 128,-1,96
 800 220 800 220 840 232 c 1,84,-1
450 887 m 2,97,-1
 522 820 l 1,98,-1
 628 874 l 2,99,100
 675 898 675 898 702.5 925 c 128,-1,101
 730 952 730 952 743.5 976 c 128,-1,102
 757 1000 757 1000 760.5 1018.5 c 128,-1,103
 764 1037 764 1037 764 1043 c 2,104,-1
 764 1055 l 2,105,106
 764 1092 764 1092 752 1124.5 c 128,-1,107
 740 1157 740 1157 717.5 1182.5 c 128,-1,108
 695 1208 695 1208 662.5 1224 c 128,-1,109
 630 1240 630 1240 590 1245 c 1,110,-1
 577 1245 l 2,111,112
 525 1245 525 1245 487.5 1228.5 c 128,-1,113
 450 1212 450 1212 426 1185 c 128,-1,114
 402 1158 402 1158 390 1124 c 128,-1,115
 378 1090 378 1090 378 1054 c 0,116,117
 378 1010 378 1010 395.5 966 c 128,-1,118
 413 922 413 922 450 887 c 2,97,-1
EndSplineSet
EndChar
StartChar: parenleft
Encoding: 40 40 7
Width: 671
Flags: W
LayerCount: 2
Back
Fore
SplineSet
377 1509 m 0,0,1
 391 1531 391 1531 413 1543.5 c 128,-1,2
 435 1556 435 1556 464 1556 c 0,3,4
 484 1556 484 1556 502.5 1548.5 c 128,-1,5
 521 1541 521 1541 535 1527 c 128,-1,6
 549 1513 549 1513 558 1494 c 128,-1,7
 567 1475 567 1475 567 1452 c 0,8,9
 567 1421 567 1421 550 1395 c 0,10,11
 427 1210 427 1210 367 1026.5 c 128,-1,12
 307 843 307 843 308 650 c 0,13,14
 308 480 308 480 356 302 c 128,-1,15
 404 124 404 124 501 -54 c 0,16,17
 513 -77 513 -77 513 -102 c 0,18,19
 513 -124 513 -124 504.5 -142.5 c 128,-1,20
 496 -161 496 -161 482 -175.5 c 128,-1,21
 468 -190 468 -190 448.5 -198 c 128,-1,22
 429 -206 429 -206 409 -206 c 0,23,24
 377 -206 377 -206 353.5 -190.5 c 128,-1,25
 330 -175 330 -175 317 -150 c 0,26,27
 208 55 208 55 154.5 252 c 128,-1,28
 101 449 101 449 101 652 c 0,29,30
 101 875 101 875 169.5 1086.5 c 128,-1,31
 238 1298 238 1298 377 1509 c 0,0,1
EndSplineSet
EndChar
StartChar: comma
Encoding: 44 44 13
Width: 511
Flags: W
LayerCount: 2
Back
Fore
SplineSet
205 0 m 2,0,1
 205 22 205 22 213.5 40.5 c 128,-1,2
 222 59 222 59 236.5 73 c 128,-1,3
 251 87 251 87 269.5 95.5 c 128,-1,4
 288 104 288 104 310 104 c 0,5,6
 330 104 330 104 349 96 c 128,-1,7
 368 88 368 88 382 74 c 128,-1,8
 396 60 396 60 404.5 41 c 128,-1,9
 413 22 413 22 413 0 c 2,10,-1
 413 -183 l 2,11,12
 413 -225 413 -225 399.5 -264.5 c 128,-1,13
 386 -304 386 -304 359.5 -334.5 c 128,-1,14
 333 -365 333 -365 293.5 -383 c 128,-1,15
 254 -401 254 -401 201 -401 c 0,16,17
 180 -401 180 -401 161 -392 c 128,-1,18
 142 -383 142 -383 128 -369 c 128,-1,19
 114 -355 114 -355 106 -336 c 128,-1,20
 98 -317 98 -317 98 -297 c 0,21,22
 98 -276 98 -276 106 -257 c 128,-1,23
 114 -238 114 -238 128 -223.5 c 128,-1,24
 142 -209 142 -209 161 -201 c 128,-1,25
 180 -193 180 -193 201 -193 c 0,26,27
 204 -193 204 -193 204 -195 c 1,28,-1
 205 -196 l 1,29,-1
 205 -183 l 1,30,-1
 205 -90 l 1,31,-1
 205 0 l 2,0,1
EndSplineSet
EndChar
StartChar: hyphen
Encoding: 45 45 8
Width: 1098
Flags: W
LayerCount: 2
Back
Fore
SplineSet
201 312 m 2,0,1
 181 312 181 312 161.5 320 c 128,-1,2
 142 328 142 328 128.5 342 c 128,-1,3
 115 356 115 356 106.5 375 c 128,-1,4
 98 394 98 394 98 415 c 0,5,6
 98 435 98 435 106 454.5 c 128,-1,7
 114 474 114 474 128 488 c 128,-1,8
 142 502 142 502 161 510.5 c 128,-1,9
 180 519 180 519 201 519 c 2,10,-1
 896 519 l 2,11,12
 917 519 917 519 936 510.5 c 128,-1,13
 955 502 955 502 969 488 c 128,-1,14
 983 474 983 474 991 454.5 c 128,-1,15
 999 435 999 435 999 415 c 0,16,17
 999 394 999 394 991 375 c 128,-1,18
 983 356 983 356 969 342 c 128,-1,19
 955 328 955 328 936 320 c 128,-1,20
 917 312 917 312 896 312 c 2,21,-1
 201 312 l 2,0,1
EndSplineSet
EndChar
StartChar: slash
Encoding: 47 47 96
Width: 736
Flags: W
LayerCount: 2
Back
Fore
SplineSet
427 1375 m 2,0,1
 436 1407 436 1407 463.5 1429.5 c 128,-1,2
 491 1452 491 1452 527 1452 c 0,3,4
 550 1452 550 1452 569.5 1443.5 c 128,-1,5
 589 1435 589 1435 602.5 1420 c 128,-1,6
 616 1405 616 1405 623.5 1386.5 c 128,-1,7
 631 1368 631 1368 631 1349 c 0,8,9
 631 1337 631 1337 628 1324 c 2,10,-1
 310 78 l 2,11,12
 301 44 301 44 273.5 22 c 128,-1,13
 246 0 246 0 208 0 c 0,14,15
 185 0 185 0 166 9 c 128,-1,16
 147 18 147 18 133.5 32 c 128,-1,17
 120 46 120 46 112.5 64.5 c 128,-1,18
 105 83 105 83 105 101 c 0,19,20
 105 108 105 108 106 115 c 128,-1,21
 107 122 107 122 109 129 c 2,22,-1
 268 752 l 1,23,-1
 427 1375 l 2,0,1
EndSplineSet
EndChar
StartChar: zero
Encoding: 48 48 86
Width: 1154
Flags: W
LayerCount: 2
Back
Fore
SplineSet
577 1452 m 0,0,1
 670 1452 670 1452 756.5 1398.5 c 128,-1,2
 843 1345 843 1345 909.5 1249.5 c 128,-1,3
 976 1154 976 1154 1015.5 1020 c 128,-1,4
 1055 886 1055 886 1055 726 c 0,5,6
 1055 635 1055 635 1040 545.5 c 128,-1,7
 1025 456 1025 456 996 375.5 c 128,-1,8
 967 295 967 295 925 226 c 128,-1,9
 883 157 883 157 830 107 c 128,-1,10
 777 57 777 57 713.5 28.5 c 128,-1,11
 650 0 650 0 577 0 c 0,12,13
 482 0 482 0 395.5 53 c 128,-1,14
 309 106 309 106 243 202 c 128,-1,15
 177 298 177 298 137.5 431.5 c 128,-1,16
 98 565 98 565 98 726 c 0,17,18
 98 818 98 818 113.5 907.5 c 128,-1,19
 129 997 129 997 158 1078 c 128,-1,20
 187 1159 187 1159 228.5 1227.5 c 128,-1,21
 270 1296 270 1296 323 1345.5 c 128,-1,22
 376 1395 376 1395 440 1423.5 c 128,-1,23
 504 1452 504 1452 577 1452 c 0,0,1
753 1113 m 1,24,25
 711 1181 711 1181 666 1213 c 128,-1,26
 621 1245 621 1245 577 1245 c 0,27,28
 530 1245 530 1245 481.5 1207 c 128,-1,29
 433 1169 433 1169 394 1101 c 128,-1,30
 355 1033 355 1033 330.5 937 c 128,-1,31
 306 841 306 841 306 726 c 0,32,33
 306 660 306 660 315.5 596.5 c 128,-1,34
 325 533 325 533 342.5 475 c 128,-1,35
 360 417 360 417 384.5 368 c 128,-1,36
 409 319 409 319 439.5 283.5 c 128,-1,37
 470 248 470 248 504.5 227.5 c 128,-1,38
 539 207 539 207 577 207 c 256,39,40
 615 207 615 207 662.5 239 c 128,-1,41
 710 271 710 271 751 336 c 128,-1,42
 792 401 792 401 820 498.5 c 128,-1,43
 848 596 848 596 848 726 c 0,44,45
 848 838 848 838 822.5 938 c 128,-1,46
 797 1038 797 1038 753 1113 c 1,24,25
EndSplineSet
EndChar
StartChar: three
Encoding: 51 51 93
Width: 1018
Flags: W
LayerCount: 2
Back
Fore
SplineSet
310 1109 m 1,0,1
 296 1075 296 1075 269 1057.5 c 128,-1,2
 242 1040 242 1040 211 1040 c 0,3,4
 191 1040 191 1040 172 1047.5 c 128,-1,5
 153 1055 153 1055 139 1069.5 c 128,-1,6
 125 1084 125 1084 116.5 1102.5 c 128,-1,7
 108 1121 108 1121 108 1143 c 0,8,9
 108 1161 108 1161 114.5 1181 c 128,-1,10
 121 1201 121 1201 131 1220 c 128,-1,11
 141 1239 141 1239 153 1257.5 c 128,-1,12
 165 1276 165 1276 176 1290 c 0,13,14
 206 1332 206 1332 245 1362.5 c 128,-1,15
 284 1393 284 1393 327 1413 c 128,-1,16
 370 1433 370 1433 415.5 1442.5 c 128,-1,17
 461 1452 461 1452 504 1452 c 0,18,19
 584 1452 584 1452 659 1421.5 c 128,-1,20
 734 1391 734 1391 792 1335.5 c 128,-1,21
 850 1280 850 1280 885 1203.5 c 128,-1,22
 920 1127 920 1127 920 1037 c 256,23,24
 920 947 920 947 883 865.5 c 128,-1,25
 846 784 846 784 778 725 c 1,26,27
 846 666 846 666 883 585 c 128,-1,28
 920 504 920 504 920 415 c 0,29,30
 920 335 920 335 889.5 260.5 c 128,-1,31
 859 186 859 186 804.5 128 c 128,-1,32
 750 70 750 70 673.5 35 c 128,-1,33
 597 0 597 0 504 0 c 0,34,35
 433 0 433 0 370.5 21.5 c 128,-1,36
 308 43 308 43 257 80.5 c 128,-1,37
 206 118 206 118 169.5 168.5 c 128,-1,38
 133 219 133 219 113 277 c 1,39,40
 106 292 106 292 106 311 c 0,41,42
 106 331 106 331 114.5 350 c 128,-1,43
 123 369 123 369 136.5 383 c 128,-1,44
 150 397 150 397 169.5 405.5 c 128,-1,45
 189 414 189 414 209 414 c 0,46,47
 244 414 244 414 270 395 c 128,-1,48
 296 376 296 376 309 345 c 1,49,50
 316 319 316 319 333.5 294.5 c 128,-1,51
 351 270 351 270 376 250.5 c 128,-1,52
 401 231 401 231 433.5 218.5 c 128,-1,53
 466 206 466 206 504 206 c 0,54,55
 540 206 540 206 577.5 220.5 c 128,-1,56
 615 235 615 235 645 262 c 128,-1,57
 675 289 675 289 693.5 328 c 128,-1,58
 712 367 712 367 712 415 c 0,59,60
 712 438 712 438 705.5 465 c 128,-1,61
 699 492 699 492 683.5 518 c 128,-1,62
 668 544 668 544 644 567 c 128,-1,63
 620 590 620 590 586 605 c 0,64,65
 565 614 565 614 543 617.5 c 128,-1,66
 521 621 521 621 501 624.5 c 128,-1,67
 481 628 481 628 463 633.5 c 128,-1,68
 445 639 445 639 432 653 c 0,69,70
 417 669 417 669 409.5 686 c 128,-1,71
 402 703 402 703 402 725 c 0,72,73
 402 761 402 761 423 789.5 c 128,-1,74
 444 818 444 818 503 830 c 0,75,76
 522 833 522 833 548.5 837 c 128,-1,77
 575 841 575 841 602 854 c 128,-1,78
 629 867 629 867 654 890.5 c 128,-1,79
 679 914 679 914 696 956 c 0,80,81
 712 998 712 998 712 1037 c 0,82,83
 712 1063 712 1063 701.5 1099 c 128,-1,84
 691 1135 691 1135 666 1167.5 c 128,-1,85
 641 1200 641 1200 601 1222.5 c 128,-1,86
 561 1245 561 1245 504 1245 c 0,87,88
 481 1245 481 1245 452 1237.5 c 128,-1,89
 423 1230 423 1230 395.5 1214 c 128,-1,90
 368 1198 368 1198 344.5 1172 c 128,-1,91
 321 1146 321 1146 310 1109 c 1,0,1
EndSplineSet
EndChar
StartChar: four
Encoding: 52 52 92
Width: 1148
Flags: W
LayerCount: 2
Back
Fore
SplineSet
727 622 m 2,0,1
 727 643 727 643 734.5 662 c 128,-1,2
 742 681 742 681 755 695 c 128,-1,3
 768 709 768 709 787 717 c 128,-1,4
 806 725 806 725 828 725 c 0,5,6
 851 725 851 725 870 717 c 128,-1,7
 889 709 889 709 903 694.5 c 128,-1,8
 917 680 917 680 925 662 c 128,-1,9
 933 644 933 644 933 623 c 2,10,-1
 935 467 l 1,11,-1
 945 466 l 1,12,13
 967 466 967 466 986 457.5 c 128,-1,14
 1005 449 1005 449 1019 435.5 c 128,-1,15
 1033 422 1033 422 1041.5 402.5 c 128,-1,16
 1050 383 1050 383 1050 363 c 0,17,18
 1050 342 1050 342 1041.5 323 c 128,-1,19
 1033 304 1033 304 1018.5 290 c 128,-1,20
 1004 276 1004 276 985 267.5 c 128,-1,21
 966 259 966 259 945 259 c 2,22,-1
 936 259 l 1,23,-1
 937 104 l 2,24,25
 937 82 937 82 928.5 62.5 c 128,-1,26
 920 43 920 43 905.5 29.5 c 128,-1,27
 891 16 891 16 872.5 8.5 c 128,-1,28
 854 1 854 1 833 1 c 0,29,30
 811 1 811 1 792 9.5 c 128,-1,31
 773 18 773 18 759.5 31.5 c 128,-1,32
 746 45 746 45 738 64 c 128,-1,33
 730 83 730 83 730 103 c 2,34,-1
 729 259 l 1,35,-1
 216 259 l 2,36,37
 199 259 199 259 179.5 265 c 128,-1,38
 160 271 160 271 144 284 c 128,-1,39
 128 297 128 297 117 316.5 c 128,-1,40
 106 336 106 336 106 364 c 1,41,42
 107 375 107 375 109.5 387 c 128,-1,43
 112 399 112 399 119 412 c 2,44,-1
 638 1397 l 2,45,46
 652 1423 652 1423 676.5 1437.5 c 128,-1,47
 701 1452 701 1452 730 1452 c 0,48,49
 753 1452 753 1452 771.5 1443 c 128,-1,50
 790 1434 790 1434 804 1419 c 128,-1,51
 818 1404 818 1404 825.5 1385.5 c 128,-1,52
 833 1367 833 1367 833 1347 c 0,53,54
 833 1323 833 1323 822 1301 c 2,55,-1
 382 467 l 1,56,-1
 727 467 l 1,57,-1
 727 544 l 1,58,-1
 727 622 l 2,0,1
EndSplineSet
EndChar
StartChar: five
Encoding: 53 53 91
Width: 1027
Flags: W
LayerCount: 2
Back
Fore
SplineSet
825 1452 m 2,0,1
 846 1452 846 1452 864.5 1444 c 128,-1,2
 883 1436 883 1436 897.5 1421.5 c 128,-1,3
 912 1407 912 1407 920.5 1388.5 c 128,-1,4
 929 1370 929 1370 929 1348 c 0,5,6
 929 1328 929 1328 921 1309 c 128,-1,7
 913 1290 913 1290 898.5 1276 c 128,-1,8
 884 1262 884 1262 865 1253.5 c 128,-1,9
 846 1245 846 1245 825 1245 c 2,10,-1
 310 1245 l 1,11,-1
 310 897 l 1,12,13
 348 914 348 914 394 924 c 128,-1,14
 440 934 440 934 493 934 c 0,15,16
 576 934 576 934 654.5 899.5 c 128,-1,17
 733 865 733 865 794 803.5 c 128,-1,18
 855 742 855 742 892 656 c 128,-1,19
 929 570 929 570 929 467 c 0,20,21
 929 378 929 378 897 294 c 128,-1,22
 865 210 865 210 807.5 145 c 128,-1,23
 750 80 750 80 670 40 c 128,-1,24
 590 0 590 0 493 0 c 0,25,26
 440 0 440 0 387.5 14 c 128,-1,27
 335 28 335 28 286 56.5 c 128,-1,28
 237 85 237 85 194 127.5 c 128,-1,29
 151 170 151 170 119 228 c 0,30,31
 106 251 106 251 106 276 c 0,32,33
 106 298 106 298 114 317 c 128,-1,34
 122 336 122 336 135.5 351 c 128,-1,35
 149 366 149 366 168 374 c 128,-1,36
 187 382 187 382 209 382 c 0,37,38
 242 382 242 382 263 365.5 c 128,-1,39
 284 349 284 349 302 326 c 128,-1,40
 320 303 320 303 339 278.5 c 128,-1,41
 358 254 358 254 385 238 c 0,42,43
 406 226 406 226 434 216.5 c 128,-1,44
 462 207 462 207 493 207 c 0,45,46
 538 207 538 207 578.5 226.5 c 128,-1,47
 619 246 619 246 651 280 c 128,-1,48
 683 314 683 314 702 362 c 128,-1,49
 721 410 721 410 721 467 c 0,50,51
 721 509 721 509 706.5 554.5 c 128,-1,52
 692 600 692 600 663.5 638.5 c 128,-1,53
 635 677 635 677 592 701.5 c 128,-1,54
 549 726 549 726 493 726 c 0,55,56
 431 726 431 726 380 702.5 c 128,-1,57
 329 679 329 679 274 635 c 0,58,59
 256 621 256 621 238 615 c 128,-1,60
 220 609 220 609 205 609 c 0,61,62
 185 609 185 609 166 617 c 128,-1,63
 147 625 147 625 133 639.5 c 128,-1,64
 119 654 119 654 110.5 672.5 c 128,-1,65
 102 691 102 691 102 713 c 2,66,-1
 102 1348 l 2,67,68
 102 1369 102 1369 110 1388 c 128,-1,69
 118 1407 118 1407 132 1421.5 c 128,-1,70
 146 1436 146 1436 165 1444 c 128,-1,71
 184 1452 184 1452 205 1452 c 2,72,-1
 515 1452 l 1,73,-1
 825 1452 l 2,0,1
EndSplineSet
EndChar
StartChar: seven
Encoding: 55 55 88
Width: 1007
Flags: W
LayerCount: 2
Back
Fore
SplineSet
306 1141 m 2,0,1
 306 1119 306 1119 297.5 1100.5 c 128,-1,2
 289 1082 289 1082 275 1067.5 c 128,-1,3
 261 1053 261 1053 242 1045.5 c 128,-1,4
 223 1038 223 1038 201 1038 c 0,5,6
 180 1038 180 1038 161 1046 c 128,-1,7
 142 1054 142 1054 128 1068 c 128,-1,8
 114 1082 114 1082 106 1101 c 128,-1,9
 98 1120 98 1120 98 1141 c 2,10,-1
 98 1348 l 2,11,12
 98 1369 98 1369 106 1388 c 128,-1,13
 114 1407 114 1407 128 1421.5 c 128,-1,14
 142 1436 142 1436 161 1444 c 128,-1,15
 180 1452 180 1452 201 1452 c 2,16,-1
 805 1452 l 2,17,18
 826 1452 826 1452 845 1444 c 128,-1,19
 864 1436 864 1436 878 1421.5 c 128,-1,20
 892 1407 892 1407 900.5 1388.5 c 128,-1,21
 909 1370 909 1370 909 1348 c 0,22,23
 909 1338 909 1338 905 1324 c 128,-1,24
 901 1310 901 1310 900 1308 c 2,25,-1
 508 73 l 2,26,27
 497 41 497 41 470.5 21 c 128,-1,28
 444 1 444 1 410 1 c 0,29,30
 389 1 389 1 370.5 9 c 128,-1,31
 352 17 352 17 337 30 c 128,-1,32
 322 43 322 43 314 62 c 128,-1,33
 306 81 306 81 306 103 c 0,34,35
 306 111 306 111 307 119 c 128,-1,36
 308 127 308 127 311 135 c 2,37,-1
 664 1245 l 1,38,-1
 306 1245 l 1,39,-1
 306 1193 l 1,40,-1
 306 1141 l 2,0,1
EndSplineSet
EndChar
StartChar: nine
Encoding: 57 57 89
Width: 1130
Flags: W
LayerCount: 2
Back
Fore
SplineSet
187 193 m 1,0,1
 176 214 176 214 176 236 c 0,2,3
 176 256 176 256 184 274.5 c 128,-1,4
 192 293 192 293 205.5 307.5 c 128,-1,5
 219 322 219 322 237.5 331 c 128,-1,6
 256 340 256 340 279 340 c 0,7,8
 311 340 311 340 336 324 c 128,-1,9
 361 308 361 308 374 281 c 1,10,11
 382 262 382 262 398 248.5 c 128,-1,12
 414 235 414 235 434.5 225.5 c 128,-1,13
 455 216 455 216 479 211.5 c 128,-1,14
 503 207 503 207 528 207 c 0,15,16
 567 207 567 207 608.5 228.5 c 128,-1,17
 650 250 650 250 688 293.5 c 128,-1,18
 726 337 726 337 757.5 404 c 128,-1,19
 789 471 789 471 809 562 c 1,20,21
 761 540 761 540 697 529.5 c 128,-1,22
 633 519 633 519 565 519 c 0,23,24
 477 519 477 519 393 549.5 c 128,-1,25
 309 580 309 580 243.5 639.5 c 128,-1,26
 178 699 178 699 138 786 c 128,-1,27
 98 873 98 873 98 986 c 0,28,29
 98 1090 98 1090 128.5 1176 c 128,-1,30
 159 1262 159 1262 217 1323.5 c 128,-1,31
 275 1385 275 1385 358 1418.5 c 128,-1,32
 441 1452 441 1452 546 1452 c 0,33,34
 654 1452 654 1452 743.5 1407 c 128,-1,35
 833 1362 833 1362 897 1271.5 c 128,-1,36
 961 1181 961 1181 996.5 1045 c 128,-1,37
 1032 909 1032 909 1032 726 c 0,38,39
 1032 585 1032 585 995 454 c 128,-1,40
 958 323 958 323 891.5 222 c 128,-1,41
 825 121 825 121 732.5 60.5 c 128,-1,42
 640 0 640 0 528 0 c 0,43,44
 482 0 482 0 431.5 10.5 c 128,-1,45
 381 21 381 21 334.5 44 c 128,-1,46
 288 67 288 67 249 104 c 128,-1,47
 210 141 210 141 187 193 c 1,0,1
816 886 m 1,48,49
 805 968 805 968 784.5 1034.5 c 128,-1,50
 764 1101 764 1101 731.5 1147.5 c 128,-1,51
 699 1194 699 1194 653 1219.5 c 128,-1,52
 607 1245 607 1245 546 1245 c 0,53,54
 422 1245 422 1245 364 1176.5 c 128,-1,55
 306 1108 306 1108 306 986 c 0,56,57
 306 926 306 926 325 878.5 c 128,-1,58
 344 831 344 831 376.5 798.5 c 128,-1,59
 409 766 409 766 453 747 c 128,-1,60
 497 728 497 728 547 725 c 1,61,62
 612 725 612 725 653.5 731 c 128,-1,63
 695 737 695 737 720.5 747.5 c 128,-1,64
 746 758 746 758 760.5 771.5 c 128,-1,65
 775 785 775 785 786 802 c 0,66,67
 807 833 807 833 816 883 c 1,68,-1
 816 884 l 1,69,-1
 816 886 l 1,48,49
EndSplineSet
EndChar
StartChar: colon
Encoding: 58 58 99
Width: 403
Flags: W
LayerCount: 2
Back
Fore
SplineSet
305 933 m 2,0,1
 305 888 305 888 275.5 858.5 c 128,-1,2
 246 829 246 829 201 829 c 0,3,4
 179 829 179 829 160.5 837.5 c 128,-1,5
 142 846 142 846 128 860.5 c 128,-1,6
 114 875 114 875 106 893.5 c 128,-1,7
 98 912 98 912 98 933 c 2,8,-1
 98 935 l 2,9,10
 98 955 98 955 106 974 c 128,-1,11
 114 993 114 993 128 1007 c 128,-1,12
 142 1021 142 1021 160.5 1029.5 c 128,-1,13
 179 1038 179 1038 201 1038 c 0,14,15
 222 1038 222 1038 241 1030 c 128,-1,16
 260 1022 260 1022 274 1008.5 c 128,-1,17
 288 995 288 995 296.5 976 c 128,-1,18
 305 957 305 957 305 935 c 2,19,-1
 305 934 l 1,20,-1
 305 933 l 2,0,1
305 104 m 2,21,22
 305 60 305 60 275.5 30.5 c 128,-1,23
 246 1 246 1 201 1 c 0,24,25
 179 1 179 1 160.5 9.5 c 128,-1,26
 142 18 142 18 128 32 c 128,-1,27
 114 46 114 46 106 65 c 128,-1,28
 98 84 98 84 98 104 c 2,29,-1
 98 106 l 2,30,31
 98 127 98 127 106 145.5 c 128,-1,32
 114 164 114 164 128 178.5 c 128,-1,33
 142 193 142 193 160.5 201 c 128,-1,34
 179 209 179 209 201 209 c 0,35,36
 222 209 222 209 241 201.5 c 128,-1,37
 260 194 260 194 274 180 c 128,-1,38
 288 166 288 166 296.5 147.5 c 128,-1,39
 305 129 305 129 305 106 c 2,40,-1
 305 105 l 1,41,-1
 305 104 l 2,21,22
EndSplineSet
EndChar
StartChar: semicolon
Encoding: 59 59 98
Width: 412
Flags: W
LayerCount: 2
Back
Fore
SplineSet
105 0 m 2,0,1
 105 22 105 22 113.5 40.5 c 128,-1,2
 122 59 122 59 136 73 c 128,-1,3
 150 87 150 87 169 95.5 c 128,-1,4
 188 104 188 104 209 104 c 256,5,6
 230 104 230 104 248.5 96 c 128,-1,7
 267 88 267 88 281.5 74 c 128,-1,8
 296 60 296 60 304.5 41 c 128,-1,9
 313 22 313 22 313 0 c 2,10,-1
 313 -183 l 2,11,12
 313 -225 313 -225 299.5 -264.5 c 128,-1,13
 286 -304 286 -304 259.5 -334.5 c 128,-1,14
 233 -365 233 -365 193 -383 c 128,-1,15
 153 -401 153 -401 101 -401 c 0,16,17
 80 -401 80 -401 61 -392 c 128,-1,18
 42 -383 42 -383 28 -369 c 128,-1,19
 14 -355 14 -355 6 -336 c 128,-1,20
 -2 -317 -2 -317 -2 -297 c 0,21,22
 -2 -276 -2 -276 6 -257 c 128,-1,23
 14 -238 14 -238 28 -223.5 c 128,-1,24
 42 -209 42 -209 61 -201 c 128,-1,25
 80 -193 80 -193 101 -193 c 0,26,27
 104 -193 104 -193 104 -195 c 1,28,-1
 105 -196 l 1,29,-1
 105 -183 l 1,30,-1
 105 -90 l 1,31,-1
 105 0 l 2,0,1
313 933 m 2,32,33
 313 888 313 888 284 858.5 c 128,-1,34
 255 829 255 829 210 829 c 0,35,36
 188 829 188 829 169 837.5 c 128,-1,37
 150 846 150 846 136.5 860.5 c 128,-1,38
 123 875 123 875 115 893.5 c 128,-1,39
 107 912 107 912 107 933 c 2,40,-1
 107 935 l 2,41,42
 107 955 107 955 115 974 c 128,-1,43
 123 993 123 993 136.5 1007 c 128,-1,44
 150 1021 150 1021 169 1029.5 c 128,-1,45
 188 1038 188 1038 210 1038 c 0,46,47
 231 1038 231 1038 250 1030 c 128,-1,48
 269 1022 269 1022 283 1008.5 c 128,-1,49
 297 995 297 995 305 976 c 128,-1,50
 313 957 313 957 313 935 c 2,51,-1
 313 934 l 1,52,-1
 313 933 l 2,32,33
EndSplineSet
EndChar
StartChar: greater
Encoding: 62 62 79
Width: 1041
Flags: W
LayerCount: 2
Back
Fore
SplineSet
152 847 m 2,0,1
 105 878 105 878 105 938 c 0,2,3
 105 957 105 957 113.5 975.5 c 128,-1,4
 122 994 122 994 136 1007.5 c 128,-1,5
 150 1021 150 1021 169.5 1029.5 c 128,-1,6
 189 1038 189 1038 209 1038 c 1,7,8
 225 1037 225 1037 239.5 1033 c 128,-1,9
 254 1029 254 1029 267 1020 c 2,10,-1
 890 605 l 2,11,12
 911 592 911 592 923.5 568.5 c 128,-1,13
 936 545 936 545 936 517 c 0,14,15
 936 504 936 504 931 491 c 128,-1,16
 926 478 926 478 920.5 467 c 128,-1,17
 915 456 915 456 910 449.5 c 128,-1,18
 905 443 905 443 905 444 c 1,19,20
 894 435 894 435 888 431 c 2,21,-1
 267 18 l 2,22,23
 242 1 242 1 208 1 c 0,24,25
 187 1 187 1 168 9.5 c 128,-1,26
 149 18 149 18 135 31.5 c 128,-1,27
 121 45 121 45 113 63 c 128,-1,28
 105 81 105 81 105 100 c 0,29,30
 105 158 105 158 152 191 c 1,31,-1
 645 519 l 1,32,-1
 152 847 l 2,0,1
EndSplineSet
EndChar
StartChar: B
Encoding: 66 66 45
Width: 1234
Flags: W
LayerCount: 2
Back
Fore
SplineSet
306 830 m 1,0,-1
 720 830 l 2,1,2
 744 830 744 830 779.5 839.5 c 128,-1,3
 815 849 815 849 848 872.5 c 128,-1,4
 881 896 881 896 904.5 936 c 128,-1,5
 928 976 928 976 928 1038 c 0,6,7
 928 1071 928 1071 914.5 1108 c 128,-1,8
 901 1145 901 1145 875 1175.5 c 128,-1,9
 849 1206 849 1206 810 1225.5 c 128,-1,10
 771 1245 771 1245 720 1245 c 2,11,-1
 306 1245 l 1,12,-1
 306 830 l 1,0,-1
720 622 m 2,13,-1
 306 622 l 1,14,-1
 306 207 l 1,15,-1
 720 207 l 2,16,17
 755 207 755 207 791.5 220.5 c 128,-1,18
 828 234 828 234 858 260.5 c 128,-1,19
 888 287 888 287 908 326 c 128,-1,20
 928 365 928 365 928 415 c 0,21,22
 928 439 928 439 918 474.5 c 128,-1,23
 908 510 908 510 884 543 c 128,-1,24
 860 576 860 576 820 599 c 128,-1,25
 780 622 780 622 720 622 c 2,13,-1
1014 122 m 0,26,27
 958 65 958 65 880.5 32.5 c 128,-1,28
 803 0 803 0 720 0 c 2,29,-1
 201 0 l 2,30,31
 180 0 180 0 161 8.5 c 128,-1,32
 142 17 142 17 128 31 c 128,-1,33
 114 45 114 45 106 64 c 128,-1,34
 98 83 98 83 98 104 c 2,35,-1
 98 1348 l 2,36,37
 98 1369 98 1369 106 1388 c 128,-1,38
 114 1407 114 1407 128 1421.5 c 128,-1,39
 142 1436 142 1436 161 1444 c 128,-1,40
 180 1452 180 1452 201 1452 c 2,41,-1
 720 1452 l 2,42,43
 807 1452 807 1452 882.5 1419 c 128,-1,44
 958 1386 958 1386 1014.5 1329 c 128,-1,45
 1071 1272 1071 1272 1103.5 1196.5 c 128,-1,46
 1136 1121 1136 1121 1136 1038 c 0,47,48
 1136 954 1136 954 1104 878 c 128,-1,49
 1072 802 1072 802 1014 744 c 2,50,-1
 1005 735 l 2,51,52
 1002 732 1002 732 999.5 730 c 128,-1,53
 997 728 997 728 995 726 c 1,54,55
 1060 660 1060 660 1098 584 c 128,-1,56
 1136 508 1136 508 1136 415 c 0,57,58
 1136 330 1136 330 1104 255 c 128,-1,59
 1072 180 1072 180 1014 122 c 0,26,27
EndSplineSet
EndChar
StartChar: D
Encoding: 68 68 42
Width: 1234
Flags: W
LayerCount: 2
Back
Fore
SplineSet
617 207 m 2,0,1
 703 207 703 207 762 235.5 c 128,-1,2
 821 264 821 264 857.5 326 c 128,-1,3
 894 388 894 388 911 487 c 128,-1,4
 928 586 928 586 928 726 c 0,5,6
 928 835 928 835 917 930 c 128,-1,7
 906 1025 906 1025 872.5 1095 c 128,-1,8
 839 1165 839 1165 778 1205 c 128,-1,9
 717 1245 717 1245 617 1245 c 2,10,-1
 306 1245 l 1,11,-1
 306 207 l 1,12,-1
 461 207 l 1,13,-1
 617 207 l 2,0,1
1060 265 m 1,14,15
 995 128 995 128 885 63.5 c 128,-1,16
 775 -1 775 -1 617 0 c 2,17,-1
 414 1 l 1,18,-1
 211 1 l 2,19,20
 209 1 209 1 208 0.5 c 128,-1,21
 207 0 207 0 206 0 c 2,22,-1
 201 0 l 2,23,24
 180 0 180 0 161 8.5 c 128,-1,25
 142 17 142 17 128 31 c 128,-1,26
 114 45 114 45 106 64 c 128,-1,27
 98 83 98 83 98 104 c 2,28,-1
 98 1348 l 2,29,30
 98 1369 98 1369 106 1388 c 128,-1,31
 114 1407 114 1407 128 1421.5 c 128,-1,32
 142 1436 142 1436 161 1444 c 128,-1,33
 180 1452 180 1452 201 1452 c 2,34,-1
 617 1452 l 2,35,36
 746 1452 746 1452 843 1409.5 c 128,-1,37
 940 1367 940 1367 1005 1278 c 128,-1,38
 1070 1189 1070 1189 1103 1052 c 128,-1,39
 1136 915 1136 915 1136 726 c 0,40,41
 1136 572 1136 572 1117.5 461 c 128,-1,42
 1099 350 1099 350 1060 265 c 1,14,15
EndSplineSet
EndChar
StartChar: E
Encoding: 69 69 40
Width: 1234
Flags: W
LayerCount: 2
Back
Fore
SplineSet
1032 1452 m 2,0,1
 1053 1452 1053 1452 1072 1444 c 128,-1,2
 1091 1436 1091 1436 1105 1421.5 c 128,-1,3
 1119 1407 1119 1407 1127.5 1388.5 c 128,-1,4
 1136 1370 1136 1370 1136 1348 c 0,5,6
 1136 1328 1136 1328 1128 1309 c 128,-1,7
 1120 1290 1120 1290 1106 1276 c 128,-1,8
 1092 1262 1092 1262 1072.5 1253.5 c 128,-1,9
 1053 1245 1053 1245 1032 1245 c 2,10,-1
 306 1245 l 1,11,-1
 306 830 l 1,12,-1
 825 830 l 2,13,14
 844 830 844 830 863 823 c 128,-1,15
 882 816 882 816 896 802 c 128,-1,16
 910 788 910 788 919 769 c 128,-1,17
 928 750 928 750 928 726 c 0,18,19
 928 703 928 703 919 683.5 c 128,-1,20
 910 664 910 664 896 650.5 c 128,-1,21
 882 637 882 637 863 629.5 c 128,-1,22
 844 622 844 622 825 622 c 2,23,-1
 306 622 l 1,24,-1
 306 207 l 1,25,-1
 1032 207 l 2,26,27
 1052 207 1052 207 1071.5 199 c 128,-1,28
 1091 191 1091 191 1105 177 c 128,-1,29
 1119 163 1119 163 1127.5 144 c 128,-1,30
 1136 125 1136 125 1136 104 c 256,31,32
 1136 83 1136 83 1127.5 64 c 128,-1,33
 1119 45 1119 45 1105 31 c 128,-1,34
 1091 17 1091 17 1072 8.5 c 128,-1,35
 1053 0 1053 0 1032 0 c 2,36,-1
 201 0 l 2,37,38
 180 0 180 0 161 8.5 c 128,-1,39
 142 17 142 17 128 31 c 128,-1,40
 114 45 114 45 106 64 c 128,-1,41
 98 83 98 83 98 104 c 2,42,-1
 98 1348 l 2,43,44
 98 1369 98 1369 106 1388 c 128,-1,45
 114 1407 114 1407 128 1421.5 c 128,-1,46
 142 1436 142 1436 161 1444 c 128,-1,47
 180 1452 180 1452 201 1452 c 2,48,-1
 1032 1452 l 2,0,1
EndSplineSet
EndChar
StartChar: F
Encoding: 70 70 41
Width: 1234
Flags: W
LayerCount: 2
Back
Fore
SplineSet
1032 1452 m 2,0,1
 1053 1452 1053 1452 1072 1444 c 128,-1,2
 1091 1436 1091 1436 1105 1421.5 c 128,-1,3
 1119 1407 1119 1407 1127.5 1388.5 c 128,-1,4
 1136 1370 1136 1370 1136 1348 c 0,5,6
 1136 1328 1136 1328 1128 1309 c 128,-1,7
 1120 1290 1120 1290 1106 1276 c 128,-1,8
 1092 1262 1092 1262 1072.5 1253.5 c 128,-1,9
 1053 1245 1053 1245 1032 1245 c 2,10,-1
 306 1245 l 1,11,-1
 306 830 l 1,12,-1
 825 830 l 2,13,14
 844 830 844 830 863 823 c 128,-1,15
 882 816 882 816 896 802 c 128,-1,16
 910 788 910 788 919 769 c 128,-1,17
 928 750 928 750 928 726 c 0,18,19
 928 703 928 703 919 683.5 c 128,-1,20
 910 664 910 664 896 650.5 c 128,-1,21
 882 637 882 637 863 629.5 c 128,-1,22
 844 622 844 622 825 622 c 2,23,-1
 306 622 l 1,24,-1
 306 104 l 2,25,26
 306 83 306 83 297.5 64 c 128,-1,27
 289 45 289 45 274.5 31 c 128,-1,28
 260 17 260 17 241.5 8.5 c 128,-1,29
 223 0 223 0 201 0 c 0,30,31
 180 0 180 0 161 8.5 c 128,-1,32
 142 17 142 17 128 31 c 128,-1,33
 114 45 114 45 106 64 c 128,-1,34
 98 83 98 83 98 104 c 2,35,-1
 98 1348 l 2,36,37
 98 1369 98 1369 106 1388 c 128,-1,38
 114 1407 114 1407 128 1421.5 c 128,-1,39
 142 1436 142 1436 161 1444 c 128,-1,40
 180 1452 180 1452 201 1452 c 2,41,-1
 617 1452 l 1,42,-1
 1032 1452 l 2,0,1
EndSplineSet
EndChar
StartChar: H
Encoding: 72 72 39
Width: 1234
Flags: W
LayerCount: 2
Back
Fore
SplineSet
98 1348 m 2,0,1
 98 1369 98 1369 106 1388 c 128,-1,2
 114 1407 114 1407 128 1421.5 c 128,-1,3
 142 1436 142 1436 161 1444 c 128,-1,4
 180 1452 180 1452 201 1452 c 0,5,6
 223 1452 223 1452 241.5 1444 c 128,-1,7
 260 1436 260 1436 274.5 1421.5 c 128,-1,8
 289 1407 289 1407 297.5 1388.5 c 128,-1,9
 306 1370 306 1370 306 1348 c 2,10,-1
 306 830 l 1,11,-1
 928 830 l 1,12,-1
 928 1348 l 2,13,14
 928 1370 928 1370 936 1388.5 c 128,-1,15
 944 1407 944 1407 958.5 1421.5 c 128,-1,16
 973 1436 973 1436 991.5 1444 c 128,-1,17
 1010 1452 1010 1452 1032 1452 c 0,18,19
 1053 1452 1053 1452 1072 1444 c 128,-1,20
 1091 1436 1091 1436 1105 1421.5 c 128,-1,21
 1119 1407 1119 1407 1127.5 1388.5 c 128,-1,22
 1136 1370 1136 1370 1136 1348 c 2,23,-1
 1136 726 l 1,24,-1
 1136 104 l 2,25,26
 1136 83 1136 83 1127.5 64 c 128,-1,27
 1119 45 1119 45 1105 31 c 128,-1,28
 1091 17 1091 17 1072 8.5 c 128,-1,29
 1053 0 1053 0 1032 0 c 0,30,31
 1010 0 1010 0 991.5 8.5 c 128,-1,32
 973 17 973 17 958.5 31 c 128,-1,33
 944 45 944 45 936 64 c 128,-1,34
 928 83 928 83 928 104 c 2,35,-1
 928 622 l 1,36,-1
 306 622 l 1,37,-1
 306 104 l 2,38,39
 306 83 306 83 297.5 64 c 128,-1,40
 289 45 289 45 274.5 31 c 128,-1,41
 260 17 260 17 241.5 8.5 c 128,-1,42
 223 0 223 0 201 0 c 0,43,44
 180 0 180 0 161 8.5 c 128,-1,45
 142 17 142 17 128 31 c 128,-1,46
 114 45 114 45 106 64 c 128,-1,47
 98 83 98 83 98 104 c 2,48,-1
 98 726 l 1,49,-1
 98 1038 l 1,50,-1
 98 1348 l 2,0,1
EndSplineSet
EndChar
StartChar: K
Encoding: 75 75 36
Width: 1238
Flags: W
LayerCount: 2
Back
Fore
SplineSet
98 1348 m 2,0,1
 98 1369 98 1369 106 1388 c 128,-1,2
 114 1407 114 1407 128 1421.5 c 128,-1,3
 142 1436 142 1436 161 1444 c 128,-1,4
 180 1452 180 1452 201 1452 c 0,5,6
 223 1452 223 1452 241.5 1444 c 128,-1,7
 260 1436 260 1436 274.5 1421.5 c 128,-1,8
 289 1407 289 1407 297.5 1388.5 c 128,-1,9
 306 1370 306 1370 306 1348 c 2,10,-1
 306 768 l 1,11,-1
 958 1422 l 2,12,13
 989 1452 989 1452 1032 1452 c 0,14,15
 1053 1452 1053 1452 1072.5 1444 c 128,-1,16
 1092 1436 1092 1436 1105.5 1421 c 128,-1,17
 1119 1406 1119 1406 1127.5 1387.5 c 128,-1,18
 1136 1369 1136 1369 1136 1348 c 0,19,20
 1136 1306 1136 1306 1106 1276 c 2,21,-1
 649 819 l 1,22,-1
 1116 164 l 2,23,24
 1135 136 1135 136 1135 102 c 0,25,26
 1135 78 1135 78 1125.5 59 c 128,-1,27
 1116 40 1116 40 1101.5 27.5 c 128,-1,28
 1087 15 1087 15 1068.5 8 c 128,-1,29
 1050 1 1050 1 1031 1 c 0,30,31
 1002 0 1002 0 982.5 11.5 c 128,-1,32
 963 23 963 23 947 44 c 2,33,-1
 500 670 l 1,34,-1
 306 476 l 1,35,-1
 306 104 l 2,36,37
 306 83 306 83 297.5 64 c 128,-1,38
 289 45 289 45 274.5 31 c 128,-1,39
 260 17 260 17 241.5 8.5 c 128,-1,40
 223 0 223 0 201 0 c 0,41,42
 180 0 180 0 161 8.5 c 128,-1,43
 142 17 142 17 128 31 c 128,-1,44
 114 45 114 45 106 64 c 128,-1,45
 98 83 98 83 98 104 c 2,46,-1
 98 726 l 1,47,-1
 98 1348 l 2,0,1
EndSplineSet
EndChar
StartChar: O
Encoding: 79 79 32
Width: 1234
Flags: W
LayerCount: 2
Back
Fore
SplineSet
617 1452 m 0,0,1
 734 1452 734 1452 830 1411 c 128,-1,2
 926 1370 926 1370 993.5 1282 c 128,-1,3
 1061 1194 1061 1194 1098.5 1056.5 c 128,-1,4
 1136 919 1136 919 1136 726 c 0,5,6
 1136 367 1136 367 1004 183.5 c 128,-1,7
 872 0 872 0 617 0 c 0,8,9
 493 0 493 0 396.5 43.5 c 128,-1,10
 300 87 300 87 233.5 176.5 c 128,-1,11
 167 266 167 266 132.5 403 c 128,-1,12
 98 540 98 540 98 726 c 0,13,14
 98 1081 98 1081 228 1266.5 c 128,-1,15
 358 1452 358 1452 617 1452 c 0,0,1
824 1165 m 0,16,17
 754 1245 754 1245 617 1245 c 0,18,19
 532 1245 532 1245 472.5 1212 c 128,-1,20
 413 1179 413 1179 376 1114.5 c 128,-1,21
 339 1050 339 1050 322.5 952.5 c 128,-1,22
 306 855 306 855 306 726 c 0,23,24
 306 595 306 595 323 497.5 c 128,-1,25
 340 400 340 400 378 335.5 c 128,-1,26
 416 271 416 271 475 239 c 128,-1,27
 534 207 534 207 617 207 c 0,28,29
 702 207 702 207 761.5 238.5 c 128,-1,30
 821 270 821 270 857.5 334.5 c 128,-1,31
 894 399 894 399 911 497 c 128,-1,32
 928 595 928 595 928 726 c 0,33,34
 928 888 928 888 902.5 995.5 c 128,-1,35
 877 1103 877 1103 824 1165 c 0,16,17
EndSplineSet
EndChar
StartChar: T
Encoding: 84 84 27
Width: 1234
Flags: W
LayerCount: 2
Back
Fore
SplineSet
201 1245 m 2,0,1
 179 1245 179 1245 160.5 1253.5 c 128,-1,2
 142 1262 142 1262 128 1276 c 128,-1,3
 114 1290 114 1290 106 1309 c 128,-1,4
 98 1328 98 1328 98 1348 c 0,5,6
 98 1369 98 1369 106 1388 c 128,-1,7
 114 1407 114 1407 128 1421.5 c 128,-1,8
 142 1436 142 1436 161 1444 c 128,-1,9
 180 1452 180 1452 201 1452 c 2,10,-1
 617 1452 l 1,11,-1
 1032 1452 l 2,12,13
 1053 1452 1053 1452 1072 1444 c 128,-1,14
 1091 1436 1091 1436 1105 1421.5 c 128,-1,15
 1119 1407 1119 1407 1127.5 1388.5 c 128,-1,16
 1136 1370 1136 1370 1136 1348 c 0,17,18
 1136 1328 1136 1328 1128 1309 c 128,-1,19
 1120 1290 1120 1290 1106 1276 c 128,-1,20
 1092 1262 1092 1262 1072.5 1253.5 c 128,-1,21
 1053 1245 1053 1245 1032 1245 c 2,22,-1
 720 1245 l 1,23,-1
 720 104 l 2,24,25
 720 83 720 83 712 64 c 128,-1,26
 704 45 704 45 690 31 c 128,-1,27
 676 17 676 17 657 8.5 c 128,-1,28
 638 0 638 0 617 0 c 256,29,30
 596 0 596 0 577 8.5 c 128,-1,31
 558 17 558 17 544 31 c 128,-1,32
 530 45 530 45 521.5 64 c 128,-1,33
 513 83 513 83 513 104 c 2,34,-1
 513 1245 l 1,35,-1
 358 1245 l 1,36,-1
 201 1245 l 2,0,1
EndSplineSet
EndChar
StartChar: X
Encoding: 88 88 24
Width: 1248
Flags: W
LayerCount: 2
Back
Fore
SplineSet
123 1291 m 1,0,1
 105 1316 105 1316 105 1344 c 0,2,3
 105 1365 105 1365 112.5 1384.5 c 128,-1,4
 120 1404 120 1404 133.5 1419.5 c 128,-1,5
 147 1435 147 1435 167 1443.5 c 128,-1,6
 187 1452 187 1452 210 1452 c 0,7,8
 238 1451 238 1451 260 1438.5 c 128,-1,9
 282 1426 282 1426 296 1406 c 2,10,-1
 625 913 l 1,11,-1
 953 1406 l 2,12,13
 967 1426 967 1426 988.5 1439 c 128,-1,14
 1010 1452 1010 1452 1039 1452 c 0,15,16
 1059 1452 1059 1452 1078.5 1444 c 128,-1,17
 1098 1436 1098 1436 1112 1421.5 c 128,-1,18
 1126 1407 1126 1407 1134.5 1388 c 128,-1,19
 1143 1369 1143 1369 1143 1346 c 0,20,21
 1143 1315 1143 1315 1126 1291 c 2,22,-1
 749 726 l 1,23,-1
 1126 161 l 2,24,25
 1143 136 1143 136 1143 105 c 0,26,27
 1143 83 1143 83 1134.5 63.5 c 128,-1,28
 1126 44 1126 44 1112 30.5 c 128,-1,29
 1098 17 1098 17 1078.5 9 c 128,-1,30
 1059 1 1059 1 1038 1 c 0,31,32
 1010 0 1010 0 988.5 13.5 c 128,-1,33
 967 27 967 27 953 46 c 1,34,-1
 625 540 l 1,35,-1
 296 46 l 2,36,37
 282 25 282 25 261 13 c 128,-1,38
 240 1 240 1 211 1 c 0,39,40
 188 1 188 1 168.5 9.5 c 128,-1,41
 149 18 149 18 135 32 c 128,-1,42
 121 46 121 46 113 65.5 c 128,-1,43
 105 85 105 85 105 107 c 0,44,45
 105 135 105 135 123 161 c 2,46,-1
 500 726 l 1,47,-1
 312 1008 l 1,48,-1
 123 1291 l 1,0,1
EndSplineSet
EndChar
StartChar: Y
Encoding: 89 89 23
Width: 1251
Flags: W
LayerCount: 2
Back
Fore
SplineSet
117 1306 m 2,0,1
 107 1329 107 1329 107 1347 c 0,2,3
 107 1367 107 1367 115 1385.5 c 128,-1,4
 123 1404 123 1404 136.5 1419 c 128,-1,5
 150 1434 150 1434 169.5 1443 c 128,-1,6
 189 1452 189 1452 211 1452 c 0,7,8
 243 1452 243 1452 268.5 1434.5 c 128,-1,9
 294 1417 294 1417 306 1391 c 2,10,-1
 628 670 l 1,11,-1
 946 1391 l 2,12,13
 959 1419 959 1419 984.5 1435.5 c 128,-1,14
 1010 1452 1010 1452 1042 1452 c 0,15,16
 1063 1452 1063 1452 1082 1444 c 128,-1,17
 1101 1436 1101 1436 1114.5 1421.5 c 128,-1,18
 1128 1407 1128 1407 1136.5 1388.5 c 128,-1,19
 1145 1370 1145 1370 1145 1349 c 256,20,21
 1145 1328 1145 1328 1136 1307 c 2,22,-1
 732 394 l 1,23,-1
 732 104 l 2,24,25
 732 82 732 82 723.5 62.5 c 128,-1,26
 715 43 715 43 701 29.5 c 128,-1,27
 687 16 687 16 668.5 8 c 128,-1,28
 650 0 650 0 629 0 c 0,29,30
 607 0 607 0 588.5 8.5 c 128,-1,31
 570 17 570 17 555.5 31 c 128,-1,32
 541 45 541 45 533 64 c 128,-1,33
 525 83 525 83 525 104 c 2,34,-1
 525 394 l 1,35,-1
 325 839 l 1,36,-1
 117 1306 l 2,0,1
EndSplineSet
EndChar
StartChar: Z
Encoding: 90 90 22
Width: 1242
Flags: W
LayerCount: 2
Back
Fore
SplineSet
209 1245 m 2,0,1
 187 1245 187 1245 168 1253.5 c 128,-1,2
 149 1262 149 1262 135.5 1276 c 128,-1,3
 122 1290 122 1290 114 1309 c 128,-1,4
 106 1328 106 1328 106 1348 c 0,5,6
 106 1369 106 1369 114 1388 c 128,-1,7
 122 1407 122 1407 136 1421.5 c 128,-1,8
 150 1436 150 1436 169 1444 c 128,-1,9
 188 1452 188 1452 209 1452 c 2,10,-1
 1040 1452 l 2,11,12
 1061 1452 1061 1452 1080 1444 c 128,-1,13
 1099 1436 1099 1436 1113 1421.5 c 128,-1,14
 1127 1407 1127 1407 1135.5 1388.5 c 128,-1,15
 1144 1370 1144 1370 1144 1348 c 0,16,17
 1144 1335 1144 1335 1139.5 1319 c 128,-1,18
 1135 1303 1135 1303 1125 1290 c 1,19,-1
 404 207 l 1,20,-1
 1040 207 l 2,21,22
 1060 207 1060 207 1079.5 199 c 128,-1,23
 1099 191 1099 191 1113 177 c 128,-1,24
 1127 163 1127 163 1135.5 144 c 128,-1,25
 1144 125 1144 125 1144 104 c 256,26,27
 1144 83 1144 83 1135.5 64 c 128,-1,28
 1127 45 1127 45 1113 31 c 128,-1,29
 1099 17 1099 17 1080 8.5 c 128,-1,30
 1061 0 1061 0 1040 0 c 2,31,-1
 210 0 l 2,32,33
 187 0 187 0 167.5 9 c 128,-1,34
 148 18 148 18 134.5 32.5 c 128,-1,35
 121 47 121 47 113 66 c 128,-1,36
 105 85 105 85 105 107 c 0,37,38
 105 135 105 135 123 161 c 2,39,-1
 846 1245 l 1,40,-1
 528 1245 l 1,41,-1
 209 1245 l 2,0,1
EndSplineSet
EndChar
StartChar: bracketleft
Encoding: 91 91 95
Width: 611
Flags: W
LayerCount: 2
Back
Fore
SplineSet
410 2 m 2,0,1
 430 2 430 2 449.5 -6.5 c 128,-1,2
 469 -15 469 -15 482.5 -29 c 128,-1,3
 496 -43 496 -43 504.5 -62.5 c 128,-1,4
 513 -82 513 -82 513 -102 c 0,5,6
 513 -123 513 -123 504.5 -142 c 128,-1,7
 496 -161 496 -161 482.5 -175.5 c 128,-1,8
 469 -190 469 -190 449.5 -198 c 128,-1,9
 430 -206 430 -206 410 -206 c 2,10,-1
 201 -206 l 2,11,12
 181 -206 181 -206 162 -198 c 128,-1,13
 143 -190 143 -190 129 -175.5 c 128,-1,14
 115 -161 115 -161 106.5 -142.5 c 128,-1,15
 98 -124 98 -124 98 -102 c 2,16,-1
 98 1453 l 2,17,18
 98 1474 98 1474 106.5 1493 c 128,-1,19
 115 1512 115 1512 128.5 1526 c 128,-1,20
 142 1540 142 1540 161.5 1548.5 c 128,-1,21
 181 1557 181 1557 201 1557 c 2,22,-1
 410 1557 l 2,23,24
 430 1557 430 1557 449.5 1548.5 c 128,-1,25
 469 1540 469 1540 482.5 1526 c 128,-1,26
 496 1512 496 1512 504.5 1493 c 128,-1,27
 513 1474 513 1474 513 1453 c 0,28,29
 513 1433 513 1433 505 1414 c 128,-1,30
 497 1395 497 1395 483.5 1381 c 128,-1,31
 470 1367 470 1367 450.5 1358.5 c 128,-1,32
 431 1350 431 1350 410 1350 c 2,33,-1
 306 1350 l 1,34,-1
 306 2 l 1,35,-1
 358 2 l 1,36,-1
 410 2 l 2,0,1
EndSplineSet
EndChar
StartChar: backslash
Encoding: 92 92 18
Width: 1234
Flags: W
LayerCount: 2
Back
Fore
SplineSet
720 225 m 1,0,1
 768 234 768 234 806 265.5 c 128,-1,2
 844 297 844 297 871 339 c 128,-1,3
 898 381 898 381 913 429 c 128,-1,4
 928 477 928 477 928 519 c 0,5,6
 928 570 928 570 912.5 615.5 c 128,-1,7
 897 661 897 661 869.5 699 c 128,-1,8
 842 737 842 737 804 765.5 c 128,-1,9
 766 794 766 794 720 812 c 1,10,-1
 720 519 l 1,11,-1
 720 225 l 1,0,1
513 812 m 1,12,13
 473 797 473 797 435 770 c 128,-1,14
 397 743 397 743 368.5 705 c 128,-1,15
 340 667 340 667 323 620.5 c 128,-1,16
 306 574 306 574 306 519 c 0,17,18
 306 467 306 467 321.5 420.5 c 128,-1,19
 337 374 337 374 365 336 c 128,-1,20
 393 298 393 298 431 269.5 c 128,-1,21
 469 241 469 241 513 225 c 1,22,-1
 513 519 l 1,23,-1
 513 812 l 1,12,13
513 1348 m 2,24,25
 513 1370 513 1370 521.5 1388.5 c 128,-1,26
 530 1407 530 1407 544 1421.5 c 128,-1,27
 558 1436 558 1436 577 1444 c 128,-1,28
 596 1452 596 1452 617 1452 c 256,29,30
 638 1452 638 1452 657 1444 c 128,-1,31
 676 1436 676 1436 690 1421.5 c 128,-1,32
 704 1407 704 1407 712 1388 c 128,-1,33
 720 1369 720 1369 720 1348 c 2,34,-1
 720 1027 l 1,35,36
 809 1007 809 1007 884.5 960.5 c 128,-1,37
 960 914 960 914 1016 847 c 128,-1,38
 1072 780 1072 780 1104 696.5 c 128,-1,39
 1136 613 1136 613 1136 519 c 0,40,41
 1136 431 1136 431 1107 348.5 c 128,-1,42
 1078 266 1078 266 1024 197.5 c 128,-1,43
 970 129 970 129 893 79.5 c 128,-1,44
 816 30 816 30 720 11 c 1,45,-1
 720 -311 l 2,46,47
 720 -331 720 -331 712 -350.5 c 128,-1,48
 704 -370 704 -370 690 -383.5 c 128,-1,49
 676 -397 676 -397 657 -405.5 c 128,-1,50
 638 -414 638 -414 617 -414 c 256,51,52
 596 -414 596 -414 577 -406 c 128,-1,53
 558 -398 558 -398 544 -384 c 128,-1,54
 530 -370 530 -370 521.5 -351 c 128,-1,55
 513 -332 513 -332 513 -311 c 2,56,-1
 513 11 l 1,57,58
 419 29 419 29 342 78 c 128,-1,59
 265 127 265 127 211 195 c 128,-1,60
 157 263 157 263 127.5 346.5 c 128,-1,61
 98 430 98 430 98 519 c 0,62,63
 98 602 98 602 125 684 c 128,-1,64
 152 766 152 766 205 834.5 c 128,-1,65
 258 903 258 903 335.5 953.5 c 128,-1,66
 413 1004 413 1004 513 1027 c 1,67,-1
 513 1348 l 2,24,25
EndSplineSet
EndChar
StartChar: bracketright
Encoding: 93 93 77
Width: 611
Flags: W
LayerCount: 2
Back
Fore
SplineSet
201 1348 m 2,0,1
 180 1348 180 1348 161 1356.5 c 128,-1,2
 142 1365 142 1365 128 1379.5 c 128,-1,3
 114 1394 114 1394 106 1412.5 c 128,-1,4
 98 1431 98 1431 98 1452 c 256,5,6
 98 1473 98 1473 106.5 1492 c 128,-1,7
 115 1511 115 1511 128.5 1525.5 c 128,-1,8
 142 1540 142 1540 161.5 1548.5 c 128,-1,9
 181 1557 181 1557 201 1557 c 2,10,-1
 410 1557 l 2,11,12
 430 1557 430 1557 449 1548.5 c 128,-1,13
 468 1540 468 1540 482 1525.5 c 128,-1,14
 496 1511 496 1511 504.5 1492.5 c 128,-1,15
 513 1474 513 1474 513 1452 c 2,16,-1
 513 -103 l 2,17,18
 513 -124 513 -124 504.5 -143 c 128,-1,19
 496 -162 496 -162 482.5 -176 c 128,-1,20
 469 -190 469 -190 449.5 -198 c 128,-1,21
 430 -206 430 -206 410 -206 c 2,22,-1
 201 -206 l 2,23,24
 181 -206 181 -206 161.5 -198 c 128,-1,25
 142 -190 142 -190 128.5 -176 c 128,-1,26
 115 -162 115 -162 106.5 -143 c 128,-1,27
 98 -124 98 -124 98 -103 c 0,28,29
 98 -83 98 -83 106 -64 c 128,-1,30
 114 -45 114 -45 128 -31 c 128,-1,31
 142 -17 142 -17 160.5 -8.5 c 128,-1,32
 179 0 179 0 201 0 c 2,33,-1
 306 0 l 1,34,-1
 306 1348 l 1,35,-1
 254 1348 l 1,36,-1
 201 1348 l 2,0,1
EndSplineSet
EndChar
StartChar: underscore
Encoding: 95 95 161
Width: 697
Flags: W
LayerCount: 2
Back
Fore
SplineSet
0 -617 m 2,0,1
 -21 -617 -21 -617 -40 -608.5 c 128,-1,2
 -59 -600 -59 -600 -72.5 -586.5 c 128,-1,3
 -86 -573 -86 -573 -94.5 -554 c 128,-1,4
 -103 -535 -103 -535 -103 -514 c 256,5,6
 -103 -493 -103 -493 -95 -474 c 128,-1,7
 -87 -455 -87 -455 -73 -441 c 128,-1,8
 -59 -427 -59 -427 -40.5 -418.5 c 128,-1,9
 -22 -410 -22 -410 0 -410 c 2,10,-1
 695 -410 l 2,11,12
 715 -410 715 -410 734.5 -418.5 c 128,-1,13
 754 -427 754 -427 767.5 -441 c 128,-1,14
 781 -455 781 -455 789.5 -474 c 128,-1,15
 798 -493 798 -493 798 -514 c 256,16,17
 798 -535 798 -535 789.5 -554 c 128,-1,18
 781 -573 781 -573 767.5 -586.5 c 128,-1,19
 754 -600 754 -600 734.5 -608.5 c 128,-1,20
 715 -617 715 -617 695 -617 c 2,21,-1
 348 -617 l 1,22,-1
 0 -617 l 2,0,1
EndSplineSet
EndChar
StartChar: grave
Encoding: 96 96 83
Width: 611
Flags: W
LayerCount: 2
Back
Fore
SplineSet
129 1483 m 1,0,1
 98 1510 98 1510 98 1557 c 0,2,3
 98 1577 98 1577 106 1596 c 128,-1,4
 114 1615 114 1615 128 1629 c 128,-1,5
 142 1643 142 1643 160.5 1651.5 c 128,-1,6
 179 1660 179 1660 201 1660 c 0,7,8
 224 1660 224 1660 241.5 1652 c 128,-1,9
 259 1644 259 1644 275 1629 c 2,10,-1
 483 1422 l 2,11,12
 513 1392 513 1392 513 1348 c 0,13,14
 513 1326 513 1326 504.5 1307 c 128,-1,15
 496 1288 496 1288 482 1274.5 c 128,-1,16
 468 1261 468 1261 449 1253 c 128,-1,17
 430 1245 430 1245 410 1245 c 0,18,19
 364 1245 364 1245 336 1276 c 1,20,-1
 232 1379 l 1,21,-1
 129 1483 l 1,0,1
EndSplineSet
EndChar
StartChar: b
Encoding: 98 98 72
Width: 1026
Flags: W
LayerCount: 2
Back
Fore
SplineSet
513 1038 m 0,0,1
 604 1038 604 1038 680.5 1006 c 128,-1,2
 757 974 757 974 812 909.5 c 128,-1,3
 867 845 867 845 897.5 747.5 c 128,-1,4
 928 650 928 650 928 519 c 0,5,6
 928 386 928 386 897 288.5 c 128,-1,7
 866 191 866 191 811 126.5 c 128,-1,8
 756 62 756 62 679.5 31 c 128,-1,9
 603 0 603 0 513 0 c 0,10,11
 448 0 448 0 395.5 14.5 c 128,-1,12
 343 29 343 29 295 58 c 1,13,14
 281 29 281 29 255.5 14.5 c 128,-1,15
 230 0 230 0 201 0 c 0,16,17
 180 0 180 0 161 8.5 c 128,-1,18
 142 17 142 17 128 31 c 128,-1,19
 114 45 114 45 106 64 c 128,-1,20
 98 83 98 83 98 104 c 2,21,-1
 98 1348 l 2,22,23
 98 1369 98 1369 106 1388 c 128,-1,24
 114 1407 114 1407 128 1421.5 c 128,-1,25
 142 1436 142 1436 161 1444 c 128,-1,26
 180 1452 180 1452 201 1452 c 0,27,28
 223 1452 223 1452 241.5 1444 c 128,-1,29
 260 1436 260 1436 274.5 1421.5 c 128,-1,30
 289 1407 289 1407 297.5 1388.5 c 128,-1,31
 306 1370 306 1370 306 1348 c 2,32,-1
 306 986 l 1,33,34
 352 1011 352 1011 402 1024.5 c 128,-1,35
 452 1038 452 1038 513 1038 c 0,0,1
662 766 m 0,36,37
 638 797 638 797 599.5 813.5 c 128,-1,38
 561 830 561 830 513 830 c 0,39,40
 404 830 404 830 355.5 754 c 128,-1,41
 307 678 307 678 307 519 c 0,42,43
 307 433 307 433 320 374 c 128,-1,44
 333 315 333 315 359 278 c 128,-1,45
 385 241 385 241 423.5 224 c 128,-1,46
 462 207 462 207 513 207 c 0,47,48
 561 207 561 207 599.5 223.5 c 128,-1,49
 638 240 638 240 665 276.5 c 128,-1,50
 692 313 692 313 706 372 c 128,-1,51
 720 431 720 431 720 519 c 0,52,53
 720 610 720 610 705.5 669 c 128,-1,54
 691 728 691 728 662 766 c 0,36,37
EndSplineSet
EndChar
StartChar: c
Encoding: 99 99 74
Width: 960
Flags: W
LayerCount: 2
Back
Fore
SplineSet
666 276 m 1,0,1
 680 298 680 298 702.5 309 c 128,-1,2
 725 320 725 320 754 320 c 0,3,4
 772 320 772 320 790.5 312.5 c 128,-1,5
 809 305 809 305 823 290.5 c 128,-1,6
 837 276 837 276 845.5 257.5 c 128,-1,7
 854 239 854 239 854 217 c 0,8,9
 854 185 854 185 837 157 c 128,-1,10
 820 129 820 129 794.5 106 c 128,-1,11
 769 83 769 83 742 66 c 128,-1,12
 715 49 715 49 696 39 c 0,13,14
 616 0 616 0 513 0 c 0,15,16
 417 0 417 0 340 33.5 c 128,-1,17
 263 67 263 67 209.5 132.5 c 128,-1,18
 156 198 156 198 127 295 c 128,-1,19
 98 392 98 392 98 519 c 0,20,21
 98 654 98 654 129.5 751.5 c 128,-1,22
 161 849 161 849 216 913 c 128,-1,23
 271 977 271 977 347.5 1007.5 c 128,-1,24
 424 1038 424 1038 513 1038 c 0,25,26
 620 1038 620 1038 703 994.5 c 128,-1,27
 786 951 786 951 839 875 c 0,28,29
 857 848 857 848 857 817 c 0,30,31
 857 794 857 794 848 775 c 128,-1,32
 839 756 839 756 825 742 c 128,-1,33
 811 728 811 728 792.5 720 c 128,-1,34
 774 712 774 712 756 712 c 0,35,36
 699 712 699 712 667 759 c 0,37,38
 646 790 646 790 608 810 c 128,-1,39
 570 830 570 830 513 830 c 0,40,41
 405 830 405 830 355.5 754.5 c 128,-1,42
 306 679 306 679 306 519 c 0,43,44
 306 427 306 427 321 367 c 128,-1,45
 336 307 336 307 363 271.5 c 128,-1,46
 390 236 390 236 428.5 221.5 c 128,-1,47
 467 207 467 207 513 207 c 0,48,49
 561 207 561 207 598 220.5 c 128,-1,50
 635 234 635 234 666 276 c 1,0,1
EndSplineSet
EndChar
StartChar: j
Encoding: 106 106 65
Width: 406
Flags: W
LayerCount: 2
Back
Fore
SplineSet
100 1348 m 2,0,1
 100 1369 100 1369 108 1387.5 c 128,-1,2
 116 1406 116 1406 129.5 1420.5 c 128,-1,3
 143 1435 143 1435 162 1443 c 128,-1,4
 181 1451 181 1451 203 1451 c 0,5,6
 226 1451 226 1451 245 1443 c 128,-1,7
 264 1435 264 1435 278 1420.5 c 128,-1,8
 292 1406 292 1406 300 1387.5 c 128,-1,9
 308 1369 308 1369 308 1348 c 2,10,-1
 308 1346 l 2,11,12
 308 1324 308 1324 299.5 1305 c 128,-1,13
 291 1286 291 1286 276.5 1272.5 c 128,-1,14
 262 1259 262 1259 243.5 1251 c 128,-1,15
 225 1243 225 1243 203 1243 c 0,16,17
 159 1243 159 1243 129.5 1272.5 c 128,-1,18
 100 1302 100 1302 100 1346 c 2,19,-1
 100 1347 l 1,20,-1
 100 1348 l 2,0,1
100 934 m 2,21,22
 100 953 100 953 108 972 c 128,-1,23
 116 991 116 991 129.5 1005 c 128,-1,24
 143 1019 143 1019 162 1028 c 128,-1,25
 181 1037 181 1037 203 1037 c 256,26,27
 225 1037 225 1037 244 1028.5 c 128,-1,28
 263 1020 263 1020 277.5 1006 c 128,-1,29
 292 992 292 992 300 973 c 128,-1,30
 308 954 308 954 308 934 c 2,31,-1
 308 -102 l 2,32,33
 308 -162 308 -162 284.5 -218 c 128,-1,34
 261 -274 261 -274 219.5 -317.5 c 128,-1,35
 178 -361 178 -361 120.5 -387 c 128,-1,36
 63 -413 63 -413 -6 -413 c 0,37,38
 -27 -413 -27 -413 -45 -404.5 c 128,-1,39
 -63 -396 -63 -396 -76 -382 c 128,-1,40
 -89 -368 -89 -368 -97 -349 c 128,-1,41
 -105 -330 -105 -330 -105 -310 c 0,42,43
 -105 -288 -105 -288 -96.5 -269.5 c 128,-1,44
 -88 -251 -88 -251 -74.5 -236.5 c 128,-1,45
 -61 -222 -61 -222 -42.5 -214 c 128,-1,46
 -24 -206 -24 -206 -3 -206 c 0,47,48
 16 -206 16 -206 34.5 -199 c 128,-1,49
 53 -192 53 -192 68 -178 c 128,-1,50
 83 -164 83 -164 91.5 -145 c 128,-1,51
 100 -126 100 -126 100 -102 c 2,52,-1
 100 416 l 1,53,-1
 100 934 l 2,21,22
EndSplineSet
EndChar
StartChar: k
Encoding: 107 107 64
Width: 1034
Flags: W
LayerCount: 2
Back
Fore
SplineSet
98 1348 m 2,0,1
 98 1369 98 1369 106 1387.5 c 128,-1,2
 114 1406 114 1406 128 1420.5 c 128,-1,3
 142 1435 142 1435 160.5 1443 c 128,-1,4
 179 1451 179 1451 201 1451 c 0,5,6
 224 1451 224 1451 242.5 1443 c 128,-1,7
 261 1435 261 1435 275 1421 c 128,-1,8
 289 1407 289 1407 297 1388 c 128,-1,9
 305 1369 305 1369 305 1348 c 2,10,-1
 305 562 l 1,11,-1
 465 723 l 2,12,13
 473 731 473 731 476 733 c 2,14,-1
 748 1006 l 1,15,16
 775 1037 775 1037 821 1037 c 0,17,18
 842 1037 842 1037 861.5 1028.5 c 128,-1,19
 881 1020 881 1020 894.5 1006 c 128,-1,20
 908 992 908 992 916.5 973 c 128,-1,21
 925 954 925 954 925 934 c 0,22,23
 925 891 925 891 894 861 c 2,24,-1
 670 636 l 1,25,-1
 917 150 l 2,26,27
 928 127 928 127 928 105 c 256,28,29
 928 83 928 83 919.5 63.5 c 128,-1,30
 911 44 911 44 896.5 30.5 c 128,-1,31
 882 17 882 17 863 9 c 128,-1,32
 844 1 844 1 824 1 c 0,33,34
 792 1 792 1 768.5 14.5 c 128,-1,35
 745 28 745 28 731 57 c 2,36,-1
 517 481 l 1,37,-1
 305 268 l 1,38,-1
 305 104 l 2,39,40
 305 82 305 82 297 63 c 128,-1,41
 289 44 289 44 274.5 30.5 c 128,-1,42
 260 17 260 17 241.5 9 c 128,-1,43
 223 1 223 1 201 1 c 256,44,45
 179 1 179 1 160.5 9.5 c 128,-1,46
 142 18 142 18 128 32 c 128,-1,47
 114 46 114 46 106 65 c 128,-1,48
 98 84 98 84 98 104 c 2,49,-1
 98 311 l 1,50,-1
 98 726 l 1,51,-1
 98 1348 l 2,0,1
EndSplineSet
EndChar
StartChar: m
Encoding: 109 109 62
Width: 1649
Flags: W
LayerCount: 2
Back
Fore
SplineSet
297 977 m 1,0,1
 327 994 327 994 353.5 1005 c 128,-1,2
 380 1016 380 1016 406 1023.5 c 128,-1,3
 432 1031 432 1031 458 1034.5 c 128,-1,4
 484 1038 484 1038 513 1038 c 0,5,6
 595 1038 595 1038 669.5 1007 c 128,-1,7
 744 976 744 976 807 916 c 0,8,9
 811 911 811 911 815.5 906 c 128,-1,10
 820 901 820 901 825 897 c 1,11,12
 886 959 886 959 963.5 998.5 c 128,-1,13
 1041 1038 1041 1038 1136 1038 c 0,14,15
 1186 1038 1186 1038 1236 1024.5 c 128,-1,16
 1286 1011 1286 1011 1332.5 986 c 128,-1,17
 1379 961 1379 961 1418.5 924.5 c 128,-1,18
 1458 888 1458 888 1487.5 842 c 128,-1,19
 1517 796 1517 796 1534 740.5 c 128,-1,20
 1551 685 1551 685 1551 622 c 2,21,-1
 1551 104 l 2,22,23
 1551 83 1551 83 1542.5 64 c 128,-1,24
 1534 45 1534 45 1520 31 c 128,-1,25
 1506 17 1506 17 1487 8.5 c 128,-1,26
 1468 0 1468 0 1447 0 c 0,27,28
 1425 0 1425 0 1406.5 8.5 c 128,-1,29
 1388 17 1388 17 1373.5 30.5 c 128,-1,30
 1359 44 1359 44 1351 63.5 c 128,-1,31
 1343 83 1343 83 1343 104 c 2,32,-1
 1343 622 l 2,33,34
 1343 657 1343 657 1329 694.5 c 128,-1,35
 1315 732 1315 732 1288.5 762 c 128,-1,36
 1262 792 1262 792 1223.5 811 c 128,-1,37
 1185 830 1185 830 1136 830 c 0,38,39
 1083 830 1083 830 1043.5 809.5 c 128,-1,40
 1004 789 1004 789 978 757.5 c 128,-1,41
 952 726 952 726 940 690 c 128,-1,42
 928 654 928 654 928 622 c 2,43,-1
 928 104 l 2,44,45
 928 81 928 81 919 61.5 c 128,-1,46
 910 42 910 42 896 28.5 c 128,-1,47
 882 15 882 15 863 7.5 c 128,-1,48
 844 0 844 0 825 0 c 0,49,50
 803 0 803 0 784.5 8.5 c 128,-1,51
 766 17 766 17 751.5 31 c 128,-1,52
 737 45 737 45 728.5 64 c 128,-1,53
 720 83 720 83 720 104 c 2,54,-1
 720 622 l 2,55,56
 720 662 720 662 704.5 700 c 128,-1,57
 689 738 689 738 661.5 767 c 128,-1,58
 634 796 634 796 596 813 c 128,-1,59
 558 830 558 830 513 830 c 0,60,61
 463 830 463 830 424.5 811 c 128,-1,62
 386 792 386 792 359.5 761.5 c 128,-1,63
 333 731 333 731 319.5 694 c 128,-1,64
 306 657 306 657 306 622 c 2,65,-1
 306 104 l 2,66,67
 306 83 306 83 297.5 64 c 128,-1,68
 289 45 289 45 274.5 31 c 128,-1,69
 260 17 260 17 241.5 8.5 c 128,-1,70
 223 0 223 0 201 0 c 0,71,72
 180 0 180 0 161 8.5 c 128,-1,73
 142 17 142 17 128 31 c 128,-1,74
 114 45 114 45 106 64 c 128,-1,75
 98 83 98 83 98 104 c 2,76,-1
 98 622 l 1,77,-1
 98 934 l 2,78,79
 98 954 98 954 106 973 c 128,-1,80
 114 992 114 992 128 1006 c 128,-1,81
 142 1020 142 1020 161 1029 c 128,-1,82
 180 1038 180 1038 201 1038 c 0,83,84
 231 1038 231 1038 257 1021.5 c 128,-1,85
 283 1005 283 1005 297 977 c 1,0,1
EndSplineSet
EndChar
StartChar: n
Encoding: 110 110 61
Width: 1026
Flags: W
LayerCount: 2
Back
Fore
SplineSet
297 977 m 1,0,1
 327 994 327 994 353.5 1005 c 128,-1,2
 380 1016 380 1016 406 1023.5 c 128,-1,3
 432 1031 432 1031 458 1034.5 c 128,-1,4
 484 1038 484 1038 513 1038 c 0,5,6
 587 1038 587 1038 661 1009.5 c 128,-1,7
 735 981 735 981 794.5 927 c 128,-1,8
 854 873 854 873 891 796 c 128,-1,9
 928 719 928 719 928 622 c 2,10,-1
 928 104 l 2,11,12
 928 81 928 81 919 61.5 c 128,-1,13
 910 42 910 42 896 28.5 c 128,-1,14
 882 15 882 15 863 7.5 c 128,-1,15
 844 0 844 0 825 0 c 0,16,17
 803 0 803 0 784.5 8.5 c 128,-1,18
 766 17 766 17 751.5 31 c 128,-1,19
 737 45 737 45 728.5 64 c 128,-1,20
 720 83 720 83 720 104 c 2,21,-1
 720 622 l 2,22,23
 720 662 720 662 704.5 700 c 128,-1,24
 689 738 689 738 661.5 767 c 128,-1,25
 634 796 634 796 596 813 c 128,-1,26
 558 830 558 830 513 830 c 0,27,28
 463 830 463 830 424.5 811 c 128,-1,29
 386 792 386 792 359.5 761.5 c 128,-1,30
 333 731 333 731 319.5 694 c 128,-1,31
 306 657 306 657 306 622 c 2,32,-1
 306 104 l 2,33,34
 306 83 306 83 297.5 64 c 128,-1,35
 289 45 289 45 274.5 31 c 128,-1,36
 260 17 260 17 241.5 8.5 c 128,-1,37
 223 0 223 0 201 0 c 0,38,39
 180 0 180 0 161 8.5 c 128,-1,40
 142 17 142 17 128 31 c 128,-1,41
 114 45 114 45 106 64 c 128,-1,42
 98 83 98 83 98 104 c 2,43,-1
 98 622 l 1,44,-1
 98 934 l 2,45,46
 98 954 98 954 106 973 c 128,-1,47
 114 992 114 992 128 1006 c 128,-1,48
 142 1020 142 1020 161 1029 c 128,-1,49
 180 1038 180 1038 201 1038 c 0,50,51
 231 1038 231 1038 257 1021.5 c 128,-1,52
 283 1005 283 1005 297 977 c 1,0,1
EndSplineSet
EndChar
StartChar: o
Encoding: 111 111 60
Width: 1026
Flags: W
LayerCount: 2
Back
Fore
SplineSet
513 1038 m 0,0,1
 604 1038 604 1038 681 1006 c 128,-1,2
 758 974 758 974 812.5 909 c 128,-1,3
 867 844 867 844 897.5 747 c 128,-1,4
 928 650 928 650 928 519 c 0,5,6
 928 396 928 396 900 299.5 c 128,-1,7
 872 203 872 203 819 137 c 128,-1,8
 766 71 766 71 688.5 35.5 c 128,-1,9
 611 0 611 0 513 0 c 0,10,11
 417 0 417 0 340 33.5 c 128,-1,12
 263 67 263 67 209.5 132.5 c 128,-1,13
 156 198 156 198 127 295 c 128,-1,14
 98 392 98 392 98 519 c 0,15,16
 98 654 98 654 129.5 751.5 c 128,-1,17
 161 849 161 849 216 913 c 128,-1,18
 271 977 271 977 347.5 1007.5 c 128,-1,19
 424 1038 424 1038 513 1038 c 0,0,1
662 766 m 0,20,21
 637 798 637 798 599 814 c 128,-1,22
 561 830 561 830 513 830 c 0,23,24
 451 830 451 830 411 807 c 128,-1,25
 371 784 371 784 347.5 743 c 128,-1,26
 324 702 324 702 315 645 c 128,-1,27
 306 588 306 588 306 519 c 0,28,29
 306 427 306 427 320.5 367 c 128,-1,30
 335 307 335 307 362.5 271.5 c 128,-1,31
 390 236 390 236 428.5 221.5 c 128,-1,32
 467 207 467 207 513 207 c 0,33,34
 558 207 558 207 596.5 222 c 128,-1,35
 635 237 635 237 662.5 273.5 c 128,-1,36
 690 310 690 310 705 369 c 128,-1,37
 720 428 720 428 720 519 c 0,38,39
 720 600 720 600 706 663 c 128,-1,40
 692 726 692 726 662 766 c 0,20,21
EndSplineSet
EndChar
StartChar: s
Encoding: 115 115 56
Width: 942
Flags: W
LayerCount: 2
Back
Fore
SplineSet
817 908 m 1,0,1
 839 878 839 878 839 846 c 0,2,3
 839 824 839 824 831.5 804.5 c 128,-1,4
 824 785 824 785 809.5 770.5 c 128,-1,5
 795 756 795 756 776.5 747.5 c 128,-1,6
 758 739 758 739 737 739 c 0,7,8
 687 739 687 739 655 778 c 0,9,10
 644 792 644 792 622.5 802.5 c 128,-1,11
 601 813 601 813 575.5 819 c 128,-1,12
 550 825 550 825 524 827.5 c 128,-1,13
 498 830 498 830 477 830 c 0,14,15
 435 829 435 829 403.5 820 c 128,-1,16
 372 811 372 811 351 796 c 128,-1,17
 330 781 330 781 320 762.5 c 128,-1,18
 310 744 310 744 310 725 c 0,19,20
 310 705 310 705 322.5 686 c 128,-1,21
 335 667 335 667 358 653.5 c 128,-1,22
 381 640 381 640 412 631.5 c 128,-1,23
 443 623 443 623 481 622 c 1,24,25
 553 617 553 617 618 595.5 c 128,-1,26
 683 574 683 574 731.5 536.5 c 128,-1,27
 780 499 780 499 808.5 446.5 c 128,-1,28
 837 394 837 394 837 328 c 0,29,30
 837 256 837 256 807 195.5 c 128,-1,31
 777 135 777 135 725.5 91.5 c 128,-1,32
 674 48 674 48 606.5 24 c 128,-1,33
 539 0 539 0 464 0 c 0,34,35
 397 0 397 0 332 19 c 128,-1,36
 267 38 267 38 216.5 69.5 c 128,-1,37
 166 101 166 101 134.5 141 c 128,-1,38
 103 181 103 181 103 221 c 0,39,40
 103 241 103 241 111 259.5 c 128,-1,41
 119 278 119 278 132 292.5 c 128,-1,42
 145 307 145 307 164 315.5 c 128,-1,43
 183 324 183 324 205 324 c 0,44,45
 231 324 231 324 254.5 313 c 128,-1,46
 278 302 278 302 293 279 c 0,47,48
 296 273 296 273 307.5 261.5 c 128,-1,49
 319 250 319 250 340 237 c 128,-1,50
 361 224 361 224 390.5 214.5 c 128,-1,51
 420 205 420 205 459 205 c 0,52,53
 496 205 496 205 527.5 215 c 128,-1,54
 559 225 559 225 582 241 c 128,-1,55
 605 257 605 257 618 278.5 c 128,-1,56
 631 300 631 300 631 323 c 0,57,58
 631 359 631 359 588.5 385 c 128,-1,59
 546 411 546 411 468 416 c 0,60,61
 387 421 387 421 320 445.5 c 128,-1,62
 253 470 253 470 204.5 509.5 c 128,-1,63
 156 549 156 549 129.5 602.5 c 128,-1,64
 103 656 103 656 103 721 c 0,65,66
 103 782 103 782 129 839 c 128,-1,67
 155 896 155 896 205 940 c 128,-1,68
 255 984 255 984 326.5 1010.5 c 128,-1,69
 398 1037 398 1037 489 1037 c 0,70,71
 522 1037 522 1037 564.5 1032 c 128,-1,72
 607 1027 607 1027 652 1013 c 128,-1,73
 697 999 697 999 740 974 c 128,-1,74
 783 949 783 949 817 908 c 1,0,1
EndSplineSet
EndChar
StartChar: t
Encoding: 116 116 55
Width: 716
Flags: W
LayerCount: 2
Back
Fore
SplineSet
201 1349 m 2,0,1
 201 1371 201 1371 209.5 1389.5 c 128,-1,2
 218 1408 218 1408 232 1422 c 128,-1,3
 246 1436 246 1436 265 1444 c 128,-1,4
 284 1452 284 1452 306 1452 c 256,5,6
 328 1452 328 1452 347.5 1444 c 128,-1,7
 367 1436 367 1436 380.5 1421.5 c 128,-1,8
 394 1407 394 1407 402 1388.5 c 128,-1,9
 410 1370 410 1370 410 1349 c 2,10,-1
 410 1038 l 1,11,-1
 513 1038 l 2,12,13
 535 1038 535 1038 554 1029.5 c 128,-1,14
 573 1021 573 1021 586.5 1006.5 c 128,-1,15
 600 992 600 992 608.5 973 c 128,-1,16
 617 954 617 954 617 934 c 0,17,18
 617 911 617 911 608.5 892.5 c 128,-1,19
 600 874 600 874 586 860 c 128,-1,20
 572 846 572 846 553.5 838 c 128,-1,21
 535 830 535 830 513 830 c 2,22,-1
 410 830 l 1,23,-1
 410 312 l 2,24,25
 410 293 410 293 411 283.5 c 128,-1,26
 412 274 412 274 414.5 269.5 c 128,-1,27
 417 265 417 265 420 262 c 128,-1,28
 423 259 423 259 427 254 c 0,29,30
 436 241 436 241 440 235 c 128,-1,31
 444 229 444 229 449.5 225 c 128,-1,32
 455 221 455 221 464 218 c 128,-1,33
 473 215 473 215 493 208 c 0,34,35
 497 207 497 207 514 207 c 0,36,37
 534 207 534 207 552.5 199.5 c 128,-1,38
 571 192 571 192 585.5 178 c 128,-1,39
 600 164 600 164 609 145 c 128,-1,40
 618 126 618 126 618 104 c 256,41,42
 618 82 618 82 609.5 63 c 128,-1,43
 601 44 601 44 587 30.5 c 128,-1,44
 573 17 573 17 554.5 9 c 128,-1,45
 536 1 536 1 515 1 c 0,46,47
 403 1 403 1 322 61.5 c 128,-1,48
 241 122 241 122 207 250 c 1,49,50
 201 280 201 280 201 312 c 2,51,-1
 201 830 l 1,52,53
 157 830 157 830 127.5 859.5 c 128,-1,54
 98 889 98 889 98 934 c 0,55,56
 98 954 98 954 106 973 c 128,-1,57
 114 992 114 992 128 1006 c 128,-1,58
 142 1020 142 1020 161 1029 c 128,-1,59
 180 1038 180 1038 201 1038 c 1,60,-1
 201 1349 l 2,0,1
EndSplineSet
EndChar
StartChar: u
Encoding: 117 117 54
Width: 1026
Flags: W
LayerCount: 2
Back
Fore
SplineSet
730 61 m 1,0,1
 677 29 677 29 623.5 14.5 c 128,-1,2
 570 0 570 0 513 0 c 0,3,4
 427 0 427 0 351.5 33 c 128,-1,5
 276 66 276 66 219.5 122.5 c 128,-1,6
 163 179 163 179 130.5 254.5 c 128,-1,7
 98 330 98 330 98 415 c 2,8,-1
 98 934 l 2,9,10
 98 954 98 954 106 973 c 128,-1,11
 114 992 114 992 128 1006 c 128,-1,12
 142 1020 142 1020 161 1029 c 128,-1,13
 180 1038 180 1038 201 1038 c 0,14,15
 223 1038 223 1038 242 1029.5 c 128,-1,16
 261 1021 261 1021 275 1006.5 c 128,-1,17
 289 992 289 992 297.5 973 c 128,-1,18
 306 954 306 954 306 934 c 2,19,-1
 306 415 l 2,20,21
 306 376 306 376 320 339 c 128,-1,22
 334 302 334 302 361 273 c 128,-1,23
 388 244 388 244 426.5 225.5 c 128,-1,24
 465 207 465 207 513 207 c 0,25,26
 558 207 558 207 596 224 c 128,-1,27
 634 241 634 241 661.5 270 c 128,-1,28
 689 299 689 299 704.5 336 c 128,-1,29
 720 373 720 373 720 415 c 2,30,-1
 720 934 l 2,31,32
 720 954 720 954 728.5 973 c 128,-1,33
 737 992 737 992 751 1006.5 c 128,-1,34
 765 1021 765 1021 784 1029.5 c 128,-1,35
 803 1038 803 1038 825 1038 c 0,36,37
 845 1038 845 1038 863.5 1030 c 128,-1,38
 882 1022 882 1022 896.5 1008.5 c 128,-1,39
 911 995 911 995 919.5 975.5 c 128,-1,40
 928 956 928 956 928 934 c 2,41,-1
 928 415 l 1,42,-1
 928 104 l 2,43,44
 928 81 928 81 919 61.5 c 128,-1,45
 910 42 910 42 896 28.5 c 128,-1,46
 882 15 882 15 863 7.5 c 128,-1,47
 844 0 844 0 825 0 c 0,48,49
 796 0 796 0 769.5 15 c 128,-1,50
 743 30 743 30 730 61 c 1,0,1
EndSplineSet
EndChar
StartChar: w
Encoding: 119 119 52
Width: 1559
Flags: W
LayerCount: 2
Back
Fore
SplineSet
59 897 m 2,0,1
 51 918 51 918 51 936 c 0,2,3
 51 958 51 958 60.5 977 c 128,-1,4
 70 996 70 996 84.5 1009 c 128,-1,5
 99 1022 99 1022 118 1029.5 c 128,-1,6
 137 1037 137 1037 155 1037 c 0,7,8
 190 1037 190 1037 215.5 1017.5 c 128,-1,9
 241 998 241 998 252 970 c 2,10,-1
 467 398 l 1,11,-1
 676 957 l 1,12,13
 687 994 687 994 712.5 1015.5 c 128,-1,14
 738 1037 738 1037 777 1037 c 0,15,16
 817 1037 817 1037 842 1015 c 128,-1,17
 867 993 867 993 879 957 c 1,18,-1
 1088 398 l 1,19,-1
 1302 970 l 2,20,21
 1312 996 1312 996 1338 1017 c 128,-1,22
 1364 1038 1364 1038 1398 1038 c 0,23,24
 1419 1038 1419 1038 1437.5 1029.5 c 128,-1,25
 1456 1021 1456 1021 1471 1007.5 c 128,-1,26
 1486 994 1486 994 1495 974.5 c 128,-1,27
 1504 955 1504 955 1504 934 c 1,28,29
 1503 925 1503 925 1502 915.5 c 128,-1,30
 1501 906 1501 906 1497 897 c 2,31,-1
 1185 68 l 2,32,33
 1171 31 1171 31 1143.5 16 c 128,-1,34
 1116 1 1116 1 1089 1 c 0,35,36
 1054 1 1054 1 1028 19 c 128,-1,37
 1002 37 1002 37 992 68 c 1,38,-1
 777 638 l 1,39,-1
 563 68 l 1,40,41
 557 49 557 49 545.5 36.5 c 128,-1,42
 534 24 534 24 520.5 16 c 128,-1,43
 507 8 507 8 493 4.5 c 128,-1,44
 479 1 479 1 467 1 c 0,45,46
 431 1 431 1 405.5 20 c 128,-1,47
 380 39 380 39 370 68 c 2,48,-1
 214 483 l 1,49,-1
 59 897 l 2,0,1
EndSplineSet
EndChar
StartChar: y
Encoding: 121 121 50
Width: 1043
Flags: W
LayerCount: 2
Back
Fore
SplineSet
736 970 m 2,0,1
 740 983 740 983 749 994.5 c 128,-1,2
 758 1006 758 1006 770 1016 c 128,-1,3
 782 1026 782 1026 797.5 1032 c 128,-1,4
 813 1038 813 1038 830 1038 c 0,5,6
 848 1038 848 1038 867 1030.5 c 128,-1,7
 886 1023 886 1023 901.5 1009.5 c 128,-1,8
 917 996 917 996 927 977 c 128,-1,9
 937 958 937 958 937 935 c 0,10,11
 937 918 937 918 929 897 c 2,12,-1
 618 68 l 1,13,-1
 513 -211 l 1,14,15
 494 -258 494 -258 464 -295.5 c 128,-1,16
 434 -333 434 -333 397 -359.5 c 128,-1,17
 360 -386 360 -386 315 -400 c 128,-1,18
 270 -414 270 -414 222 -414 c 2,19,-1
 209 -414 l 2,20,21
 189 -414 189 -414 169.5 -405.5 c 128,-1,22
 150 -397 150 -397 136.5 -383.5 c 128,-1,23
 123 -370 123 -370 114.5 -350.5 c 128,-1,24
 106 -331 106 -331 106 -311 c 0,25,26
 106 -290 106 -290 114 -271 c 128,-1,27
 122 -252 122 -252 136 -237.5 c 128,-1,28
 150 -223 150 -223 169 -214.5 c 128,-1,29
 188 -206 188 -206 209 -206 c 2,30,-1
 222 -206 l 2,31,32
 263 -206 263 -206 287 -185 c 128,-1,33
 311 -164 311 -164 319 -140 c 2,34,-1
 411 104 l 1,35,-1
 113 897 l 2,36,37
 106 914 106 914 106 934 c 0,38,39
 106 955 106 955 114.5 974.5 c 128,-1,40
 123 994 123 994 137.5 1008 c 128,-1,41
 152 1022 152 1022 171 1030 c 128,-1,42
 190 1038 190 1038 210 1038 c 0,43,44
 245 1037 245 1037 271 1016.5 c 128,-1,45
 297 996 297 996 307 970 c 2,46,-1
 521 398 l 1,47,-1
 528 415 l 1,48,-1
 736 970 l 2,0,1
EndSplineSet
EndChar
StartChar: braceleft
Encoding: 123 123 209
Width: 1165
Flags: W
LayerCount: 2
Back
Fore
SplineSet
-3 729 m 1,0,-1
 580 821 l 1,1,-1
 1163 912 l 1,2,-1
 1164 732 l 1,3,-1
 1164 553 l 1,4,-1
 580 642 l 1,5,-1
 -3 729 l 1,0,-1
EndSplineSet
EndChar
StartChar: bar
Encoding: 124 124 4
Width: 404
Flags: W
LayerCount: 2
Back
Fore
SplineSet
98 1348 m 2,0,1
 98 1369 98 1369 106 1388 c 128,-1,2
 114 1407 114 1407 128 1421.5 c 128,-1,3
 142 1436 142 1436 161 1444 c 128,-1,4
 180 1452 180 1452 201 1452 c 0,5,6
 223 1452 223 1452 241.5 1444 c 128,-1,7
 260 1436 260 1436 274.5 1421.5 c 128,-1,8
 289 1407 289 1407 297.5 1388.5 c 128,-1,9
 306 1370 306 1370 306 1348 c 2,10,-1
 306 -311 l 2,11,12
 306 -332 306 -332 297.5 -351 c 128,-1,13
 289 -370 289 -370 274.5 -384 c 128,-1,14
 260 -398 260 -398 241 -406 c 128,-1,15
 222 -414 222 -414 201 -414 c 0,16,17
 181 -414 181 -414 161.5 -405.5 c 128,-1,18
 142 -397 142 -397 128.5 -383.5 c 128,-1,19
 115 -370 115 -370 106.5 -350.5 c 128,-1,20
 98 -331 98 -331 98 -311 c 2,21,-1
 98 519 l 1,22,-1
 98 1348 l 2,0,1
EndSplineSet
EndChar
StartChar: braceright
Encoding: 125 125 208
Width: 1177
Flags: W
LayerCount: 2
Back
Fore
SplineSet
1166 736 m 1,0,-1
 584 645 l 1,1,-1
 1 553 l 1,2,-1
 0 733 l 1,3,-1
 0 912 l 1,4,-1
 584 824 l 1,5,-1
 1166 736 l 1,0,-1
EndSplineSet
EndChar
StartChar: sterling
Encoding: 163 163 196
Width: 1227
Flags: W
LayerCount: 2
Back
Fore
SplineSet
202 0 m 2,0,1
 182 0 182 0 162.5 8.5 c 128,-1,2
 143 17 143 17 129.5 30.5 c 128,-1,3
 116 44 116 44 107.5 63.5 c 128,-1,4
 99 83 99 83 99 103 c 0,5,6
 99 124 99 124 107 143 c 128,-1,7
 115 162 115 162 129 176.5 c 128,-1,8
 143 191 143 191 162 199 c 0,9,10
 173 203 173 203 186 205 c 1,11,-1
 186 396 l 1,12,13
 171 398 171 398 156 404 c 1,14,15
 138 413 138 413 124 426.5 c 128,-1,16
 110 440 110 440 101.5 459.5 c 128,-1,17
 93 479 93 479 93 499 c 0,18,19
 93 520 93 520 101 539 c 128,-1,20
 109 558 109 558 123.5 572.5 c 128,-1,21
 138 587 138 587 156 595 c 0,22,23
 170 601 170 601 186 602 c 1,24,-1
 186 934 l 2,25,26
 186 961 186 961 189.5 999 c 128,-1,27
 193 1037 193 1037 204.5 1080 c 128,-1,28
 216 1123 216 1123 237.5 1169.5 c 128,-1,29
 259 1216 259 1216 294.5 1259.5 c 128,-1,30
 330 1303 330 1303 381.5 1343 c 128,-1,31
 433 1383 433 1383 506 1413 c 1,32,33
 556 1435 556 1435 609 1443.5 c 128,-1,34
 662 1452 662 1452 705 1452 c 0,35,36
 757 1452 757 1452 809 1440.5 c 128,-1,37
 861 1429 861 1429 909 1408.5 c 128,-1,38
 957 1388 957 1388 999 1360.5 c 128,-1,39
 1041 1333 1041 1333 1071 1301 c 1,40,41
 1102 1271 1102 1271 1102 1226 c 0,42,43
 1102 1206 1102 1206 1093.5 1186.5 c 128,-1,44
 1085 1167 1085 1167 1071 1153.5 c 128,-1,45
 1057 1140 1057 1140 1038 1131.5 c 128,-1,46
 1019 1123 1019 1123 998 1123 c 0,47,48
 974 1123 974 1123 957 1132.5 c 128,-1,49
 940 1142 940 1142 923 1156 c 128,-1,50
 906 1170 906 1170 883.5 1187.5 c 128,-1,51
 861 1205 861 1205 825 1222 c 0,52,53
 796 1235 796 1235 766 1240 c 128,-1,54
 736 1245 736 1245 705 1245 c 0,55,56
 663 1245 663 1245 616.5 1233 c 128,-1,57
 570 1221 570 1221 527 1192.5 c 128,-1,58
 484 1164 484 1164 450 1115.5 c 128,-1,59
 416 1067 416 1067 399 996 c 1,60,61
 393 966 393 966 393 934 c 2,62,-1
 393 603 l 1,63,-1
 666 603 l 2,64,65
 687 603 687 603 706 595 c 128,-1,66
 725 587 725 587 739 572.5 c 128,-1,67
 753 558 753 558 761 539 c 128,-1,68
 769 520 769 520 769 499 c 0,69,70
 769 479 769 479 761 459.5 c 128,-1,71
 753 440 753 440 739 426.5 c 128,-1,72
 725 413 725 413 706 404.5 c 128,-1,73
 687 396 687 396 666 396 c 2,74,-1
 393 396 l 1,75,-1
 393 207 l 1,76,-1
 1028 207 l 2,77,78
 1049 207 1049 207 1068 199 c 128,-1,79
 1087 191 1087 191 1100.5 176.5 c 128,-1,80
 1114 162 1114 162 1122.5 143 c 128,-1,81
 1131 124 1131 124 1131 103 c 0,82,83
 1131 83 1131 83 1122.5 63.5 c 128,-1,84
 1114 44 1114 44 1100.5 30.5 c 128,-1,85
 1087 17 1087 17 1068 8.5 c 128,-1,86
 1049 0 1049 0 1028 0 c 2,87,-1
 202 0 l 2,0,1
EndSplineSet
EndChar
StartChar: section
Encoding: 167 167 197
Width: 942
Flags: W
LayerCount: 2
Back
Fore
SplineSet
148 996 m 1,0,1
 118 1050 118 1050 115 1115 c 0,2,3
 111 1188 111 1188 138 1248.5 c 128,-1,4
 165 1309 165 1309 214.5 1352 c 128,-1,5
 264 1395 264 1395 331 1419.5 c 128,-1,6
 398 1444 398 1444 473 1444 c 0,7,8
 540 1444 540 1444 605.5 1424.5 c 128,-1,9
 671 1405 671 1405 723 1373.5 c 128,-1,10
 775 1342 775 1342 808.5 1302.5 c 128,-1,11
 842 1263 842 1263 844 1223 c 0,12,13
 845 1203 845 1203 837.5 1184.5 c 128,-1,14
 830 1166 830 1166 818 1151.5 c 128,-1,15
 806 1137 806 1137 787.5 1128 c 128,-1,16
 769 1119 769 1119 747 1119 c 0,17,18
 721 1119 721 1119 696.5 1130.5 c 128,-1,19
 672 1142 672 1142 656 1165 c 1,20,21
 654 1170 654 1170 641.5 1182 c 128,-1,22
 629 1194 629 1194 608 1207 c 128,-1,23
 587 1220 587 1220 557 1229 c 128,-1,24
 527 1238 527 1238 487 1238 c 0,25,26
 450 1238 450 1238 419 1228.5 c 128,-1,27
 388 1219 388 1219 365.5 1202.5 c 128,-1,28
 343 1186 343 1186 331 1165 c 128,-1,29
 319 1144 319 1144 320 1120 c 0,30,31
 322 1085 322 1085 366 1058 c 0,32,33
 389 1045 389 1045 425 1036 c 1,34,35
 435 1037 435 1037 448 1037 c 0,36,37
 481 1037 481 1037 524 1032 c 128,-1,38
 567 1027 567 1027 612 1013 c 128,-1,39
 657 999 657 999 702 974 c 0,40,41
 733 956 733 956 762 930 c 0,42,43
 807 891 807 891 835 840 c 0,44,45
 864 787 864 787 867 722 c 0,46,47
 870 661 870 661 847 604 c 128,-1,48
 824 547 824 547 775 503 c 0,49,50
 769 497 769 497 762 492 c 1,51,52
 780 471 780 471 796 446 c 1,53,54
 826 394 826 394 829 328 c 0,55,56
 833 256 833 256 805.5 195.5 c 128,-1,57
 778 135 778 135 729 91.5 c 128,-1,58
 680 48 680 48 613 24 c 128,-1,59
 546 0 546 0 472 0 c 0,60,61
 405 0 405 0 339 19 c 128,-1,62
 273 38 273 38 221 69.5 c 128,-1,63
 169 101 169 101 135.5 141 c 128,-1,64
 102 181 102 181 100 221 c 0,65,66
 99 241 99 241 106.5 259.5 c 128,-1,67
 114 278 114 278 126.5 292.5 c 128,-1,68
 139 307 139 307 157 315.5 c 128,-1,69
 175 324 175 324 198 324 c 0,70,71
 223 324 223 324 247.5 313 c 128,-1,72
 272 302 272 302 288 279 c 0,73,74
 291 273 291 273 303 261.5 c 128,-1,75
 315 250 315 250 336.5 237 c 128,-1,76
 358 224 358 224 388 214.5 c 128,-1,77
 418 205 418 205 457 205 c 0,78,79
 494 205 494 205 525 215 c 128,-1,80
 556 225 556 225 578.5 241 c 128,-1,81
 601 257 601 257 613 278.5 c 128,-1,82
 625 300 625 300 623 323 c 1,83,84
 622 359 622 359 579 384 c 0,85,86
 554 399 554 399 519 407 c 1,87,88
 507 407 507 407 496 407 c 0,89,90
 464 407 464 407 420.5 412 c 128,-1,91
 377 417 377 417 332 430.5 c 128,-1,92
 287 444 287 444 243 469 c 1,93,94
 210 486 210 486 183 513 c 1,95,96
 137 551 137 551 109 602 c 1,97,98
 81 656 81 656 78 721 c 0,99,100
 75 782 75 782 98 839 c 128,-1,101
 121 896 121 896 168 939 c 0,102,103
 175 945 175 945 182 951 c 1,104,105
 163 973 163 973 148 996 c 1,0,1
317 665 m 1,106,-1
 317 664 l 1,107,108
 326 658 326 658 335 654 c 1,109,110
 359 640 359 640 390.5 631.5 c 128,-1,111
 422 623 422 623 459 622 c 1,112,113
 491 620 491 620 523 614 c 1,114,115
 548 617 548 617 571 623 c 1,116,117
 602 633 602 633 622.5 647.5 c 128,-1,118
 643 662 643 662 652.5 681 c 128,-1,119
 662 700 662 700 661 718 c 0,120,121
 660 739 660 739 647 758 c 0,122,123
 645 760 645 760 644 762 c 1,124,125
 635 768 635 768 627 777 c 1,126,127
 619 784 619 784 608 790 c 0,128,129
 586 804 586 804 554.5 812.5 c 128,-1,130
 523 821 523 821 485 822 c 1,131,132
 452 824 452 824 421 828 c 1,133,134
 394 826 394 826 373 820 c 0,135,136
 342 811 342 811 322 796 c 128,-1,137
 302 781 302 781 292 762.5 c 128,-1,138
 282 744 282 744 283 725 c 0,139,140
 284 705 284 705 298 686 c 0,141,142
 299 684 299 684 300 682 c 0,143,144
 310 674 310 674 317 665 c 1,106,-1
EndSplineSet
EndChar
StartChar: copyright
Encoding: 169 169 211
Width: 1498
Flags: W
LayerCount: 2
Back
Fore
SplineSet
1014 1659 m 1,0,-1
 1020 1659 l 1,1,2
 1026 1644 1026 1644 1042 1617 c 128,-1,3
 1058 1590 1058 1590 1074.5 1558.5 c 128,-1,4
 1091 1527 1091 1527 1103 1498 c 128,-1,5
 1115 1469 1115 1469 1115 1450 c 0,6,7
 1115 1433 1115 1433 1112 1419 c 128,-1,8
 1109 1405 1109 1405 1109 1389 c 0,9,10
 1109 1354 1109 1354 1125 1320 c 128,-1,11
 1141 1286 1141 1286 1141 1256 c 0,12,13
 1141 1216 1141 1216 1110 1189 c 1,14,15
 1110 1183 1110 1183 1120.5 1183 c 128,-1,16
 1131 1183 1131 1183 1131 1179 c 1,17,-1
 1103 1179 l 1,18,19
 1093 1175 1093 1175 1085 1167 c 1,20,-1
 1171 1135 l 1,21,22
 1171 1133 1171 1133 1172 1133 c 128,-1,23
 1173 1133 1173 1133 1173 1131 c 1,24,-1
 1169 1131 l 2,25,26
 1166 1131 1166 1131 1162 1135 c 1,27,28
 1162 1135 1162 1135 1158 1131 c 1,29,30
 1156 1131 1156 1131 1155 1135 c 128,-1,31
 1154 1139 1154 1139 1149 1139 c 0,32,33
 1147 1139 1147 1139 1145 1137 c 1,34,-1
 1129 1143 l 1,35,36
 1117 1143 1117 1143 1103 1151.5 c 128,-1,37
 1089 1160 1089 1160 1077 1160 c 0,38,39
 1064 1160 1064 1160 1056 1154 c 1,40,-1
 1052 1149 l 2,41,42
 1051 1147 1051 1147 1051 1145 c 256,43,44
 1051 1143 1051 1143 1052 1143 c 2,45,-1
 1081 1127 l 1,46,-1
 1066 1131 l 1,47,48
 1060 1135 1060 1135 1055.5 1136 c 128,-1,49
 1051 1137 1051 1137 1047 1141 c 1,50,51
 1043 1139 1043 1139 1033.5 1137 c 128,-1,52
 1024 1135 1024 1135 1016 1130 c 128,-1,53
 1008 1125 1008 1125 1002 1114 c 128,-1,54
 996 1103 996 1103 996 1083 c 0,55,56
 996 1037 996 1037 1018.5 987.5 c 128,-1,57
 1041 938 1041 938 1049 887 c 1,58,59
 1062 831 1062 831 1057 775.5 c 128,-1,60
 1052 720 1052 720 1066 668 c 1,61,62
 1068 668 1068 668 1085.5 697 c 128,-1,63
 1103 726 1103 726 1124 761.5 c 128,-1,64
 1145 797 1145 797 1164 828 c 128,-1,65
 1183 859 1183 859 1189 866 c 1,66,67
 1210 904 1210 904 1233 940 c 128,-1,68
 1256 976 1256 976 1272 1018 c 1,69,-1
 1278 1031 l 1,70,71
 1282 1066 1282 1066 1300 1104.5 c 128,-1,72
 1318 1143 1318 1143 1318 1204 c 0,73,74
 1318 1238 1318 1238 1310 1269 c 128,-1,75
 1302 1300 1302 1300 1291 1330 c 128,-1,76
 1280 1360 1280 1360 1272 1390.5 c 128,-1,77
 1264 1421 1264 1421 1264 1451 c 0,78,79
 1264 1479 1264 1479 1273 1501 c 128,-1,80
 1282 1523 1282 1523 1314 1552 c 1,81,-1
 1318 1552 l 1,82,83
 1318 1552 1318 1552 1335 1556 c 1,84,-1
 1385 1544 l 1,85,86
 1409 1527 1409 1527 1428.5 1494 c 128,-1,87
 1448 1461 1448 1461 1459.5 1422 c 128,-1,88
 1471 1383 1471 1383 1477 1341.5 c 128,-1,89
 1483 1300 1483 1300 1483 1266 c 0,90,91
 1483 1073 1483 1073 1329 851 c 1,92,93
 1329 849 1329 849 1323 847 c 1,94,95
 1280 781 1280 781 1247 734.5 c 128,-1,96
 1214 688 1214 688 1190.5 653 c 128,-1,97
 1167 618 1167 618 1155 588.5 c 128,-1,98
 1143 559 1143 559 1143 530 c 1,99,100
 1145 528 1145 528 1149 528 c 0,101,102
 1171 528 1171 528 1207.5 540.5 c 128,-1,103
 1244 553 1244 553 1270 553 c 0,104,105
 1310 553 1310 553 1333 532 c 1,106,-1
 1365 491 l 1,107,108
 1381 461 1381 461 1394 423.5 c 128,-1,109
 1407 386 1407 386 1407 350 c 0,110,111
 1407 302 1407 302 1369 269 c 128,-1,112
 1331 236 1331 236 1281 215 c 128,-1,113
 1231 194 1231 194 1185 182.5 c 128,-1,114
 1139 171 1139 171 1125 167 c 1,115,116
 1091 165 1091 165 1052.5 156 c 128,-1,117
 1014 147 1014 147 993 142 c 1,118,119
 987 131 987 131 988 115.5 c 128,-1,120
 989 100 989 100 966 96 c 1,121,-1
 956 98 l 1,122,123
 939 83 939 83 902 83 c 0,124,125
 891 83 891 83 886.5 85.5 c 128,-1,126
 882 88 882 88 878 88 c 0,127,128
 876 88 876 88 875 87 c 128,-1,129
 874 86 874 86 872 86 c 2,130,-1
 841 102 l 1,131,-1
 831 123 l 1,132,-1
 797 123 l 1,133,-1
 783 86 l 1,134,135
 770 83 770 83 768 83 c 0,136,137
 765 83 765 83 745 86 c 1,138,-1
 741 73 l 1,139,140
 737 69 737 69 732.5 69 c 128,-1,141
 728 69 728 69 726 67 c 2,142,-1
 722 65 l 1,143,-1
 695 85 l 1,144,145
 693 81 693 81 693 81 c 1,146,-1
 690 85 l 1,147,148
 686 83 686 83 682 79 c 0,149,150
 680 77 680 77 680 73 c 1,151,-1
 676 73 l 1,152,153
 653 86 653 86 653 127 c 1,154,155
 640 133 640 133 623.5 132 c 128,-1,156
 607 131 607 131 594 135 c 1,157,-1
 549 141 l 1,158,159
 538 141 538 141 516.5 144 c 128,-1,160
 495 147 495 147 476 152 c 128,-1,161
 457 157 457 157 441 162 c 128,-1,162
 425 167 425 167 421 171 c 1,163,164
 330 194 330 194 286 211.5 c 128,-1,165
 242 229 242 229 213 229 c 2,166,-1
 167 229 l 1,167,-1
 153 234 l 1,168,-1
 94 223 l 1,169,170
 121 196 121 196 125 163 c 1,171,172
 125 151 125 151 117 137 c 1,173,-1
 77 119 l 1,174,-1
 71 109 l 1,175,-1
 52 90 l 1,176,-1
 28 86 l 1,177,-1
 23 92 l 1,178,-1
 -16 109 l 1,179,180
 -23 109 -23 109 -23 96 c 2,181,-1
 -23 92 l 2,182,183
 -23 90 -23 90 -20 90 c 1,184,-1
 27 69 l 1,185,186
 30 56 30 56 30 56 c 2,187,188
 30 54 30 54 27 42 c 1,189,-1
 16 32 l 1,190,191
 18 32 18 32 2 28 c 1,192,-1
 -8 28 l 1,193,-1
 -27 36 l 1,194,-1
 -46 58 l 1,195,-1
 -58 48 l 1,196,197
 -58 38 -58 38 -48 34 c 128,-1,198
 -38 30 -38 30 -26 25 c 128,-1,199
 -14 20 -14 20 -4 14 c 128,-1,200
 6 8 6 8 6 -6 c 0,201,202
 6 -8 6 -8 2 -20 c 1,203,-1
 2 -25 l 1,204,205
 14 -32 14 -32 28 -34 c 128,-1,206
 42 -36 42 -36 42 -56 c 0,207,208
 42 -79 42 -79 32.5 -84.5 c 128,-1,209
 23 -90 23 -90 8 -90 c 0,210,211
 -2 -90 -2 -90 -13.5 -88 c 128,-1,212
 -25 -86 -25 -86 -34 -86 c 1,213,214
 -38 -90 -38 -90 -39 -88 c 128,-1,215
 -40 -86 -40 -86 -40 -90 c 1,216,-1
 0 -167 l 1,217,-1
 -4 -175 l 1,218,219
 -8 -175 -8 -175 -16.5 -164 c 128,-1,220
 -25 -153 -25 -153 -31.5 -139 c 128,-1,221
 -38 -125 -38 -125 -43 -111.5 c 128,-1,222
 -48 -98 -48 -98 -48 -94 c 0,223,224
 -48 -85 -48 -85 -46 -83 c 1,225,226
 -46 -81 -46 -81 -48 -79 c 1,227,-1
 -58 -79 l 1,228,229
 -60 -81 -60 -81 -60 -90 c 0,230,231
 -60 -94 -60 -94 -60 -101.5 c 128,-1,232
 -60 -109 -60 -109 -58 -119 c 1,233,-1
 -30 -163 l 1,234,-1
 -34 -171 l 1,235,-1
 -40 -171 l 1,236,237
 -48 -151 -48 -151 -61.5 -132 c 128,-1,238
 -75 -113 -75 -113 -75 -86 c 1,239,240
 -69 -81 -69 -81 -69 -75 c 0,241,242
 -69 -73 -69 -73 -83.5 -54.5 c 128,-1,243
 -98 -36 -98 -36 -98 -18 c 0,244,245
 -98 -4 -98 -4 -90 6 c 1,246,-1
 -83 18 l 1,247,248
 -86 34 -86 34 -86 36 c 0,249,250
 -86 48 -86 48 -74 71 c 128,-1,251
 -62 94 -62 94 -47 118 c 128,-1,252
 -32 142 -32 142 -17 162.5 c 128,-1,253
 -2 183 -2 183 2 187 c 1,254,-1
 8 203 l 1,255,-1
 23 213 l 1,256,-1
 28 213 l 1,257,-1
 50 246 l 1,258,-1
 94 259 l 1,259,-1
 127 259 l 1,260,-1
 167 276 l 1,261,-1
 250 294 l 1,262,263
 252 296 252 296 252 298 c 0,264,265
 229 369 229 369 229 415 c 256,266,267
 229 461 229 461 244 483 c 128,-1,268
 259 505 259 505 286 532 c 1,269,-1
 318 553 l 1,270,271
 320 553 320 553 322 554 c 128,-1,272
 324 555 324 555 326 555 c 2,273,-1
 342 561 l 1,274,-1
 340 561 l 1,275,-1
 342 561 l 2,276,277
 346 561 346 561 348 563 c 1,278,279
 374 559 374 559 409.5 546.5 c 128,-1,280
 445 534 445 534 473 515 c 1,281,282
 475 515 475 515 481 530 c 128,-1,283
 487 545 487 545 495 565.5 c 128,-1,284
 503 586 503 586 511 605 c 128,-1,285
 519 624 519 624 523 632 c 0,286,287
 543 668 543 668 550 707.5 c 128,-1,288
 557 747 557 747 561 789 c 128,-1,289
 565 831 565 831 571.5 873.5 c 128,-1,290
 578 916 578 916 596 956 c 1,291,292
 599 995 599 995 616.5 1031.5 c 128,-1,293
 634 1068 634 1068 634 1105 c 0,294,295
 634 1109 634 1109 633 1114 c 128,-1,296
 632 1119 632 1119 632 1123 c 1,297,-1
 601 1141 l 1,298,-1
 568 1131 l 1,299,-1
 557 1133 l 1,300,301
 536 1127 536 1127 520.5 1114 c 128,-1,302
 505 1101 505 1101 484 1101 c 0,303,304
 479 1101 479 1101 477 1102 c 128,-1,305
 475 1103 475 1103 473 1103 c 2,306,-1
 578 1149 l 1,307,-1
 547 1173 l 1,308,309
 545 1173 545 1173 528 1165.5 c 128,-1,310
 511 1158 511 1158 509 1158 c 1,311,312
 513 1162 513 1162 521.5 1165.5 c 128,-1,313
 530 1169 530 1169 543 1177 c 1,314,315
 526 1196 526 1196 510.5 1214.5 c 128,-1,316
 495 1233 495 1233 495 1262 c 0,317,318
 495 1290 495 1290 507 1314 c 128,-1,319
 519 1338 519 1338 519 1365 c 0,320,321
 519 1387 519 1387 515 1410 c 128,-1,322
 511 1433 511 1433 505 1461 c 1,323,324
 505 1481 505 1481 517.5 1511.5 c 128,-1,325
 530 1542 530 1542 544.5 1570 c 128,-1,326
 559 1598 559 1598 572.5 1618 c 128,-1,327
 586 1638 586 1638 588 1638 c 2,328,-1
 597 1638 l 2,329,330
 601 1638 601 1638 609.5 1620 c 128,-1,331
 618 1602 618 1602 627 1579 c 128,-1,332
 636 1556 636 1556 645 1534.5 c 128,-1,333
 654 1513 654 1513 664 1508 c 1,334,335
 674 1500 674 1500 685.5 1498 c 128,-1,336
 697 1496 697 1496 707 1496 c 0,337,338
 722 1496 722 1496 737.5 1498 c 128,-1,339
 753 1500 753 1500 768 1500 c 0,340,341
 799 1500 799 1500 827 1489.5 c 128,-1,342
 855 1479 855 1479 882 1479 c 0,343,344
 895 1479 895 1479 905.5 1481 c 128,-1,345
 916 1483 916 1483 925 1494.5 c 128,-1,346
 934 1506 934 1506 944 1530 c 128,-1,347
 954 1554 954 1554 966 1596 c 1,348,349
 980 1652 980 1652 1014 1659 c 1,0,-1
1037 1592 m 0,350,351
 1037 1594 1037 1594 1035 1602 c 128,-1,352
 1033 1610 1033 1610 1029.5 1620 c 128,-1,353
 1026 1630 1026 1630 1023 1638 c 128,-1,354
 1020 1646 1020 1646 1018 1646 c 0,355,356
 1010 1646 1010 1646 1004 1636 c 128,-1,357
 998 1626 998 1626 993.5 1615 c 128,-1,358
 989 1604 989 1604 985.5 1594 c 128,-1,359
 982 1584 982 1584 982 1584 c 1,360,-1
 982 1586 l 1,361,362
 984 1576 984 1576 984 1564 c 128,-1,363
 984 1552 984 1552 984 1542 c 2,364,-1
 984 1508 l 2,365,366
 984 1469 984 1469 993 1445 c 1,367,368
 991 1443 991 1443 990 1441 c 128,-1,369
 989 1439 989 1439 987 1437 c 1,370,371
 968 1459 968 1459 970 1492 c 128,-1,372
 972 1525 972 1525 968 1554 c 1,373,374
 958 1521 958 1521 944 1489 c 128,-1,375
 930 1457 930 1457 887 1457 c 0,376,377
 864 1457 864 1457 835.5 1467 c 128,-1,378
 807 1477 807 1477 779 1477 c 0,379,380
 763 1477 763 1477 745.5 1474 c 128,-1,381
 728 1471 728 1471 716 1471 c 0,382,383
 654 1471 654 1471 628 1521 c 1,384,385
 626 1521 626 1521 626 1517 c 256,386,387
 626 1513 626 1513 631 1495 c 128,-1,388
 636 1477 636 1477 636 1441 c 1,389,390
 628 1423 628 1423 624 1421 c 0,391,392
 622 1421 622 1421 618 1425 c 1,393,-1
 618 1463 l 2,394,395
 618 1504 618 1504 608.5 1527 c 128,-1,396
 599 1550 599 1550 599 1582 c 1,397,398
 603 1582 603 1582 605 1584 c 1,399,-1
 601 1619 l 2,400,401
 601 1621 601 1621 596 1626 c 1,402,403
 592 1624 592 1624 592 1624 c 2,404,405
 590 1624 590 1624 590 1622 c 1,406,-1
 592 1624 l 1,407,408
 588 1624 588 1624 576.5 1597.5 c 128,-1,409
 565 1571 565 1571 553 1540 c 0,410,411
 540 1504 540 1504 523 1453 c 1,412,413
 523 1427 523 1427 540 1408 c 128,-1,414
 557 1389 557 1389 557 1367 c 0,415,416
 557 1348 557 1348 553 1335.5 c 128,-1,417
 549 1323 549 1323 543.5 1312.5 c 128,-1,418
 538 1302 538 1302 534 1294 c 128,-1,419
 530 1286 530 1286 530 1274 c 256,420,421
 530 1262 530 1262 535.5 1238 c 128,-1,422
 541 1214 541 1214 551 1214 c 1,423,-1
 565 1216 l 1,424,-1
 565 1212 l 1,425,-1
 553 1210 l 1,426,-1
 561 1189 l 1,427,-1
 572 1185 l 1,428,-1
 701 1212 l 1,429,-1
 596 1210 l 1,430,431
 596 1212 596 1212 597 1214 c 1,432,-1
 594 1218 l 1,433,-1
 628 1222 l 2,434,435
 630 1223 630 1223 636 1223 c 2,436,-1
 695 1223 l 2,437,438
 711 1223 711 1223 731 1221.5 c 128,-1,439
 751 1220 751 1220 751 1212 c 0,440,441
 751 1210 751 1210 747 1210 c 2,442,-1
 753 1210 l 2,443,444
 763 1210 763 1210 768 1208 c 1,445,446
 768 1198 768 1198 765 1193 c 1,447,-1
 757 1193 l 1,448,449
 751 1181 751 1181 751 1179 c 1,450,-1
 753 1179 l 1,451,452
 741 1167 741 1167 721 1167 c 128,-1,453
 701 1167 701 1167 686 1162 c 1,454,455
 686 1158 686 1158 703 1154.5 c 128,-1,456
 720 1151 720 1151 737 1151 c 0,457,458
 765 1151 765 1151 789 1159 c 128,-1,459
 813 1167 813 1167 813 1183 c 0,460,461
 813 1193 813 1193 792.5 1209 c 128,-1,462
 772 1225 772 1225 768 1238 c 0,463,464
 768 1240 768 1240 769 1241 c 128,-1,465
 770 1242 770 1242 770 1244 c 256,466,467
 770 1246 770 1246 772 1246 c 1,468,-1
 772 1250 l 1,469,470
 793 1256 793 1256 835 1256 c 1,471,472
 870 1246 870 1246 872 1235 c 1,473,-1
 872 1231 l 1,474,-1
 827 1187 l 1,475,-1
 827 1175 l 1,476,477
 829 1167 829 1167 835 1167 c 1,478,-1
 857 1162 l 1,479,480
 868 1158 868 1158 876.5 1154.5 c 128,-1,481
 885 1151 885 1151 902 1151 c 0,482,483
 936 1151 936 1151 956 1166 c 1,484,-1
 859 1181 l 1,485,-1
 847 1193 l 1,486,487
 849 1206 849 1206 857 1208 c 1,488,489
 859 1206 859 1206 870 1206 c 0,490,491
 874 1206 874 1206 879.5 1206 c 128,-1,492
 885 1206 885 1206 895 1208 c 1,493,494
 941 1208 941 1208 987 1203 c 128,-1,495
 1033 1198 1033 1198 1079 1196 c 1,496,497
 1089 1212 1089 1212 1102 1225 c 128,-1,498
 1115 1238 1115 1238 1115 1258 c 0,499,500
 1115 1272 1115 1272 1107 1288 c 128,-1,501
 1099 1304 1099 1304 1088 1320.5 c 128,-1,502
 1077 1337 1077 1337 1068.5 1353 c 128,-1,503
 1060 1369 1060 1369 1060 1381 c 0,504,505
 1060 1398 1060 1398 1072.5 1414.5 c 128,-1,506
 1085 1431 1085 1431 1085 1453 c 0,507,508
 1085 1490 1085 1490 1066 1524 c 128,-1,509
 1047 1558 1047 1558 1037 1592 c 0,350,351
-54 -12 m 1,510,-1
 -58 -12 l 2,511,512
 -56 -12 -56 -12 -56 -30 c 1,513,-1
 -48 -36 l 1,514,515
 -40 -32 -40 -32 -34 -27 c 1,516,-1
 -54 -12 l 1,510,-1
-75 2 m 1,517,-1
 -81 2 l 1,518,519
 -85 -2 -85 -2 -85 -16 c 0,520,521
 -85 -44 -85 -44 -55 -61.5 c 128,-1,522
 -25 -79 -25 -79 10 -79 c 2,523,-1
 20 -79 l 1,524,-1
 30 -69 l 1,525,526
 30 -50 30 -50 25 -46 c 1,527,-1
 6 -40 l 1,528,529
 -12 -40 -12 -40 -18 -38 c 1,530,-1
 -38 -44 l 1,531,532
 -38 -46 -38 -46 -39 -46 c 128,-1,533
 -40 -46 -40 -46 -40 -48 c 256,534,535
 -40 -50 -40 -50 -34 -50 c 2,536,-1
 -10 -46 l 1,537,-1
 6 -48 l 1,538,539
 10 -58 10 -58 10 -58 c 257,540,541
 10 -58 10 -58 12 -58 c 1,542,543
 6 -65 6 -65 -8 -69 c 1,544,545
 -36 -65 -36 -65 -54.5 -52.5 c 128,-1,546
 -73 -40 -73 -40 -73 -18 c 0,547,548
 -73 -8 -73 -8 -69 0 c 1,549,-1
 -71 2 l 1,550,-1
 -75 2 l 1,517,-1
-54 75 m 1,551,-1
 -56 77 l 1,552,553
 -58 77 -58 77 -65.5 66.5 c 128,-1,554
 -73 56 -73 56 -73 46 c 0,555,556
 -73 14 -73 14 -49 1 c 128,-1,557
 -25 -12 -25 -12 -16 -12 c 0,558,559
 -8 -12 -8 -12 -8 -6 c 0,560,561
 -8 -2 -8 -2 -16.5 10.5 c 128,-1,562
 -25 23 -25 23 -34 23 c 0,563,564
 -38 23 -38 23 -38 18 c 1,565,-1
 -28 12 l 1,566,-1
 -23 0 l 2,567,568
 -23 -2 -23 -2 -28 -2 c 1,569,570
 -38 2 -38 2 -52.5 14.5 c 128,-1,571
 -67 27 -67 27 -67 44 c 0,572,573
 -67 54 -67 54 -59.5 60.5 c 128,-1,574
 -52 67 -52 67 -52 71 c 0,575,576
 -52 73 -52 73 -53 73 c 128,-1,577
 -54 73 -54 73 -54 75 c 1,551,-1
-27 123 m 1,578,-1
 -34 119 l 1,579,-1
 -42 86 l 1,580,581
 -38 75 -38 75 -38 77 c 1,582,-1
 -28 62 l 1,583,584
 -25 54 -25 54 -23 48 c 1,585,-1
 -8 46 l 1,586,587
 -4 42 -4 42 -2 42 c 0,588,589
 2 42 2 42 4 43 c 128,-1,590
 6 44 6 44 10 44 c 1,591,592
 14 42 14 42 14 42 c 1,593,-1
 18 54 l 1,594,-1
 4 69 l 1,595,-1
 -18 75 l 1,596,-1
 6 54 l 1,597,-1
 6 50 l 1,598,599
 4 50 4 50 4 49 c 128,-1,600
 4 48 4 48 2 48 c 256,601,602
 0 48 0 48 0 51 c 128,-1,603
 0 54 0 54 -4 54 c 2,604,-1
 -10 54 l 1,605,606
 -23 56 -23 56 -34 96 c 1,607,-1
 -27 123 l 1,578,-1
-8 141 m 1,608,-1
 -10 141 l 1,609,610
 -10 139 -10 139 -11 139 c 128,-1,611
 -12 139 -12 139 -12 137 c 0,612,613
 -12 127 -12 127 6.5 112.5 c 128,-1,614
 25 98 25 98 44 98 c 1,615,616
 44 96 44 96 42 96 c 1,617,-1
 42 104 l 1,618,-1
 10 121 l 1,619,-1
 -8 141 l 1,608,-1
2 165 m 1,620,621
 0 163 0 163 0 159 c 1,622,623
 8 141 8 141 22 130 c 128,-1,624
 36 119 36 119 46 119 c 0,625,626
 52 119 52 119 54 121 c 1,627,-1
 14 144 l 1,628,-1
 2 165 l 1,620,621
75 181 m 1,629,-1
 75 175 l 1,630,631
 77 177 77 177 79 177 c 1,632,633
 73 179 73 179 73 181 c 1,634,-1
 75 181 l 1,629,-1
28 199 m 1,635,-1
 27 201 l 1,636,-1
 18 198 l 1,637,638
 16 194 16 194 16 183 c 0,639,640
 16 167 16 167 23 159 c 128,-1,641
 30 151 30 151 65 135 c 1,642,643
 71 137 71 137 79 137 c 1,644,-1
 50 151 l 1,645,646
 30 171 30 171 30 199 c 1,647,-1
 28 199 l 1,635,-1
151 254 m 1,648,649
 135 246 135 246 115.5 246 c 128,-1,650
 96 246 96 246 81.5 244 c 128,-1,651
 67 242 67 242 56.5 231.5 c 128,-1,652
 46 221 46 221 46 194 c 0,653,654
 46 183 46 183 53 170 c 128,-1,655
 60 157 60 157 71 151 c 1,656,-1
 94 142 l 1,657,-1
 104 144 l 1,658,659
 111 147 111 147 113 153 c 1,660,661
 113 181 113 181 100.5 195 c 128,-1,662
 88 209 88 209 77 213 c 1,663,664
 71 213 71 213 71 207 c 0,665,666
 71 203 71 203 80.5 196.5 c 128,-1,667
 90 190 90 190 100 173 c 1,668,669
 100 171 100 171 98 165 c 128,-1,670
 96 159 96 159 88 153 c 1,671,672
 83 153 83 153 75 161 c 2,673,-1
 65 171 l 1,674,-1
 60 171 l 2,675,676
 58 171 58 171 58 173 c 1,677,-1
 56 171 l 1,678,-1
 58 171 l 1,679,680
 52 179 52 179 52 194 c 0,681,682
 52 213 52 213 62.5 223.5 c 128,-1,683
 73 234 73 234 87.5 238 c 128,-1,684
 102 242 102 242 117.5 243 c 128,-1,685
 133 244 133 244 144 248 c 1,686,-1
 151 248 l 2,687,688
 157 248 157 248 157 252 c 2,689,-1
 157 254 l 1,690,-1
 151 254 l 1,648,649
829 256 m 2,691,-1
 785 254 l 1,692,693
 785 236 785 236 782 219.5 c 128,-1,694
 779 203 779 203 779 187 c 0,695,696
 779 163 779 163 791 151 c 1,697,-1
 824 155 l 1,698,699
 835 209 835 209 835 246 c 0,700,701
 835 256 835 256 829 256 c 2,691,-1
244 271 m 1,702,-1
 183 265 l 1,703,704
 173 261 173 261 173 252 c 0,705,706
 173 250 173 250 175 248 c 1,707,-1
 265 246 l 1,708,-1
 252 271 l 1,709,-1
 244 271 l 1,702,-1
618 294 m 1,710,-1
 616 294 l 1,711,712
 614 292 614 292 614 290 c 1,713,714
 616 290 616 290 616 289 c 128,-1,715
 616 288 616 288 618 288 c 1,716,-1
 618 290 l 1,717,718
 620 292 620 292 620 294 c 1,719,-1
 618 294 l 1,710,-1
586 304 m 2,720,-1
 582 306 l 1,721,-1
 578 298 l 1,722,-1
 578 300 l 2,723,724
 578 296 578 296 582 295 c 128,-1,725
 586 294 586 294 588 294 c 256,726,727
 590 294 590 294 592 296 c 1,728,729
 590 298 590 298 589 300 c 128,-1,730
 588 302 588 302 586 304 c 2,720,-1
1012 318 m 1,731,732
 998 316 998 316 998 306 c 1,733,-1
 1002 306 l 2,734,735
 1008 306 1008 306 1018 316 c 1,736,737
 1012 316 1012 316 1012 318 c 1,731,732
526 459 m 1,738,-1
 519 451 l 2,739,740
 517 449 517 449 513 449 c 2,741,-1
 505 449 l 2,742,743
 501 449 501 449 501 447 c 1,744,-1
 551 432 l 1,745,-1
 526 459 l 1,738,-1
1358 461 m 1,746,-1
 1356 432 l 1,747,748
 1320 421 1320 421 1285 412 c 128,-1,749
 1250 403 1250 403 1219.5 395.5 c 128,-1,750
 1189 388 1189 388 1169 384 c 128,-1,751
 1149 380 1149 380 1145 378 c 1,752,753
 1133 376 1133 376 1124 375 c 128,-1,754
 1115 374 1115 374 1105 374 c 0,755,756
 1087 374 1087 374 1083 376 c 1,757,758
 1081 374 1081 374 1081 372 c 2,759,-1
 1109 313 l 1,760,761
 1105 310 1105 310 1103 310 c 256,762,763
 1101 310 1101 310 1097 313 c 1,764,-1
 1091 324 l 2,765,766
 1089 326 1089 326 1087 326 c 1,767,768
 1066 312 1066 312 1037 298 c 128,-1,769
 1008 284 1008 284 987 282 c 1,770,771
 974 257 974 257 973 231 c 128,-1,772
 972 205 972 205 970 181 c 1,773,774
 974 169 974 169 984 167 c 1,775,776
 1101 190 1101 190 1163 205.5 c 128,-1,777
 1225 221 1225 221 1258.5 238.5 c 128,-1,778
 1292 256 1292 256 1310.5 280 c 128,-1,779
 1329 304 1329 304 1356 342 c 1,780,781
 1369 374 1369 374 1369 407 c 0,782,783
 1369 430 1369 430 1358 461 c 1,746,-1
507 473 m 2,784,-1
 505 475 l 1,785,786
 499 463 499 463 499 461 c 1,787,-1
 503 461 l 1,788,789
 511 463 511 463 513 469 c 1,790,791
 511 469 511 469 507 473 c 2,784,-1
274 477 m 1,792,-1
 271 477 l 1,793,794
 259 436 259 436 259 405 c 0,795,796
 259 392 259 392 262 364 c 128,-1,797
 265 336 265 336 270.5 307 c 128,-1,798
 276 278 276 278 282 257 c 128,-1,799
 288 236 288 236 294 236 c 1,800,801
 396 201 396 201 487 179 c 128,-1,802
 578 157 578 157 638 157 c 0,803,804
 660 157 660 157 666 159 c 1,805,806
 666 167 666 167 665 183 c 128,-1,807
 664 199 664 199 662 215.5 c 128,-1,808
 660 232 660 232 655.5 246.5 c 128,-1,809
 651 261 651 261 644 267 c 1,810,811
 632 263 632 263 624 263 c 2,812,-1
 597 263 l 1,813,-1
 584 263 l 2,814,815
 549 263 549 263 541.5 251.5 c 128,-1,816
 534 240 534 240 523 229 c 1,817,818
 517 232 517 232 511 232 c 2,819,-1
 509 232 l 1,820,-1
 509 236 l 1,821,-1
 565 352 l 1,822,823
 526 367 526 367 492.5 374.5 c 128,-1,824
 459 382 459 382 425.5 394.5 c 128,-1,825
 392 407 392 407 356 425 c 128,-1,826
 320 443 320 443 276 477 c 1,827,-1
 274 477 l 1,792,-1
485 491 m 1,828,-1
 475 477 l 1,829,830
 475 473 475 473 476 471 c 128,-1,831
 477 469 477 469 477 467 c 2,832,-1
 477 463 l 1,833,834
 473 453 473 453 471 453 c 1,835,-1
 471 459 l 1,836,837
 481 451 481 451 487 451 c 0,838,839
 491 451 491 451 491 463 c 1,840,-1
 484 475 l 1,841,-1
 491 487 l 1,842,843
 489 489 489 489 488 489 c 128,-1,844
 487 489 487 489 485 491 c 1,828,-1
1200 501 m 1,845,846
 1196 501 1196 501 1194.5 498 c 128,-1,847
 1193 495 1193 495 1189 495 c 256,848,849
 1185 495 1185 495 1185 498 c 128,-1,850
 1185 501 1185 501 1183 501 c 1,851,852
 1177 495 1177 495 1177 491 c 256,853,854
 1177 487 1177 487 1181 487 c 1,855,-1
 1206 497 l 1,856,857
 1202 501 1202 501 1201 499 c 128,-1,858
 1200 497 1200 497 1200 501 c 1,845,846
1151 513 m 1,859,-1
 1131 503 l 1,860,-1
 1081 467 l 1,861,862
 1085 463 1085 463 1089 463 c 0,863,864
 1103 463 1103 463 1129.5 470 c 128,-1,865
 1156 477 1156 477 1169 487 c 1,866,-1
 1164 493 l 1,867,-1
 1156 489 l 1,868,-1
 1147 499 l 1,869,-1
 1156 513 l 1,870,-1
 1151 513 l 1,859,-1
436 519 m 1,871,-1
 434 513 l 1,872,873
 428 507 428 507 423 505 c 1,874,875
 423 503 423 503 424 500 c 128,-1,876
 425 497 425 497 425 495 c 1,877,-1
 415 485 l 1,878,-1
 463 461 l 1,879,-1
 459 469 l 1,880,881
 459 479 459 479 461 478 c 128,-1,882
 463 477 463 477 467 481 c 1,883,-1
 467 503 l 1,884,-1
 461 503 l 1,885,886
 461 493 461 493 451 493 c 1,887,-1
 451 479 l 1,888,-1
 443 475 l 1,889,890
 432 479 432 479 432 484 c 1,891,892
 434 484 434 484 434 485 c 0,893,894
 434 487 434 487 436 491 c 1,895,-1
 441 495 l 1,896,-1
 441 503 l 2,897,898
 441 517 441 517 443 517 c 256,899,900
 445 517 445 517 445 515 c 1,901,-1
 436 519 l 1,871,-1
1306 523 m 1,902,-1
 1290 513 l 1,903,904
 1280 511 1280 511 1269 504 c 128,-1,905
 1258 497 1258 497 1237 488 c 128,-1,906
 1216 479 1216 479 1180.5 469 c 128,-1,907
 1145 459 1145 459 1089 447 c 1,908,909
 1087 449 1087 449 1081 449 c 1,910,911
 1075 445 1075 445 1075 443 c 2,912,-1
 1075 415 l 2,913,914
 1075 396 1075 396 1083 393 c 128,-1,915
 1091 390 1091 390 1103 390 c 0,916,917
 1127 390 1127 390 1160 396.5 c 128,-1,918
 1193 403 1193 403 1227.5 414 c 128,-1,919
 1262 425 1262 425 1292.5 441 c 128,-1,920
 1323 457 1323 457 1342 477 c 1,921,-1
 1342 484 l 1,922,923
 1327 509 1327 509 1306 523 c 1,902,-1
413 532 m 1,924,-1
 409 534 l 1,925,-1
 407 523 l 1,926,-1
 396 517 l 1,927,928
 392 503 392 503 390 501 c 1,929,-1
 399 493 l 1,930,931
 399 487 399 487 401 487 c 1,932,933
 401 489 401 489 403 491 c 1,934,-1
 417 530 l 2,935,936
 417 532 417 532 413 532 c 1,924,-1
322 534 m 1,937,-1
 292 511 l 1,938,-1
 286 501 l 1,939,940
 282 497 282 497 282 495 c 1,941,-1
 322 461 l 1,942,943
 338 457 338 457 361 443.5 c 128,-1,944
 384 430 384 430 414.5 416.5 c 128,-1,945
 445 403 445 403 483 389.5 c 128,-1,946
 521 376 521 376 568 372 c 1,947,-1
 572 390 l 2,948,949
 572 392 572 392 574 394 c 1,950,951
 574 405 574 405 565 413 c 1,952,-1
 526 419 l 1,953,-1
 513 427 l 1,954,955
 473 432 473 432 448 449.5 c 128,-1,956
 423 467 423 467 403 471 c 1,957,958
 382 484 382 484 362 493.5 c 128,-1,959
 342 503 342 503 328 521 c 1,960,-1
 326 532 l 1,961,962
 324 534 324 534 322 534 c 1,937,-1
370 536 m 1,963,-1
 376 536 l 2,964,965
 378 536 378 536 378 528 c 0,966,967
 378 523 378 523 370 523 c 0,968,969
 365 523 365 523 365 530 c 1,970,-1
 369 536 l 1,971,-1
 370 536 l 1,963,-1
1248 538 m 1,972,-1
 1214 536 l 1,973,974
 1210 523 1210 523 1206 523 c 1,975,-1
 1206 528 l 2,976,977
 1206 523 1206 523 1207 521 c 128,-1,978
 1208 519 1208 519 1208 517 c 256,979,980
 1208 515 1208 515 1206 515 c 1,981,-1
 1214 526 l 1,982,983
 1214 528 1214 528 1216 528 c 2,984,-1
 1222 528 l 1,985,986
 1223 526 1223 526 1223 519 c 0,987,988
 1223 513 1223 513 1218.5 509 c 128,-1,989
 1214 505 1214 505 1214 501 c 2,990,-1
 1214 503 l 1,991,992
 1216 503 1216 503 1218 502 c 128,-1,993
 1220 501 1220 501 1223 501 c 1,994,995
 1240 509 1240 509 1260 517.5 c 128,-1,996
 1280 526 1280 526 1292 538 c 1,997,-1
 1248 538 l 1,972,-1
352 545 m 1,998,999
 342 541 342 541 341 540.5 c 128,-1,1000
 340 540 340 540 340 536 c 256,1001,1002
 340 532 340 532 344 528 c 2,1003,-1
 367 511 l 1,1004,1005
 370 511 370 511 371 508 c 128,-1,1006
 372 505 372 505 376 505 c 2,1007,-1
 378 505 l 1,1008,1009
 378 507 378 507 377 507 c 128,-1,1010
 376 507 376 507 376 509 c 0,1011,1012
 376 517 376 517 382 528 c 2,1013,-1
 388 540 l 1,1014,1015
 390 540 390 540 392 538 c 1,1016,-1
 352 545 l 1,998,999
1052 632 m 1,1017,-1
 996 332 l 1,1018,-1
 1029 332 l 1,1019,-1
 1039 338 l 1,1020,-1
 1066 342 l 1,1021,1022
 1066 354 1066 354 1057.5 363 c 128,-1,1023
 1049 372 1049 372 1049 399 c 0,1024,1025
 1049 430 1049 430 1053.5 448.5 c 128,-1,1026
 1058 467 1058 467 1065.5 477 c 128,-1,1027
 1073 487 1073 487 1084 494 c 128,-1,1028
 1095 501 1095 501 1107 511 c 1,1029,-1
 1095 543 l 1,1030,-1
 1052 632 l 1,1017,-1
565 658 m 1,1031,-1
 561 658 l 1,1032,1033
 549 646 549 646 538.5 625.5 c 128,-1,1034
 528 605 528 605 518.5 584 c 128,-1,1035
 509 563 509 563 504 543 c 128,-1,1036
 499 523 499 523 499 513 c 0,1037,1038
 499 501 499 501 514.5 488 c 128,-1,1039
 530 475 530 475 547.5 458 c 128,-1,1040
 565 441 565 441 580.5 418.5 c 128,-1,1041
 596 396 596 396 596 369 c 0,1042,1043
 596 340 596 340 588 322 c 1,1044,1045
 590 313 590 313 597 313 c 2,1046,-1
 642 312 l 1,1047,1048
 626 359 626 359 620 409 c 128,-1,1049
 614 459 614 459 603 484 c 0,1050,1051
 588 515 588 515 580 558 c 128,-1,1052
 572 601 572 601 565 658 c 1,1031,-1
982 1113 m 1,1053,1054
 970 1101 970 1101 923 1087 c 128,-1,1055
 876 1073 876 1073 829 1062 c 1,1056,1057
 813 1066 813 1066 799 1066 c 128,-1,1058
 785 1066 785 1066 768 1073 c 1,1059,1060
 739 1075 739 1075 710.5 1087 c 128,-1,1061
 682 1099 682 1099 660 1107 c 1,1062,-1
 660 1093 l 2,1063,1064
 660 1071 660 1071 651 1047.5 c 128,-1,1065
 642 1024 642 1024 636 1004 c 1,1066,1067
 614 946 614 946 606.5 890.5 c 128,-1,1068
 599 835 599 835 599 777 c 0,1069,1070
 599 701 599 701 609.5 625 c 128,-1,1071
 620 549 620 549 634 473 c 1,1072,1073
 658 388 658 388 665 310 c 128,-1,1074
 672 232 672 232 684 151 c 1,1075,1076
 682 144 682 144 676 140.5 c 128,-1,1077
 670 137 670 137 668 133 c 1,1078,-1
 666 117 l 2,1079,1080
 666 115 666 115 670 115 c 1,1081,-1
 672 117 l 2,1082,1083
 674 119 674 119 676 119 c 1,1084,1085
 678 117 678 117 679 115 c 128,-1,1086
 680 113 680 113 682 111 c 1,1087,-1
 678 96 l 1,1088,-1
 684 96 l 1,1089,-1
 699 149 l 1,1090,-1
 707 153 l 1,1091,1092
 711 149 711 149 712.5 150 c 128,-1,1093
 714 151 714 151 714 144 c 0,1094,1095
 714 135 714 135 710.5 124 c 128,-1,1096
 707 113 707 113 707 104 c 0,1097,1098
 707 90 707 90 711 86 c 1,1099,1100
 711 98 711 98 714 98 c 1,1101,1102
 722 94 722 94 723 88.5 c 128,-1,1103
 724 83 724 83 726 83 c 0,1104,1105
 732 83 732 83 737 86 c 1,1106,1107
 735 96 735 96 728.5 106.5 c 128,-1,1108
 722 117 722 117 722 127 c 0,1109,1110
 722 129 722 129 723 134 c 128,-1,1111
 724 139 724 139 728 139 c 256,1112,1113
 732 139 732 139 740.5 117.5 c 128,-1,1114
 749 96 749 96 759 92 c 0,1115,1116
 761 92 761 92 762 93 c 128,-1,1117
 763 94 763 94 765 94 c 1,1118,-1
 765 92 l 1,1119,-1
 759 119 l 1,1120,1121
 761 121 761 121 765 121 c 1,1122,1123
 765 119 765 119 774 109 c 1,1124,1125
 777 109 777 109 777 106.5 c 128,-1,1126
 777 104 777 104 779 104 c 1,1127,-1
 777 109 l 2,1128,1129
 777 111 777 111 780 117 c 128,-1,1130
 783 123 783 123 783 133 c 0,1131,1132
 783 141 783 141 772 151 c 1,1133,-1
 770 151 l 2,1134,1135
 768 151 768 151 767 153 c 2,1136,-1
 755 163 l 1,1137,1138
 751 171 751 171 751 187 c 0,1139,1140
 751 244 751 244 764 308 c 128,-1,1141
 777 372 777 372 777 443 c 0,1142,1143
 777 501 777 501 772 557.5 c 128,-1,1144
 767 614 767 614 763 666 c 0,1145,1146
 763 668 763 668 765 672 c 128,-1,1147
 767 676 767 676 770 676 c 0,1148,1149
 779 676 779 676 787 649 c 128,-1,1150
 795 622 795 622 800 585.5 c 128,-1,1151
 805 549 805 549 808 513 c 128,-1,1152
 811 477 811 477 811 461 c 0,1153,1154
 811 415 811 415 804 368.5 c 128,-1,1155
 797 322 797 322 787 276 c 1,1156,1157
 803 271 803 271 807 271 c 0,1158,1159
 824 271 824 271 839 282 c 1,1160,-1
 841 312 l 2,1161,1162
 843 332 843 332 844 350.5 c 128,-1,1163
 845 369 845 369 845 386 c 0,1164,1165
 845 415 845 415 844 444 c 128,-1,1166
 843 473 843 473 843 501 c 0,1167,1168
 843 519 843 519 847 548.5 c 128,-1,1169
 851 578 851 578 857.5 607 c 128,-1,1170
 864 636 864 636 870 657 c 128,-1,1171
 876 678 876 678 882 678 c 1,1172,1173
 885 674 885 674 885 666 c 0,1174,1175
 885 654 885 654 880 636 c 1,1176,1177
 874 592 874 592 872 548.5 c 128,-1,1178
 870 505 870 505 870 459 c 0,1179,1180
 870 419 870 419 871 376.5 c 128,-1,1181
 872 334 872 334 872 294 c 0,1182,1183
 872 246 872 246 864.5 222 c 128,-1,1184
 857 198 857 198 853 167 c 1,1185,1186
 862 147 862 147 858.5 132 c 128,-1,1187
 855 117 855 117 872 100 c 1,1188,-1
 876 100 l 1,1189,-1
 878 125 l 1,1190,-1
 885 129 l 1,1191,-1
 893 115 l 1,1192,-1
 897 115 l 1,1193,1194
 902 119 902 119 902 127 c 256,1195,1196
 902 135 902 135 891 161 c 0,1197,1198
 891 163 891 163 895 167 c 1,1199,1200
 906 167 906 167 912 151 c 128,-1,1201
 918 135 918 135 918 127 c 0,1202,1203
 918 117 918 117 912 108.5 c 128,-1,1204
 906 100 906 100 906 94 c 1,1205,-1
 922 96 l 1,1206,1207
 926 100 926 100 926 104 c 2,1208,-1
 926 109 l 1,1209,-1
 924 107 l 1,1210,-1
 932 111 l 1,1211,1212
 934 109 934 109 939 109 c 1,1213,1214
 950 119 950 119 950 131 c 0,1215,1216
 950 151 950 151 940 153 c 128,-1,1217
 930 155 930 155 930 165 c 0,1218,1219
 930 171 930 171 934 171 c 1,1220,1221
 941 167 941 167 945.5 165 c 128,-1,1222
 950 163 950 163 952 161 c 1,1223,-1
 966 125 l 1,1224,-1
 974 123 l 1,1225,1226
 978 135 978 135 978 135 c 1,1227,1228
 978 144 978 144 968 161 c 1,1229,-1
 941 171 l 1,1230,1231
 936 190 936 190 936 207 c 0,1232,1233
 936 236 936 236 944 264 c 128,-1,1234
 952 292 952 292 962 320 c 1,1235,1236
 1022 534 1022 534 1022 739 c 0,1237,1238
 1022 815 1022 815 1014 890.5 c 128,-1,1239
 1006 966 1006 966 991 1037 c 1,1240,1241
 982 1052 982 1052 982 1113 c 1,1053,1054
817 1154 m 1,1242,1243
 801 1147 801 1147 797 1143 c 1,1244,-1
 827 1147 l 1,1245,-1
 820 1154 l 1,1246,-1
 817 1154 l 1,1242,1243
654 1156 m 1,1247,-1
 626 1154 l 1,1248,1249
 624 1149 624 1149 624 1145 c 256,1250,1251
 624 1141 624 1141 650 1131 c 128,-1,1252
 676 1121 676 1121 710.5 1112 c 128,-1,1253
 745 1103 745 1103 779 1096 c 128,-1,1254
 813 1089 813 1089 829 1089 c 2,1255,-1
 841 1089 l 2,1256,1257
 882 1089 882 1089 920 1106 c 128,-1,1258
 958 1123 958 1123 976 1135 c 2,1259,-1
 1002 1151 l 1,1260,1261
 998 1154 998 1154 995.5 1152.5 c 128,-1,1262
 993 1151 993 1151 989 1156 c 1,1263,1264
 962 1151 962 1151 939 1140 c 128,-1,1265
 916 1129 916 1129 891 1129 c 0,1266,1267
 880 1129 880 1129 871 1133 c 128,-1,1268
 862 1137 862 1137 857 1137 c 0,1269,1270
 847 1137 847 1137 834.5 1129 c 128,-1,1271
 822 1121 822 1121 805 1121 c 0,1272,1273
 785 1121 785 1121 770 1133 c 1,1274,1275
 759 1129 759 1129 743 1129 c 0,1276,1277
 718 1129 718 1129 696 1137 c 128,-1,1278
 674 1145 674 1145 654 1156 c 1,1247,-1
1158 1177 m 2,1279,-1
 1222 1167 l 1,1280,-1
 1154 1173 l 1,1281,1282
 1151 1175 1151 1175 1151 1179 c 0,1283,1284
 1151 1181 1151 1181 1149 1181 c 1,1285,1286
 1149 1179 1149 1179 1151 1179 c 0,1287,1288
 1154 1179 1154 1179 1154 1178 c 128,-1,1289
 1154 1177 1154 1177 1158 1177 c 2,1279,-1
707 1193 m 1,1290,1291
 693 1189 693 1189 672 1187 c 128,-1,1292
 651 1185 651 1185 630.5 1183 c 128,-1,1293
 610 1181 610 1181 596 1179 c 128,-1,1294
 582 1177 582 1177 580 1171 c 1,1295,-1
 594 1160 l 1,1296,-1
 601 1158 l 1,1297,-1
 724 1191 l 1,1298,-1
 707 1193 l 1,1290,1291
576 1218 m 1,1299,-1
 588 1216 l 1,1300,-1
 588 1212 l 1,1301,-1
 572 1216 l 1,1302,-1
 576 1218 l 1,1299,-1
815 1242 m 1,1303,-1
 785 1235 l 1,1304,1305
 785 1233 785 1233 787 1233 c 2,1306,-1
 813 1225 l 2,1307,1308
 815 1225 815 1225 815 1226 c 128,-1,1309
 815 1227 815 1227 817 1227 c 0,1310,1311
 820 1227 820 1227 820 1226 c 128,-1,1312
 820 1225 820 1225 822 1225 c 1,1313,-1
 829 1208 l 1,1314,1315
 833 1223 833 1223 836 1226 c 128,-1,1316
 839 1229 839 1229 847 1229 c 2,1317,-1
 851 1229 l 1,1318,1319
 851 1231 851 1231 852 1231 c 128,-1,1320
 853 1231 853 1231 853 1233 c 2,1321,-1
 853 1235 l 1,1322,-1
 815 1242 l 1,1303,-1
688 1331 m 2,1323,1324
 714 1333 714 1333 744 1313.5 c 128,-1,1325
 774 1294 774 1294 774 1264 c 0,1326,1327
 774 1250 774 1250 768 1250 c 0,1328,1329
 765 1250 765 1250 763 1255 c 128,-1,1330
 761 1260 761 1260 755 1260 c 1,1331,1332
 745 1256 745 1256 738.5 1253 c 128,-1,1333
 732 1250 732 1250 722 1250 c 0,1334,1335
 690 1250 690 1250 664 1276 c 1,1336,-1
 644 1310 l 1,1337,-1
 628 1316 l 2,1338,1339
 626 1316 626 1316 626 1320 c 2,1340,-1
 626 1323 l 2,1341,1342
 626 1325 626 1325 628 1327 c 1,1343,-1
 688 1331 l 2,1323,1324
755 1445 m 1,1344,-1
 728 1356 l 1,1345,-1
 716 1356 l 2,1346,1347
 714 1356 714 1356 714 1358 c 1,1348,-1
 703 1358 l 2,1349,1350
 701 1358 701 1358 699 1360 c 1,1351,-1
 686 1439 l 1,1352,1353
 690 1433 690 1433 694.5 1423 c 128,-1,1354
 699 1413 699 1413 702 1402 c 128,-1,1355
 705 1391 705 1391 708 1383 c 128,-1,1356
 711 1375 711 1375 711 1375 c 2,1357,1358
 712 1375 712 1375 713 1394 c 128,-1,1359
 714 1413 714 1413 718 1425 c 1,1360,-1
 724 1383 l 1,1361,-1
 753 1445 l 1,1362,-1
 755 1445 l 1,1344,-1
1000 1342 m 1,1363,-1
 1008 1340 l 1,1364,-1
 1008 1333 l 2,1365,1366
 1008 1329 1008 1329 1000 1327 c 1,1367,1368
 966 1254 966 1254 928 1254 c 0,1369,1370
 918 1254 918 1254 908.5 1257 c 128,-1,1371
 899 1260 899 1260 889 1262 c 0,1372,1373
 885 1262 885 1262 885 1255 c 128,-1,1374
 885 1248 885 1248 882 1248 c 0,1375,1376
 870 1248 870 1248 870 1264 c 0,1377,1378
 870 1286 870 1286 892 1307.5 c 128,-1,1379
 914 1329 914 1329 946 1338 c 1,1380,1381
 952 1338 952 1338 959 1337.5 c 128,-1,1382
 966 1337 966 1337 972 1337 c 0,1383,1384
 984 1337 984 1337 1000 1342 c 1,1363,-1
972 1411 m 1,1385,-1
 958 1369 l 1,1386,1387
 954 1365 954 1365 952 1367 c 128,-1,1388
 950 1369 950 1369 950 1365 c 1,1389,-1
 970 1411 l 1,1390,-1
 972 1411 l 1,1385,-1
936 1419 m 1,1391,-1
 936 1369 l 1,1392,1393
 932 1365 932 1365 929 1367 c 128,-1,1394
 926 1369 926 1369 926 1365 c 2,1395,-1
 926 1362 l 1,1396,1397
 930 1365 930 1365 930 1365 c 1,1398,-1
 930 1362 l 1,1399,1400
 930 1362 930 1362 926 1371 c 1,1401,-1
 934 1419 l 1,1402,-1
 936 1419 l 1,1391,-1
908 1423 m 1,1403,-1
 920 1362 l 2,1404,1405
 920 1358 920 1358 914 1358 c 1,1406,1407
 906 1375 906 1375 906 1391 c 128,-1,1408
 906 1407 906 1407 906 1423 c 1,1409,-1
 908 1423 l 1,1403,-1
670 1310 m 1,1410,-1
 668 1308 l 1,1411,1412
 668 1296 668 1296 686 1278 c 1,1413,-1
 707 1270 l 1,1414,1415
 707 1274 707 1274 706 1276 c 128,-1,1416
 705 1278 705 1278 705 1282 c 0,1417,1418
 705 1298 705 1298 712 1306 c 1,1419,-1
 670 1310 l 1,1410,-1
1342 1544 m 1,1420,1421
 1314 1534 1314 1534 1304 1519 c 128,-1,1422
 1294 1504 1294 1504 1294 1479 c 0,1423,1424
 1294 1465 1294 1465 1300 1448 c 1,1425,1426
 1352 1346 1352 1346 1352 1240 c 0,1427,1428
 1352 1173 1352 1173 1332 1109 c 128,-1,1429
 1312 1045 1312 1045 1281 985.5 c 128,-1,1430
 1250 926 1250 926 1212.5 871.5 c 128,-1,1431
 1175 817 1175 817 1143 772 c 1,1432,1433
 1127 741 1127 741 1107 711.5 c 128,-1,1434
 1087 682 1087 682 1079 642 c 1,1435,1436
 1081 636 1081 636 1087 618.5 c 128,-1,1437
 1093 601 1093 601 1101 583 c 128,-1,1438
 1109 565 1109 565 1116 551.5 c 128,-1,1439
 1123 538 1123 538 1127 538 c 1,1440,-1
 1129 540 l 1,1441,1442
 1135 582 1135 582 1155 614 c 128,-1,1443
 1175 646 1175 646 1191 684 c 1,1444,1445
 1216 726 1216 726 1244 775.5 c 128,-1,1446
 1272 825 1272 825 1308 880 c 1,1447,1448
 1365 964 1365 964 1405 1062 c 128,-1,1449
 1445 1160 1445 1160 1445 1292 c 0,1450,1451
 1445 1318 1445 1318 1442 1349.5 c 128,-1,1452
 1439 1381 1439 1381 1433 1412 c 128,-1,1453
 1427 1443 1427 1443 1416 1471.5 c 128,-1,1454
 1405 1500 1405 1500 1387 1519 c 2,1455,-1
 1379 1527 l 2,1456,1457
 1377 1529 1377 1529 1377 1532 c 1,1458,1459
 1377 1529 1377 1529 1379 1527 c 1,1460,1461
 1362 1544 1362 1544 1346 1544 c 2,1462,-1
 1342 1544 l 1,1420,1421
726 1302 m 1,1463,-1
 724 1302 l 1,1464,1465
 726 1300 726 1300 726 1292 c 256,1466,1467
 726 1284 726 1284 722 1277 c 128,-1,1468
 718 1270 718 1270 718 1264 c 1,1469,1470
 722 1264 722 1264 723 1263 c 128,-1,1471
 724 1262 724 1262 728 1262 c 0,1472,1473
 739 1262 739 1262 753 1270 c 1,1474,1475
 751 1274 751 1274 744 1281 c 128,-1,1476
 737 1288 737 1288 726 1302 c 1,1463,-1
922 1308 m 1,1477,1478
 906 1300 906 1300 901.5 1288 c 128,-1,1479
 897 1276 897 1276 897 1274 c 1,1480,-1
 916 1266 l 1,1481,1482
 920 1266 920 1266 921 1267 c 128,-1,1483
 922 1268 922 1268 924 1268 c 2,1484,-1
 928 1268 l 1,1485,1486
 920 1282 920 1282 920 1296 c 0,1487,1488
 920 1306 920 1306 922 1308 c 1,1477,1478
950 1323 m 1,1489,1490
 946 1318 946 1318 942 1318 c 128,-1,1491
 938 1318 938 1318 936 1316 c 2,1492,-1
 932 1314 l 1,1493,1494
 932 1310 932 1310 938 1308 c 1,1495,-1
 941 1270 l 1,1496,1497
 960 1282 960 1282 968 1297 c 128,-1,1498
 976 1312 976 1312 978 1323 c 1,1499,-1
 950 1323 l 1,1489,1490
974 1175 m 1,1500,-1
 1018 1160 l 1,1501,1502
 1031 1162 1031 1162 1031 1167 c 1,1503,-1
 974 1175 l 1,1500,-1
1012 1187 m 1,1504,-1
 1051 1175 l 1,1505,-1
 1052 1177 l 1,1506,1507
 1054 1177 1054 1177 1054 1178 c 128,-1,1508
 1054 1179 1054 1179 1056 1179 c 1,1509,1510
 1056 1183 1056 1183 1054 1185 c 1,1511,-1
 1012 1187 l 1,1504,-1
EndSplineSet
EndChar
StartChar: guillemotleft
Encoding: 171 171 190
Width: 1719
Flags: W
LayerCount: 2
Back
Fore
SplineSet
1463 1020 m 2,0,1
 1490 1038 1490 1038 1521 1038 c 0,2,3
 1544 1038 1544 1038 1563 1029 c 128,-1,4
 1582 1020 1582 1020 1596 1006 c 128,-1,5
 1610 992 1610 992 1617 973 c 128,-1,6
 1624 954 1624 954 1624 936 c 0,7,8
 1625 907 1625 907 1612.5 884 c 128,-1,9
 1600 861 1600 861 1579 847 c 2,10,-1
 1086 519 l 1,11,-1
 1579 191 l 2,12,13
 1600 177 1600 177 1612 153.5 c 128,-1,14
 1624 130 1624 130 1624 101 c 0,15,16
 1624 83 1624 83 1617 64.5 c 128,-1,17
 1610 46 1610 46 1596 32.5 c 128,-1,18
 1582 19 1582 19 1563.5 10 c 128,-1,19
 1545 1 1545 1 1522 1 c 0,20,21
 1488 1 1488 1 1463 18 c 2,22,-1
 843 431 l 2,23,24
 825 443 825 443 809.5 465 c 128,-1,25
 794 487 794 487 794 515 c 256,26,27
 794 543 794 543 806 566.5 c 128,-1,28
 818 590 818 590 841 605 c 2,29,-1
 1153 813 l 1,30,-1
 1463 1020 l 2,0,1
774 1020 m 2,31,32
 801 1038 801 1038 832 1038 c 0,33,34
 855 1038 855 1038 874 1029 c 128,-1,35
 893 1020 893 1020 907 1006 c 128,-1,36
 921 992 921 992 928.5 973 c 128,-1,37
 936 954 936 954 936 936 c 0,38,39
 937 907 937 907 924 884 c 128,-1,40
 911 861 911 861 890 847 c 2,41,-1
 397 519 l 1,42,-1
 890 191 l 2,43,44
 911 177 911 177 923.5 153.5 c 128,-1,45
 936 130 936 130 936 101 c 0,46,47
 936 83 936 83 928.5 64.5 c 128,-1,48
 921 46 921 46 907 32.5 c 128,-1,49
 893 19 893 19 874.5 10 c 128,-1,50
 856 1 856 1 833 1 c 0,51,52
 799 1 799 1 774 18 c 2,53,-1
 154 431 l 2,54,55
 136 443 136 443 120.5 465 c 128,-1,56
 105 487 105 487 105 515 c 256,57,58
 105 543 105 543 117 566.5 c 128,-1,59
 129 590 129 590 152 605 c 2,60,-1
 464 813 l 1,61,-1
 774 1020 l 2,31,32
EndSplineSet
EndChar
StartChar: degree
Encoding: 176 176 84
Width: 854
Flags: W
LayerCount: 2
Back
Fore
SplineSet
427 1660 m 0,0,1
 486 1660 486 1660 545.5 1637 c 128,-1,2
 605 1614 605 1614 651.5 1571 c 128,-1,3
 698 1528 698 1528 727 1467 c 128,-1,4
 756 1406 756 1406 756 1332 c 0,5,6
 756 1268 756 1268 732 1208.5 c 128,-1,7
 708 1149 708 1149 664 1103 c 128,-1,8
 620 1057 620 1057 559.5 1029.5 c 128,-1,9
 499 1002 499 1002 427 1002 c 0,10,11
 363 1002 363 1002 303.5 1027 c 128,-1,12
 244 1052 244 1052 198 1095 c 128,-1,13
 152 1138 152 1138 125 1198.5 c 128,-1,14
 98 1259 98 1259 98 1332 c 0,15,16
 98 1394 98 1394 121.5 1453 c 128,-1,17
 145 1512 145 1512 188.5 1558 c 128,-1,18
 232 1604 232 1604 292.5 1632 c 128,-1,19
 353 1660 353 1660 427 1660 c 0,0,1
513 1417 m 1,20,21
 492 1435 492 1435 472 1443.5 c 128,-1,22
 452 1452 452 1452 427 1452 c 0,23,24
 394 1452 394 1452 371 1439.5 c 128,-1,25
 348 1427 348 1427 333.5 1409 c 128,-1,26
 319 1391 319 1391 312.5 1369.5 c 128,-1,27
 306 1348 306 1348 306 1332 c 0,28,29
 306 1311 306 1311 313.5 1289.5 c 128,-1,30
 321 1268 321 1268 337 1250 c 128,-1,31
 353 1232 353 1232 375 1221 c 128,-1,32
 397 1210 397 1210 427 1210 c 0,33,34
 443 1210 443 1210 464 1216.5 c 128,-1,35
 485 1223 485 1223 504 1237.5 c 128,-1,36
 523 1252 523 1252 535.5 1275 c 128,-1,37
 548 1298 548 1298 548 1332 c 0,38,39
 548 1353 548 1353 539 1376.5 c 128,-1,40
 530 1400 530 1400 513 1417 c 1,20,21
EndSplineSet
EndChar
StartChar: plusminus
Encoding: 177 177 200
Width: 819
Flags: W
LayerCount: 2
Back
Fore
SplineSet
617 295 m 2,0,1
 638 295 638 295 657 286.5 c 128,-1,2
 676 278 676 278 690 264 c 128,-1,3
 704 250 704 250 712 230.5 c 128,-1,4
 720 211 720 211 720 191 c 0,5,6
 720 170 720 170 712 151 c 128,-1,7
 704 132 704 132 690 118 c 128,-1,8
 676 104 676 104 657 95.5 c 128,-1,9
 638 87 638 87 617 87 c 2,10,-1
 201 87 l 2,11,12
 181 87 181 87 161.5 95.5 c 128,-1,13
 142 104 142 104 128.5 118 c 128,-1,14
 115 132 115 132 106.5 151 c 128,-1,15
 98 170 98 170 98 191 c 0,16,17
 98 211 98 211 106 230.5 c 128,-1,18
 114 250 114 250 128 264 c 128,-1,19
 142 278 142 278 161 286.5 c 128,-1,20
 180 295 180 295 201 295 c 2,21,-1
 617 295 l 2,0,1
306 933 m 2,22,23
 306 954 306 954 314 973 c 128,-1,24
 322 992 322 992 336.5 1006 c 128,-1,25
 351 1020 351 1020 369.5 1028.5 c 128,-1,26
 388 1037 388 1037 410 1037 c 0,27,28
 430 1037 430 1037 449.5 1028.5 c 128,-1,29
 469 1020 469 1020 482.5 1006 c 128,-1,30
 496 992 496 992 504.5 972.5 c 128,-1,31
 513 953 513 953 513 933 c 2,32,-1
 513 829 l 1,33,-1
 617 829 l 2,34,35
 638 829 638 829 657 821 c 128,-1,36
 676 813 676 813 690 798.5 c 128,-1,37
 704 784 704 784 712 765 c 128,-1,38
 720 746 720 746 720 725 c 0,39,40
 720 705 720 705 712 685.5 c 128,-1,41
 704 666 704 666 690 652.5 c 128,-1,42
 676 639 676 639 657 630.5 c 128,-1,43
 638 622 638 622 617 622 c 2,44,-1
 513 622 l 1,45,-1
 513 518 l 2,46,47
 513 497 513 497 504.5 478.5 c 128,-1,48
 496 460 496 460 482.5 445.5 c 128,-1,49
 469 431 469 431 450 423 c 128,-1,50
 431 415 431 415 410 415 c 0,51,52
 386 415 386 415 367 423.5 c 128,-1,53
 348 432 348 432 334 446.5 c 128,-1,54
 320 461 320 461 313 479.5 c 128,-1,55
 306 498 306 498 306 518 c 2,56,-1
 306 622 l 1,57,-1
 201 622 l 2,58,59
 181 622 181 622 161.5 630.5 c 128,-1,60
 142 639 142 639 128.5 652.5 c 128,-1,61
 115 666 115 666 106.5 685.5 c 128,-1,62
 98 705 98 705 98 725 c 0,63,64
 98 746 98 746 106 765 c 128,-1,65
 114 784 114 784 128 798.5 c 128,-1,66
 142 813 142 813 161 821 c 128,-1,67
 180 829 180 829 201 829 c 2,68,-1
 306 829 l 1,69,-1
 306 882 l 1,70,-1
 306 933 l 2,22,23
EndSplineSet
EndChar
StartChar: acute
Encoding: 180 180 82
Width: 611
Flags: W
LayerCount: 2
Back
Fore
SplineSet
275 1276 m 2,0,1
 245 1245 245 1245 201 1245 c 256,2,3
 157 1245 157 1245 127.5 1274.5 c 128,-1,4
 98 1304 98 1304 98 1348 c 256,5,6
 98 1392 98 1392 129 1422 c 2,7,-1
 336 1629 l 1,8,9
 364 1660 364 1660 410 1660 c 0,10,11
 430 1660 430 1660 449.5 1651.5 c 128,-1,12
 469 1643 469 1643 482.5 1629.5 c 128,-1,13
 496 1616 496 1616 504.5 1596.5 c 128,-1,14
 513 1577 513 1577 513 1557 c 0,15,16
 513 1510 513 1510 483 1483 c 1,17,-1
 379 1379 l 1,18,-1
 275 1276 l 2,0,1
EndSplineSet
EndChar
StartChar: paragraph
Encoding: 182 182 178
Width: 1409
Flags: W
LayerCount: 2
Back
Fore
SplineSet
518 1452 m 1,0,-1
 526 1452 l 1,1,-1
 1221 1452 l 2,2,3
 1241 1452 1241 1452 1260.5 1444 c 128,-1,4
 1280 1436 1280 1436 1293.5 1421.5 c 128,-1,5
 1307 1407 1307 1407 1315.5 1388 c 128,-1,6
 1324 1369 1324 1369 1324 1348 c 0,7,8
 1324 1328 1324 1328 1315.5 1308.5 c 128,-1,9
 1307 1289 1307 1289 1293.5 1275.5 c 128,-1,10
 1280 1262 1280 1262 1260.5 1253.5 c 128,-1,11
 1241 1245 1241 1245 1221 1245 c 2,12,-1
 1118 1245 l 1,13,-1
 1118 -311 l 2,14,15
 1118 -332 1118 -332 1110 -351 c 128,-1,16
 1102 -370 1102 -370 1087.5 -384 c 128,-1,17
 1073 -398 1073 -398 1054 -406 c 128,-1,18
 1035 -414 1035 -414 1014 -414 c 0,19,20
 994 -414 994 -414 974.5 -405.5 c 128,-1,21
 955 -397 955 -397 941.5 -383.5 c 128,-1,22
 928 -370 928 -370 919.5 -350.5 c 128,-1,23
 911 -331 911 -331 911 -311 c 2,24,-1
 911 1245 l 1,25,-1
 630 1245 l 1,26,-1
 630 -311 l 2,27,28
 630 -332 630 -332 621.5 -351 c 128,-1,29
 613 -370 613 -370 599 -384 c 128,-1,30
 585 -398 585 -398 565.5 -406 c 128,-1,31
 546 -414 546 -414 526 -414 c 0,32,33
 505 -414 505 -414 486 -405.5 c 128,-1,34
 467 -397 467 -397 453 -383.5 c 128,-1,35
 439 -370 439 -370 431 -350.5 c 128,-1,36
 423 -331 423 -331 423 -311 c 2,37,-1
 423 422 l 1,38,39
 383 429 383 429 349 445 c 0,40,41
 272 479 272 479 218.5 544 c 128,-1,42
 165 609 165 609 136 706.5 c 128,-1,43
 107 804 107 804 107 931 c 0,44,45
 107 1065 107 1065 138.5 1163 c 128,-1,46
 170 1261 170 1261 225 1325 c 128,-1,47
 280 1389 280 1389 356 1419 c 0,48,49
 423 1446 423 1446 518 1452 c 1,0,-1
EndSplineSet
EndChar
StartChar: cedilla
Encoding: 184 184 80
Width: 819
Flags: W
LayerCount: 2
Back
Fore
SplineSet
306 -311 m 0,0,1
 306 -334 306 -334 314.5 -353 c 128,-1,2
 323 -372 323 -372 338 -385.5 c 128,-1,3
 353 -399 353 -399 371.5 -406.5 c 128,-1,4
 390 -414 390 -414 409 -414 c 0,5,6
 427 -414 427 -414 446 -406.5 c 128,-1,7
 465 -399 465 -399 479.5 -385.5 c 128,-1,8
 494 -372 494 -372 503.5 -353 c 128,-1,9
 513 -334 513 -334 513 -311 c 0,10,11
 513 -285 513 -285 503 -265.5 c 128,-1,12
 493 -246 493 -246 478 -232.5 c 128,-1,13
 463 -219 463 -219 445 -212.5 c 128,-1,14
 427 -206 427 -206 409 -206 c 0,15,16
 388 -206 388 -206 369 -198 c 128,-1,17
 350 -190 350 -190 336 -176 c 128,-1,18
 322 -162 322 -162 314 -143 c 128,-1,19
 306 -124 306 -124 306 -103 c 2,20,-1
 306 104 l 2,21,22
 306 125 306 125 314 144 c 128,-1,23
 322 163 322 163 336 177 c 128,-1,24
 350 191 350 191 369 199 c 128,-1,25
 388 207 388 207 409 207 c 0,26,27
 429 207 429 207 448.5 199 c 128,-1,28
 468 191 468 191 482 177 c 128,-1,29
 496 163 496 163 504.5 144 c 128,-1,30
 513 125 513 125 513 104 c 2,31,-1
 513 -17 l 1,32,33
 564 -33 564 -33 603 -64 c 128,-1,34
 642 -95 642 -95 668 -134.5 c 128,-1,35
 694 -174 694 -174 707 -219.5 c 128,-1,36
 720 -265 720 -265 720 -311 c 0,37,38
 720 -366 720 -366 699.5 -421.5 c 128,-1,39
 679 -477 679 -477 639 -521 c 128,-1,40
 599 -565 599 -565 541.5 -593 c 128,-1,41
 484 -621 484 -621 409 -621 c 0,42,43
 345 -621 345 -621 288.5 -597 c 128,-1,44
 232 -573 232 -573 189.5 -531 c 128,-1,45
 147 -489 147 -489 122.5 -432 c 128,-1,46
 98 -375 98 -375 98 -311 c 0,47,48
 98 -290 98 -290 106 -271 c 128,-1,49
 114 -252 114 -252 128 -237.5 c 128,-1,50
 142 -223 142 -223 161 -214.5 c 128,-1,51
 180 -206 180 -206 201 -206 c 0,52,53
 223 -206 223 -206 241.5 -214.5 c 128,-1,54
 260 -223 260 -223 274.5 -237.5 c 128,-1,55
 289 -252 289 -252 297.5 -270.5 c 128,-1,56
 306 -289 306 -289 306 -311 c 0,0,1
EndSplineSet
EndChar
StartChar: onesuperior
Encoding: 185 185 215
Width: 1087
Flags: W
LayerCount: 2
Back
Fore
SplineSet
443 574 m 1,0,-1
 396 1137 l 1,1,2
 288 1097 288 1097 227.5 1008.5 c 128,-1,3
 167 920 167 920 167 811 c 0,4,5
 167 739 167 739 194 675.5 c 128,-1,6
 221 612 221 612 268.5 564.5 c 128,-1,7
 316 517 316 517 378.5 490 c 128,-1,8
 441 463 441 463 511 463 c 0,9,10
 584 463 584 463 647.5 490 c 128,-1,11
 711 517 711 517 758 564.5 c 128,-1,12
 805 612 805 612 832 675.5 c 128,-1,13
 859 739 859 739 859 811 c 0,14,15
 859 920 859 920 795.5 1010.5 c 128,-1,16
 732 1101 732 1101 626 1139 c 1,17,-1
 586 574 l 1,18,-1
 443 574 l 1,0,-1
638 1318 m 1,19,20
 728 1296 728 1296 802 1247 c 128,-1,21
 876 1198 876 1198 928 1130 c 128,-1,22
 980 1062 980 1062 1008.5 979.5 c 128,-1,23
 1037 897 1037 897 1037 811 c 0,24,25
 1037 703 1037 703 994.5 608 c 128,-1,26
 952 513 952 513 880.5 441.5 c 128,-1,27
 809 370 809 370 713.5 329 c 128,-1,28
 618 288 618 288 511 288 c 0,29,30
 405 288 405 288 310 328.5 c 128,-1,31
 215 369 215 369 145 439 c 128,-1,32
 75 509 75 509 32.5 605 c 128,-1,33
 -10 701 -10 701 -10 811 c 0,34,35
 -10 897 -10 897 17 977.5 c 128,-1,36
 44 1058 44 1058 94 1125.5 c 128,-1,37
 144 1193 144 1193 218 1243.5 c 128,-1,38
 292 1294 292 1294 382 1318 c 1,39,-1
 370 1467 l 1,40,-1
 187 1467 l 1,41,-1
 674 1817 l 1,42,-1
 638 1318 l 1,19,20
386 1276 m 1,43,44
 304 1254 304 1254 238.5 1208 c 128,-1,45
 173 1162 173 1162 127 1099.5 c 128,-1,46
 81 1037 81 1037 55.5 962 c 128,-1,47
 30 887 30 887 30 811 c 0,48,49
 30 711 30 711 68.5 623.5 c 128,-1,50
 107 536 107 536 171.5 470.5 c 128,-1,51
 236 405 236 405 323.5 366.5 c 128,-1,52
 411 328 411 328 511 328 c 0,53,54
 612 328 612 328 699.5 366.5 c 128,-1,55
 787 405 787 405 852.5 470.5 c 128,-1,56
 918 536 918 536 956.5 623.5 c 128,-1,57
 995 711 995 711 995 811 c 0,58,59
 995 889 995 889 969.5 964 c 128,-1,60
 944 1039 944 1039 897.5 1100.5 c 128,-1,61
 851 1162 851 1162 784.5 1208 c 128,-1,62
 718 1254 718 1254 636 1276 c 1,63,-1
 628 1181 l 1,64,65
 755 1139 755 1139 827 1038.5 c 128,-1,66
 899 938 899 938 899 811 c 0,67,68
 899 730 899 730 868 660 c 128,-1,69
 837 590 837 590 784.5 537 c 128,-1,70
 732 484 732 484 662 453.5 c 128,-1,71
 592 423 592 423 511 423 c 0,72,73
 432 423 432 423 362 453.5 c 128,-1,74
 292 484 292 484 238.5 537 c 128,-1,75
 185 590 185 590 155 660 c 128,-1,76
 125 730 125 730 125 811 c 0,77,78
 125 936 125 936 197 1038.5 c 128,-1,79
 269 1141 269 1141 394 1179 c 1,80,-1
 386 1276 l 1,43,44
680 211 m 0,81,82
 759 181 759 181 829 181 c 0,83,84
 906 181 906 181 989 225 c 1,85,-1
 989 42 l 1,86,87
 948 20 948 20 911 12 c 128,-1,88
 874 4 874 4 835 4 c 0,89,90
 797 4 797 4 757.5 13.5 c 128,-1,91
 718 23 718 23 678 34.5 c 128,-1,92
 638 46 638 46 597.5 55.5 c 128,-1,93
 557 65 557 65 521 65 c 0,94,95
 453 65 453 65 388 36 c 2,96,-1
 359 23 l 1,97,-1
 359 201 l 1,98,99
 394 225 394 225 432.5 235.5 c 128,-1,100
 471 246 471 246 509 246 c 0,101,102
 551 246 551 246 593.5 236.5 c 128,-1,103
 636 227 636 227 680 211 c 0,81,82
401 179 m 1,104,-1
 401 85 l 1,105,106
 430 96 430 96 459.5 101.5 c 128,-1,107
 489 107 489 107 519 107 c 0,108,109
 557 107 557 107 596.5 96.5 c 128,-1,110
 636 86 636 86 676 74 c 128,-1,111
 716 62 716 62 756.5 52 c 128,-1,112
 797 42 797 42 837 42 c 0,113,114
 891 42 891 42 946 67 c 1,115,-1
 946 157 l 1,116,117
 897 137 897 137 841 137 c 0,118,119
 799 137 799 137 756.5 148 c 128,-1,120
 714 159 714 159 674 171 c 128,-1,121
 634 183 634 183 592.5 194 c 128,-1,122
 551 205 551 205 509 205 c 0,123,124
 451 205 451 205 401 179 c 1,104,-1
EndSplineSet
EndChar
StartChar: guillemotright
Encoding: 187 187 191
Width: 1719
Flags: W
LayerCount: 2
Back
Fore
SplineSet
267 19 m 2,0,1
 241 1 241 1 209 1 c 0,2,3
 187 1 187 1 167.5 10 c 128,-1,4
 148 19 148 19 134.5 33 c 128,-1,5
 121 47 121 47 113.5 66 c 128,-1,6
 106 85 106 85 106 103 c 0,7,8
 105 132 105 132 118 155 c 128,-1,9
 131 178 131 178 151 192 c 2,10,-1
 645 520 l 1,11,-1
 151 848 l 2,12,13
 131 862 131 862 118.5 885.5 c 128,-1,14
 106 909 106 909 106 938 c 0,15,16
 106 956 106 956 113.5 974.5 c 128,-1,17
 121 993 121 993 134.5 1006.5 c 128,-1,18
 148 1020 148 1020 167 1029 c 128,-1,19
 186 1038 186 1038 208 1038 c 0,20,21
 243 1038 243 1038 267 1021 c 2,22,-1
 887 607 l 1,23,24
 906 596 906 596 921.5 573.5 c 128,-1,25
 937 551 937 551 937 524 c 0,26,27
 937 495 937 495 925 472 c 128,-1,28
 913 449 913 449 889 433 c 2,29,-1
 578 226 l 1,30,-1
 267 19 l 2,0,1
956 19 m 2,31,32
 930 1 930 1 898 1 c 0,33,34
 876 1 876 1 856.5 10 c 128,-1,35
 837 19 837 19 823.5 33 c 128,-1,36
 810 47 810 47 802.5 66 c 128,-1,37
 795 85 795 85 795 103 c 0,38,39
 794 132 794 132 807 155 c 128,-1,40
 820 178 820 178 840 192 c 2,41,-1
 1334 520 l 1,42,-1
 840 848 l 2,43,44
 820 862 820 862 807.5 885.5 c 128,-1,45
 795 909 795 909 795 938 c 0,46,47
 795 956 795 956 802.5 974.5 c 128,-1,48
 810 993 810 993 823.5 1006.5 c 128,-1,49
 837 1020 837 1020 856 1029 c 128,-1,50
 875 1038 875 1038 897 1038 c 0,51,52
 932 1038 932 1038 956 1021 c 2,53,-1
 1576 607 l 1,54,55
 1595 596 1595 596 1610 573.5 c 128,-1,56
 1625 551 1625 551 1625 524 c 0,57,58
 1625 495 1625 495 1613.5 472 c 128,-1,59
 1602 449 1602 449 1578 433 c 2,60,-1
 1267 226 l 1,61,-1
 956 19 l 2,31,32
EndSplineSet
EndChar
StartChar: onequarter
Encoding: 188 188 214
Width: 2965
Flags: W
LayerCount: 2
Back
Fore
SplineSet
1772 25 m 1,0,-1
 1759 27 l 1,1,-1
 1728 32 l 1,2,-1
 1711 38 l 1,3,4
 1697 30 1697 30 1687 30 c 2,5,-1
 1634 34 l 1,6,-1
 1513 30 l 1,7,-1
 1387 27 l 1,8,-1
 1340 34 l 1,9,-1
 1302 48 l 1,10,-1
 1302 54 l 1,11,12
 1282 46 1282 46 1258 42 c 128,-1,13
 1234 38 1234 38 1200 38 c 1,14,-1
 1083 34 l 1,15,-1
 1039 34 l 1,16,17
 1029 36 1029 36 989 36 c 2,18,-1
 916 36 l 1,19,-1
 837 36 l 2,20,21
 833 36 833 36 827.5 35 c 128,-1,22
 822 34 822 34 818 34 c 2,23,-1
 801 34 l 1,24,-1
 785 34 l 1,25,-1
 777 27 l 1,26,27
 761 25 761 25 737.5 24 c 128,-1,28
 714 23 714 23 687 23 c 2,29,-1
 668 23 l 1,30,-1
 647 23 l 2,31,32
 643 23 643 23 638.5 21.5 c 128,-1,33
 634 20 634 20 624 18 c 1,34,-1
 606 18 l 1,35,-1
 582 18 l 1,36,-1
 512 18 l 1,37,-1
 476 18 l 1,38,-1
 441 18 l 1,39,40
 437 23 437 23 419 23 c 2,41,-1
 393 23 l 1,42,-1
 313 18 l 1,43,44
 296 14 296 14 272 14 c 1,45,-1
 234 12 l 1,46,-1
 228 14 l 1,47,-1
 213 16 l 1,48,-1
 196 16 l 1,49,-1
 188 16 l 1,50,-1
 176 18 l 1,51,-1
 136 12 l 1,52,-1
 93 12 l 1,53,-1
 57 18 l 1,54,55
 40 28 40 28 40 52 c 1,56,-1
 44 90 l 1,57,58
 103 109 103 109 246 127 c 1,59,60
 395 144 395 144 451 161 c 1,61,-1
 489 165 l 1,62,-1
 524 165 l 1,63,-1
 606 177 l 1,64,65
 630 185 630 185 649 191.5 c 128,-1,66
 668 198 668 198 683 205 c 1,67,68
 712 225 712 225 712 248 c 1,69,-1
 705 298 l 1,70,-1
 703 356 l 1,71,72
 703 484 703 484 768 584 c 0,73,74
 803 638 803 638 848.5 685 c 128,-1,75
 894 732 894 732 966 797 c 1,76,77
 973 809 973 809 989 813 c 1,78,79
 1010 831 1010 831 1012 845 c 1,80,81
 1023 849 1023 849 1032 859.5 c 128,-1,82
 1041 870 1041 870 1041 885 c 1,83,-1
 1049 914 l 1,84,-1
 1052 922 l 1,85,86
 1059 930 1059 930 1063 931 c 128,-1,87
 1067 932 1067 932 1071 934 c 2,88,-1
 1166 989 l 1,89,-1
 1238 1031 l 1,90,-1
 1246 1047 l 1,91,-1
 1246 1056 l 1,92,-1
 1244 1066 l 1,93,94
 1250 1091 1250 1091 1258 1103 c 1,95,96
 1273 1119 1273 1119 1275 1133 c 1,97,-1
 1290 1177 l 2,98,99
 1317 1254 1317 1254 1338 1274 c 1,100,-1
 1349 1296 l 1,101,-1
 1363 1323 l 1,102,-1
 1387 1367 l 1,103,-1
 1423 1421 l 1,104,-1
 1446 1427 l 1,105,106
 1455 1419 1455 1419 1455 1405 c 1,107,-1
 1453 1398 l 1,108,-1
 1453 1391 l 1,109,-1
 1459 1375 l 1,110,-1
 1463 1367 l 1,111,-1
 1471 1385 l 2,112,113
 1476 1394 1476 1394 1479 1402.5 c 128,-1,114
 1482 1411 1482 1411 1482 1421 c 1,115,-1
 1500 1415 l 1,116,-1
 1504 1365 l 1,117,-1
 1508 1306 l 1,118,-1
 1504 1266 l 1,119,120
 1509 1258 1509 1258 1520 1256 c 1,121,-1
 1538 1244 l 1,122,-1
 1552 1238 l 1,123,-1
 1588 1223 l 1,124,-1
 1615 1214 l 1,125,-1
 1615 1208 l 1,126,-1
 1621 1208 l 1,127,-1
 1628 1187 l 1,128,-1
 1645 1149 l 1,129,-1
 1651 1135 l 2,130,131
 1659 1115 1659 1115 1680 1103 c 1,132,-1
 1687 1095 l 1,133,-1
 1687 1079 l 1,134,-1
 1687 1058 l 2,135,136
 1687 1012 1687 1012 1675 995 c 1,137,-1
 1677 984 l 1,138,-1
 1669 970 l 1,139,-1
 1663 964 l 1,140,141
 1638 954 1638 954 1618 951 c 128,-1,142
 1598 948 1598 948 1582 948 c 2,143,-1
 1482 946 l 1,144,-1
 1476 880 l 1,145,-1
 1469 835 l 1,146,-1
 1469 813 l 1,147,-1
 1471 799 l 1,148,-1
 1471 781 l 1,149,150
 1476 761 1476 761 1476 739 c 1,151,-1
 1471 678 l 1,152,-1
 1463 614 l 1,153,-1
 1446 530 l 1,154,-1
 1446 499 l 1,155,-1
 1490 491 l 1,156,-1
 1542 481 l 1,157,158
 1558 481 1558 481 1584 471 c 1,159,-1
 1626 457 l 1,160,-1
 1675 438 l 1,161,-1
 1687 372 l 1,162,-1
 1667 344 l 1,163,-1
 1586 352 l 1,164,-1
 1522 392 l 1,165,-1
 1436 399 l 1,166,-1
 1427 225 l 1,167,-1
 1467 196 l 1,168,-1
 1471 163 l 1,169,-1
 1478 161 l 1,170,171
 1484 161 1484 161 1503 161 c 128,-1,172
 1522 161 1522 161 1546 158 c 128,-1,173
 1570 155 1570 155 1596 148.5 c 128,-1,174
 1622 142 1622 142 1647 131 c 1,175,-1
 1657 96 l 1,176,-1
 1667 79 l 1,177,-1
 1687 62 l 1,178,-1
 1693 65 l 1,179,-1
 1705 65 l 1,180,-1
 1747 60 l 1,181,-1
 1788 54 l 1,182,183
 1792 75 1792 75 1805 94 c 1,184,-1
 1816 98 l 1,185,-1
 1846 177 l 1,186,-1
 1852 194 l 1,187,188
 1882 194 1882 194 1905 196.5 c 128,-1,189
 1928 199 1928 199 1949 203 c 1,190,191
 1987 219 1987 219 1987 248 c 1,192,-1
 1957 280 l 1,193,-1
 1924 328 l 1,194,-1
 1735 344 l 1,195,-1
 1741 394 l 1,196,-1
 1741 475 l 1,197,-1
 1741 590 l 1,198,-1
 1743 695 l 1,199,-1
 1745 787 l 1,200,-1
 1749 859 l 1,201,-1
 1778 1012 l 1,202,203
 1790 1052 1790 1052 1805 1096.5 c 128,-1,204
 1820 1141 1820 1141 1842 1187 c 1,205,-1
 1897 1290 l 1,206,-1
 1961 1391 l 1,207,-1
 1966 1411 l 1,208,-1
 1974 1427 l 1,209,-1
 2015 1423 l 1,210,211
 2041 1417 2041 1417 2068 1408.5 c 128,-1,212
 2095 1400 2095 1400 2126 1391 c 1,213,214
 2214 1352 2214 1352 2262 1352 c 1,215,-1
 2254 1308 l 1,216,217
 2245 1282 2245 1282 2245 1264 c 1,218,-1
 2325 1220 l 1,219,-1
 2416 1164 l 1,220,-1
 2564 1068 l 1,221,-1
 2667 1000 l 1,222,-1
 2832 885 l 1,223,-1
 2888 849 l 1,224,-1
 2932 827 l 1,225,-1
 2917 741 l 1,226,-1
 2888 620 l 1,227,-1
 2865 541 l 1,228,-1
 2846 457 l 2,229,230
 2838 425 2838 425 2835 390.5 c 128,-1,231
 2832 356 2832 356 2832 320 c 1,232,-1
 2669 316 l 1,233,-1
 2661 304 l 1,234,-1
 2619 288 l 1,235,-1
 2587 265 l 1,236,237
 2567 248 2567 248 2544 236 c 1,238,-1
 2554 194 l 1,239,240
 2567 167 2567 167 2577 163 c 1,241,-1
 2661 157 l 1,242,-1
 2665 133 l 1,243,-1
 2671 121 l 1,244,245
 2707 121 2707 121 2734 121 c 128,-1,246
 2761 121 2761 121 2780 125 c 1,247,248
 2782 121 2782 121 2794 121 c 1,249,250
 2818 113 2818 113 2824 94 c 1,251,-1
 2820 62 l 1,252,253
 2808 40 2808 40 2798 36 c 1,254,-1
 2758 25 l 2,255,256
 2711 12 2711 12 2702 2 c 1,257,258
 2627 -8 2627 -8 2550.5 -13 c 128,-1,259
 2474 -18 2474 -18 2389 -18 c 1,260,-1
 2118 -8 l 1,261,-1
 1772 25 l 1,0,-1
1315 102 m 1,262,263
 1340 121 1340 121 1340 139 c 1,264,-1
 1327 169 l 1,265,-1
 1317 201 l 1,266,-1
 1313 244 l 1,267,-1
 1313 284 l 1,268,-1
 1311 320 l 1,269,270
 1300 324 1300 324 1294 342 c 1,271,-1
 1290 384 l 1,272,-1
 1286 388 l 1,273,274
 1277 411 1277 411 1262 411 c 1,275,-1
 1250 413 l 1,276,277
 1282 352 1282 352 1282 292 c 1,278,-1
 1277 257 l 1,279,-1
 1269 232 l 1,280,281
 1252 203 1252 203 1222 196 c 1,282,-1
 1220 183 l 1,283,-1
 1210 183 l 1,284,-1
 1222 171 l 1,285,-1
 1230 171 l 1,286,-1
 1240 173 l 1,287,288
 1258 171 1258 171 1275 155 c 1,289,-1
 1290 135 l 1,290,291
 1302 123 1302 123 1304 113 c 1,292,-1
 1315 102 l 1,262,263
1895 34 m 1,293,294
 2081 16 2081 16 2190 16 c 1,295,-1
 2289 12 l 1,296,-1
 2321 12 l 1,297,-1
 2446 14 l 1,298,-1
 2556 25 l 1,299,-1
 2564 30 l 1,300,-1
 2542 36 l 1,301,302
 2536 36 2536 36 2528 37 c 128,-1,303
 2520 38 2520 38 2508 38 c 1,304,305
 2484 42 2484 42 2458.5 45 c 128,-1,306
 2433 48 2433 48 2406 48 c 1,307,308
 2365 54 2365 54 2358 54 c 2,309,-1
 2333 54 l 1,310,-1
 2273 54 l 1,311,-1
 2137 54 l 2,312,313
 2039 54 2039 54 1972 48 c 128,-1,314
 1905 42 1905 42 1895 34 c 1,293,294
2702 54 m 1,315,-1
 2738 71 l 1,316,-1
 2738 79 l 1,317,-1
 2698 79 l 1,318,-1
 2702 54 l 1,315,-1
88 48 m 1,319,-1
 121 48 l 1,320,-1
 167 48 l 2,321,322
 232 48 232 48 266 34 c 1,323,324
 282 38 282 38 303 40 c 128,-1,325
 324 42 324 42 349 42 c 1,326,327
 380 46 380 46 413.5 45 c 128,-1,328
 447 44 447 44 487 44 c 1,329,330
 495 46 495 46 508.5 47 c 128,-1,331
 522 48 522 48 543 48 c 2,332,-1
 600 48 l 1,333,-1
 637 52 l 1,334,-1
 701 54 l 2,335,336
 711 54 711 54 724 53 c 128,-1,337
 737 52 737 52 766 48 c 1,338,-1
 797 62 l 1,339,-1
 1019 67 l 1,340,-1
 1039 67 l 1,341,-1
 1186 71 l 1,342,-1
 1186 111 l 1,343,-1
 1202 111 l 1,344,345
 1202 98 1202 98 1206 90 c 2,346,-1
 1214 71 l 1,347,-1
 1222 67 l 1,348,-1
 1250 67 l 1,349,-1
 1258 75 l 1,350,351
 1280 75 1280 75 1286 88 c 1,352,353
 1282 100 1282 100 1282 109 c 1,354,-1
 1277 131 l 1,355,356
 1273 137 1273 137 1266.5 142 c 128,-1,357
 1260 147 1260 147 1250 157 c 1,358,-1
 1194 163 l 1,359,360
 1182 169 1182 169 1167 169 c 1,361,-1
 1131 163 l 1,362,-1
 1102 157 l 1,363,-1
 1102 163 l 1,364,-1
 1150 185 l 1,365,-1
 1192 209 l 2,366,367
 1208 217 1208 217 1218 225.5 c 128,-1,368
 1228 234 1228 234 1238 242 c 1,369,370
 1269 276 1269 276 1269 310 c 0,371,372
 1269 338 1269 338 1250 380 c 1,373,374
 1214 423 1214 423 1186 438 c 1,375,376
 1167 451 1167 451 1150 459 c 0,377,378
 1142 463 1142 463 1134.5 465 c 128,-1,379
 1127 467 1127 467 1117 469 c 1,380,-1
 1121 475 l 1,381,382
 1164 475 1164 475 1202 453 c 1,383,-1
 1222 590 l 1,384,-1
 1230 586 l 1,385,-1
 1230 561 l 1,386,-1
 1230 469 l 1,387,-1
 1230 453 l 1,388,-1
 1238 445 l 1,389,-1
 1242 432 l 1,390,-1
 1319 427 l 1,391,-1
 1417 419 l 1,392,-1
 1467 413 l 1,393,-1
 1508 409 l 1,394,-1
 1532 403 l 1,395,-1
 1542 399 l 1,396,-1
 1554 399 l 1,397,-1
 1554 392 l 1,398,-1
 1568 392 l 1,399,-1
 1563 384 l 1,400,-1
 1590 376 l 1,401,402
 1603 367 1603 367 1621 367 c 1,403,404
 1632 363 1632 363 1655 363 c 1,405,406
 1651 367 1651 367 1651 392 c 1,407,-1
 1645 421 l 1,408,409
 1630 425 1630 425 1619.5 428.5 c 128,-1,410
 1609 432 1609 432 1596 438 c 2,411,-1
 1556 457 l 1,412,-1
 1522 461 l 1,413,414
 1502 473 1502 473 1459 479 c 1,415,-1
 1409 493 l 1,416,-1
 1373 507 l 1,417,-1
 1377 526 l 1,418,-1
 1401 594 l 1,419,-1
 1411 618 l 1,420,-1
 1427 640 l 1,421,422
 1459 693 1459 693 1459 739 c 1,423,-1
 1450 811 l 1,424,425
 1444 835 1444 835 1444 853 c 1,426,-1
 1442 883 l 1,427,428
 1442 930 1442 930 1463 964 c 1,429,-1
 1621 974 l 1,430,-1
 1651 995 l 1,431,-1
 1651 1006 l 1,432,-1
 1645 1006 l 1,433,-1
 1647 1018 l 1,434,-1
 1647 1026 l 1,435,-1
 1657 1043 l 1,436,-1
 1657 1051 l 1,437,-1
 1661 1058 l 1,438,-1
 1657 1085 l 1,439,-1
 1655 1095 l 1,440,-1
 1615 1135 l 1,441,-1
 1611 1115 l 1,442,-1
 1594 1110 l 1,443,-1
 1542 1131 l 1,444,-1
 1513 1151 l 1,445,-1
 1603 1177 l 1,446,-1
 1594 1202 l 1,447,-1
 1513 1238 l 1,448,-1
 1504 1227 l 1,449,-1
 1471 1266 l 1,450,-1
 1459 1306 l 1,451,-1
 1438 1302 l 1,452,-1
 1438 1231 l 1,453,-1
 1431 1231 l 1,454,455
 1423 1248 1423 1248 1423 1276 c 2,456,-1
 1423 1375 l 1,457,-1
 1399 1342 l 1,458,-1
 1267 1087 l 1,459,-1
 1258 1018 l 1,460,-1
 1085 914 l 1,461,-1
 1029 817 l 1,462,-1
 995 787 l 1,463,464
 856 686 856 686 790.5 566.5 c 128,-1,465
 725 447 725 447 725 320 c 1,466,-1
 733 225 l 1,467,-1
 701 183 l 1,468,469
 643 167 643 167 561.5 153 c 128,-1,470
 480 139 480 139 369 125 c 1,471,-1
 205 98 l 1,472,-1
 77 75 l 1,473,-1
 77 58 l 1,474,-1
 85 48 l 1,475,-1
 88 48 l 1,319,-1
1387 48 m 1,476,-1
 1542 54 l 1,477,-1
 1619 54 l 1,478,-1
 1630 54 l 1,479,-1
 1634 58 l 1,480,-1
 1634 85 l 1,481,-1
 1626 88 l 1,482,-1
 1538 102 l 1,483,-1
 1518 135 l 1,484,-1
 1463 131 l 1,485,-1
 1423 127 l 1,486,-1
 1373 125 l 1,487,-1
 1338 79 l 1,488,-1
 1335 62 l 1,489,-1
 1387 48 l 1,476,-1
1838 90 m 1,490,-1
 2017 81 l 2,491,492
 2033 81 2033 81 2054.5 81 c 128,-1,493
 2076 81 2076 81 2104 79 c 1,494,-1
 2189 79 l 1,495,-1
 2391 71 l 1,496,-1
 2536 65 l 1,497,-1
 2594 67 l 1,498,-1
 2653 67 l 1,499,-1
 2617 135 l 1,500,-1
 2237 157 l 1,501,-1
 1884 167 l 1,502,-1
 1872 142 l 1,503,-1
 1858 121 l 1,504,-1
 1838 90 l 1,490,-1
1387 147 m 1,505,-1
 1421 149 l 1,506,-1
 1446 161 l 1,507,-1
 1450 167 l 1,508,-1
 1446 190 l 1,509,-1
 1399 207 l 1,510,511
 1405 215 1405 215 1405 232 c 2,512,-1
 1407 267 l 1,513,-1
 1409 399 l 1,514,-1
 1395 396 l 1,515,-1
 1319 399 l 1,516,517
 1317 396 1317 396 1317 386 c 2,518,-1
 1317 374 l 1,519,-1
 1323 328 l 1,520,-1
 1338 267 l 1,521,522
 1359 207 1359 207 1359 179 c 1,523,-1
 1365 171 l 1,524,-1
 1365 163 l 1,525,-1
 1381 157 l 1,526,-1
 1387 147 l 1,505,-1
2001 199 m 1,527,528
 2112 175 2112 175 2202 175 c 0,529,530
 2218 175 2218 175 2240 175 c 128,-1,531
 2262 175 2262 175 2291 173 c 0,532,533
 2319 171 2319 171 2338.5 171 c 128,-1,534
 2358 171 2358 171 2369 171 c 2,535,-1
 2520 171 l 1,536,-1
 2500 219 l 1,537,-1
 2391 236 l 1,538,-1
 2015 240 l 1,539,-1
 2001 199 l 1,527,528
1964 304 m 1,540,541
 1972 300 1972 300 1984.5 297 c 128,-1,542
 1997 294 1997 294 2013 288 c 1,543,544
 2031 284 2031 284 2075.5 275.5 c 128,-1,545
 2120 267 2120 267 2190 267 c 1,546,-1
 2339 263 l 1,547,-1
 2531 261 l 1,548,-1
 2583 316 l 1,549,-1
 2560 318 l 1,550,-1
 2335 336 l 1,551,-1
 2174 340 l 1,552,-1
 2055 338 l 1,553,-1
 1957 328 l 1,554,-1
 1964 304 l 1,540,541
2371 367 m 1,555,-1
 2600 356 l 1,556,-1
 2800 344 l 1,557,-1
 2846 549 l 1,558,-1
 2876 695 l 1,559,-1
 2905 809 l 1,560,-1
 2756 908 l 1,561,-1
 2550 1043 l 2,562,563
 2504 1073 2504 1073 2467.5 1097 c 128,-1,564
 2431 1121 2431 1121 2404 1137 c 0,565,566
 2381 1151 2381 1151 2353 1168 c 128,-1,567
 2325 1185 2325 1185 2289 1208 c 1,568,-1
 2237 1244 l 1,569,-1
 2019 388 l 1,570,-1
 2116 386 l 1,571,-1
 2273 380 l 1,572,-1
 2323 378 l 1,573,-1
 2371 367 l 1,555,-1
1763 376 m 1,574,-1
 1979 348 l 1,575,-1
 2055 620 l 1,576,577
 2128 855 2128 855 2164 1006 c 1,578,-1
 2202 1173 l 1,579,580
 2216 1229 2216 1229 2226 1318 c 1,581,582
 2222 1329 2222 1329 2194 1337 c 1,583,-1
 2118 1365 l 1,584,-1
 2049 1389 l 1,585,-1
 2015 1402 l 1,586,-1
 1983 1379 l 1,587,588
 1943 1229 1943 1229 1910.5 1100.5 c 128,-1,589
 1878 972 1878 972 1852 859 c 0,590,591
 1826 745 1826 745 1804 631 c 128,-1,592
 1782 517 1782 517 1763 396 c 1,593,-1
 1763 376 l 1,574,-1
1395 521 m 1,594,595
 1399 509 1399 509 1405 507 c 128,-1,596
 1411 505 1411 505 1427 505 c 1,597,-1
 1427 594 l 1,598,-1
 1417 594 l 1,599,-1
 1395 521 l 1,594,595
1928 1286 m 1,600,601
 1918 1276 1918 1276 1907.5 1261 c 128,-1,602
 1897 1246 1897 1246 1886 1229 c 1,603,-1
 1848 1154 l 1,604,605
 1832 1119 1832 1119 1819.5 1076 c 128,-1,606
 1807 1033 1807 1033 1795 978 c 1,607,-1
 1780 878 l 1,608,-1
 1772 783 l 1,609,-1
 1765 670 l 1,610,-1
 1763 586 l 1,611,-1
 1928 1286 l 1,600,601
2152 751 m 1,612,-1
 2178 870 l 1,613,614
 2184 866 2184 866 2194 866 c 128,-1,615
 2204 866 2204 866 2216 866 c 1,616,-1
 2237 864 l 1,617,-1
 2204 741 l 1,618,-1
 2152 751 l 1,612,-1
2164 768 m 1,619,-1
 2194 763 l 1,620,-1
 2212 849 l 1,621,-1
 2189 859 l 1,622,-1
 2164 768 l 1,619,-1
2190 910 m 1,623,-1
 2200 939 l 1,624,625
 2224 1002 2224 1002 2224 1037 c 1,626,-1
 2260 1033 l 1,627,-1
 2285 1031 l 1,628,-1
 2291 1031 l 1,629,-1
 2248 902 l 1,630,-1
 2190 910 l 1,623,-1
2212 928 m 1,631,-1
 2220 922 l 1,632,633
 2228 918 2228 918 2237 918 c 1,634,-1
 2250 968 l 1,635,-1
 2260 1004 l 1,636,-1
 2262 1014 l 1,637,-1
 2241 1022 l 1,638,-1
 2212 928 l 1,631,-1
1536 1151 m 1,639,-1
 1598 1131 l 1,640,-1
 1605 1145 l 1,641,-1
 1603 1154 l 1,642,-1
 1598 1164 l 1,643,-1
 1536 1151 l 1,639,-1
EndSplineSet
EndChar
StartChar: questiondown
Encoding: 191 191 181
Width: 1026
Flags: W
LayerCount: 2
Back
Fore
SplineSet
720 416 m 0,0,1
 720 437 720 437 728.5 456 c 128,-1,2
 737 475 737 475 751.5 489 c 128,-1,3
 766 503 766 503 784.5 511.5 c 128,-1,4
 803 520 803 520 825 520 c 0,5,6
 846 520 846 520 864.5 511.5 c 128,-1,7
 883 503 883 503 897.5 489 c 128,-1,8
 912 475 912 475 920 456 c 128,-1,9
 928 437 928 437 928 416 c 0,10,11
 928 347 928 347 909.5 291.5 c 128,-1,12
 891 236 891 236 862 192.5 c 128,-1,13
 833 149 833 149 797 117 c 128,-1,14
 761 85 761 85 723.5 62.5 c 128,-1,15
 686 40 686 40 652 27.5 c 128,-1,16
 618 15 618 15 595 10 c 0,17,18
 575 6 575 6 555 3.5 c 128,-1,19
 535 1 535 1 513 1 c 0,20,21
 442 1 442 1 377 24.5 c 128,-1,22
 312 48 312 48 257.5 92 c 128,-1,23
 203 136 203 136 164 197 c 128,-1,24
 125 258 125 258 106 335 c 0,25,26
 98 371 98 371 98 416 c 0,27,28
 98 527 98 527 136 601 c 128,-1,29
 174 675 174 675 230 717 c 1,30,31
 238 725 238 725 252.5 736.5 c 128,-1,32
 267 748 267 748 284.5 761 c 128,-1,33
 302 774 302 774 320 790 c 128,-1,34
 338 806 338 806 353 823 c 0,35,36
 409 886 409 886 409 947 c 0,37,38
 409 969 409 969 417.5 987.5 c 128,-1,39
 426 1006 426 1006 440 1020.5 c 128,-1,40
 454 1035 454 1035 473 1043 c 128,-1,41
 492 1051 492 1051 513 1051 c 256,42,43
 534 1051 534 1051 552.5 1043 c 128,-1,44
 571 1035 571 1035 585 1021 c 128,-1,45
 599 1007 599 1007 607.5 988.5 c 128,-1,46
 616 970 616 970 616 947 c 0,47,48
 616 876 616 876 592 817.5 c 128,-1,49
 568 759 568 759 532 712.5 c 128,-1,50
 496 666 496 666 454 631 c 128,-1,51
 412 596 412 596 375 569 c 1,52,-1
 376 569 l 1,53,54
 374 568 374 568 371 565 c 0,55,56
 370 563 370 563 366 560.5 c 128,-1,57
 362 558 362 558 356 554 c 0,58,59
 330 533 330 533 318 496.5 c 128,-1,60
 306 460 306 460 306 416 c 256,61,62
 306 372 306 372 318 341.5 c 128,-1,63
 330 311 330 311 346.5 290 c 128,-1,64
 363 269 363 269 378 258 c 128,-1,65
 393 247 393 247 398 243 c 0,66,67
 429 222 429 222 455.5 215 c 128,-1,68
 482 208 482 208 513 208 c 0,69,70
 541 208 541 208 564 212.5 c 128,-1,71
 587 217 587 217 607.5 228 c 128,-1,72
 628 239 628 239 647 256.5 c 128,-1,73
 666 274 666 274 686 301 c 0,74,75
 693 310 693 310 699.5 324.5 c 128,-1,76
 706 339 706 339 710 355 c 128,-1,77
 714 371 714 371 717 387 c 128,-1,78
 720 403 720 403 720 416 c 0,0,1
403 1349 m 2,79,80
 403 1372 403 1372 411.5 1390.5 c 128,-1,81
 420 1409 420 1409 433.5 1423 c 128,-1,82
 447 1437 447 1437 466 1444.5 c 128,-1,83
 485 1452 485 1452 506 1452 c 0,84,85
 550 1452 550 1452 579.5 1423 c 128,-1,86
 609 1394 609 1394 609 1349 c 2,87,-1
 609 1347 l 2,88,89
 609 1326 609 1326 601.5 1307 c 128,-1,90
 594 1288 594 1288 580 1274.5 c 128,-1,91
 566 1261 566 1261 547.5 1252.5 c 128,-1,92
 529 1244 529 1244 506 1244 c 0,93,94
 485 1244 485 1244 466.5 1252 c 128,-1,95
 448 1260 448 1260 434 1273.5 c 128,-1,96
 420 1287 420 1287 411.5 1306 c 128,-1,97
 403 1325 403 1325 403 1347 c 2,98,-1
 403 1348 l 1,99,-1
 403 1349 l 2,79,80
EndSplineSet
EndChar
StartChar: Ccedilla
Encoding: 199 199 121
Width: 1186
Flags: W
LayerCount: 2
Back
Fore
SplineSet
489 -311 m 0,0,1
 489 -334 489 -334 498 -353 c 128,-1,2
 507 -372 507 -372 522 -385.5 c 128,-1,3
 537 -399 537 -399 555.5 -406.5 c 128,-1,4
 574 -414 574 -414 593 -414 c 0,5,6
 611 -414 611 -414 630 -406.5 c 128,-1,7
 649 -399 649 -399 663.5 -385.5 c 128,-1,8
 678 -372 678 -372 687.5 -353 c 128,-1,9
 697 -334 697 -334 697 -311 c 0,10,11
 697 -285 697 -285 687 -265.5 c 128,-1,12
 677 -246 677 -246 662 -232.5 c 128,-1,13
 647 -219 647 -219 628.5 -212.5 c 128,-1,14
 610 -206 610 -206 593 -206 c 0,15,16
 572 -206 572 -206 553 -198 c 128,-1,17
 534 -190 534 -190 520 -176 c 128,-1,18
 506 -162 506 -162 497.5 -143 c 128,-1,19
 489 -124 489 -124 489 -103 c 2,20,-1
 489 12 l 1,21,22
 391 31 391 31 317.5 83.5 c 128,-1,23
 244 136 244 136 195 223.5 c 128,-1,24
 146 311 146 311 122 436 c 128,-1,25
 98 561 98 561 98 726 c 0,26,27
 98 824 98 824 107.5 915.5 c 128,-1,28
 117 1007 117 1007 140 1087.5 c 128,-1,29
 163 1168 163 1168 201.5 1235.5 c 128,-1,30
 240 1303 240 1303 297.5 1351 c 128,-1,31
 355 1399 355 1399 434 1425.5 c 128,-1,32
 513 1452 513 1452 617 1452 c 0,33,34
 690 1452 690 1452 757 1432.5 c 128,-1,35
 824 1413 824 1413 881 1378.5 c 128,-1,36
 938 1344 938 1344 983.5 1298 c 128,-1,37
 1029 1252 1029 1252 1060 1198 c 0,38,39
 1075 1171 1075 1171 1075 1146 c 0,40,41
 1075 1123 1075 1123 1066 1104 c 128,-1,42
 1057 1085 1057 1085 1043 1071 c 128,-1,43
 1029 1057 1029 1057 1010.5 1050 c 128,-1,44
 992 1043 992 1043 972 1043 c 0,45,46
 943 1043 943 1043 925 1054 c 128,-1,47
 907 1065 907 1065 892.5 1082.5 c 128,-1,48
 878 1100 878 1100 864.5 1119.5 c 128,-1,49
 851 1139 851 1139 833 1157 c 1,50,51
 787 1198 787 1198 733 1221.5 c 128,-1,52
 679 1245 679 1245 617 1245 c 0,53,54
 523 1245 523 1245 462.5 1211.5 c 128,-1,55
 402 1178 402 1178 367 1112.5 c 128,-1,56
 332 1047 332 1047 319 950 c 128,-1,57
 306 853 306 853 306 726 c 0,58,59
 306 584 306 584 322 485 c 128,-1,60
 338 386 338 386 375 324 c 128,-1,61
 412 262 412 262 471.5 234.5 c 128,-1,62
 531 207 531 207 617 207 c 0,63,64
 663 207 663 207 704 220 c 128,-1,65
 745 233 745 233 779.5 254 c 128,-1,66
 814 275 814 275 841 303.5 c 128,-1,67
 868 332 868 332 887 364 c 0,68,69
 901 386 901 386 924.5 401 c 128,-1,70
 948 416 948 416 978 416 c 0,71,72
 1000 416 1000 416 1019.5 406.5 c 128,-1,73
 1039 397 1039 397 1052 382.5 c 128,-1,74
 1065 368 1065 368 1072.5 349 c 128,-1,75
 1080 330 1080 330 1080 312 c 0,76,77
 1080 292 1080 292 1070.5 270.5 c 128,-1,78
 1061 249 1061 249 1046.5 227.5 c 128,-1,79
 1032 206 1032 206 1015 187 c 128,-1,80
 998 168 998 168 984 153 c 0,81,82
 921 91 921 91 852 55.5 c 128,-1,83
 783 20 783 20 697 6 c 1,84,-1
 697 -17 l 1,85,86
 748 -33 748 -33 786.5 -64 c 128,-1,87
 825 -95 825 -95 851.5 -134.5 c 128,-1,88
 878 -174 878 -174 891 -219.5 c 128,-1,89
 904 -265 904 -265 904 -311 c 0,90,91
 904 -366 904 -366 883.5 -421.5 c 128,-1,92
 863 -477 863 -477 823 -521 c 128,-1,93
 783 -565 783 -565 725 -593 c 128,-1,94
 667 -621 667 -621 593 -621 c 0,95,96
 529 -621 529 -621 472.5 -597 c 128,-1,97
 416 -573 416 -573 373.5 -531 c 128,-1,98
 331 -489 331 -489 306.5 -432 c 128,-1,99
 282 -375 282 -375 282 -311 c 0,100,101
 282 -290 282 -290 290 -271 c 128,-1,102
 298 -252 298 -252 312 -237.5 c 128,-1,103
 326 -223 326 -223 345 -214.5 c 128,-1,104
 364 -206 364 -206 385 -206 c 0,105,106
 407 -206 407 -206 425.5 -214.5 c 128,-1,107
 444 -223 444 -223 458.5 -237.5 c 128,-1,108
 473 -252 473 -252 481 -270.5 c 128,-1,109
 489 -289 489 -289 489 -311 c 0,0,1
EndSplineSet
EndChar
StartChar: multiply
Encoding: 215 215 172
Width: 832
Flags: W
LayerCount: 2
Back
Fore
SplineSet
131 732 m 1,0,1
 120 746 120 746 114.5 759.5 c 128,-1,2
 109 773 109 773 109 790 c 0,3,4
 109 813 109 813 117 832.5 c 128,-1,5
 125 852 125 852 139 866.5 c 128,-1,6
 153 881 153 881 172 889 c 128,-1,7
 191 897 191 897 212 897 c 0,8,9
 264 897 264 897 296 856 c 1,10,-1
 414 692 l 1,11,-1
 538 860 l 1,12,13
 567 901 567 901 621 901 c 0,14,15
 642 901 642 901 660.5 892.5 c 128,-1,16
 679 884 679 884 693 870.5 c 128,-1,17
 707 857 707 857 715 838 c 128,-1,18
 723 819 723 819 723 797 c 0,19,20
 723 764 723 764 703 736 c 2,21,-1
 543 519 l 1,22,-1
 694 313 l 1,23,24
 715 282 715 282 715 249 c 0,25,26
 715 227 715 227 707 208.5 c 128,-1,27
 699 190 699 190 684 176.5 c 128,-1,28
 669 163 669 163 650.5 155 c 128,-1,29
 632 147 632 147 611 147 c 0,30,31
 559 147 559 147 529 188 c 2,32,-1
 415 347 l 1,33,-1
 293 187 l 2,34,35
 277 165 277 165 256.5 155.5 c 128,-1,36
 236 146 236 146 210 146 c 0,37,38
 187 146 187 146 167 155 c 128,-1,39
 147 164 147 164 134 178.5 c 128,-1,40
 121 193 121 193 113.5 212 c 128,-1,41
 106 231 106 231 106 252 c 0,42,43
 106 282 106 282 128 312 c 2,44,-1
 285 519 l 1,45,-1
 127 733 l 1,46,-1
 131 732 l 1,0,1
EndSplineSet
EndChar
StartChar: Thorn
Encoding: 222 222 168
Width: 1234
Flags: W
LayerCount: 2
Back
Fore
SplineSet
306 103 m 2,0,1
 306 82 306 82 298 63 c 128,-1,2
 290 44 290 44 275.5 30 c 128,-1,3
 261 16 261 16 242 8 c 128,-1,4
 223 0 223 0 202 0 c 256,5,6
 181 0 181 0 162 8 c 128,-1,7
 143 16 143 16 129 30 c 128,-1,8
 115 44 115 44 106.5 63 c 128,-1,9
 98 82 98 82 98 104 c 2,10,-1
 98 1348 l 2,11,12
 98 1369 98 1369 106 1388 c 128,-1,13
 114 1407 114 1407 128 1421.5 c 128,-1,14
 142 1436 142 1436 161 1444 c 128,-1,15
 180 1452 180 1452 201 1452 c 0,16,17
 223 1452 223 1452 241.5 1444 c 128,-1,18
 260 1436 260 1436 274.5 1421.5 c 128,-1,19
 289 1407 289 1407 297.5 1388.5 c 128,-1,20
 306 1370 306 1370 306 1348 c 2,21,-1
 306 1153 l 1,22,-1
 720 1153 l 2,23,24
 807 1153 807 1153 882.5 1119.5 c 128,-1,25
 958 1086 958 1086 1014.5 1029 c 128,-1,26
 1071 972 1071 972 1103.5 897 c 128,-1,27
 1136 822 1136 822 1136 738 c 0,28,29
 1136 656 1136 656 1104.5 581 c 128,-1,30
 1073 506 1073 506 1017.5 448.5 c 128,-1,31
 962 391 962 391 886 356.5 c 128,-1,32
 810 322 810 322 720 322 c 2,33,-1
 306 322 l 1,34,-1
 306 104 l 1,35,-1
 306 103 l 2,0,1
306 531 m 1,36,-1
 720 531 l 2,37,38
 744 531 744 531 779.5 540 c 128,-1,39
 815 549 815 549 848 573 c 128,-1,40
 881 597 881 597 904.5 636.5 c 128,-1,41
 928 676 928 676 928 738 c 0,42,43
 928 771 928 771 914.5 808 c 128,-1,44
 901 845 901 845 875 875.5 c 128,-1,45
 849 906 849 906 810 925.5 c 128,-1,46
 771 945 771 945 720 945 c 2,47,-1
 306 945 l 1,48,-1
 306 531 l 1,36,-1
EndSplineSet
EndChar
StartChar: icircumflex
Encoding: 238 238 141
Width: 404
Flags: W
LayerCount: 2
Back
Fore
SplineSet
98 934 m 2,0,1
 98 954 98 954 106 973 c 128,-1,2
 114 992 114 992 128 1006 c 128,-1,3
 142 1020 142 1020 161 1029 c 128,-1,4
 180 1038 180 1038 201 1038 c 0,5,6
 223 1038 223 1038 242 1029.5 c 128,-1,7
 261 1021 261 1021 275 1006.5 c 128,-1,8
 289 992 289 992 297.5 973 c 128,-1,9
 306 954 306 954 306 934 c 2,10,-1
 306 104 l 2,11,12
 306 83 306 83 297.5 64 c 128,-1,13
 289 45 289 45 274.5 31 c 128,-1,14
 260 17 260 17 241.5 8.5 c 128,-1,15
 223 0 223 0 201 0 c 0,16,17
 180 0 180 0 161 8.5 c 128,-1,18
 142 17 142 17 128 31 c 128,-1,19
 114 45 114 45 106 64 c 128,-1,20
 98 83 98 83 98 104 c 2,21,-1
 98 519 l 1,22,-1
 98 934 l 2,0,1
128 1127 m 1,23,24
 98 1098 98 1098 54 1098 c 0,25,26
 31 1098 31 1098 12.5 1106 c 128,-1,27
 -6 1114 -6 1114 -19.5 1128.5 c 128,-1,28
 -33 1143 -33 1143 -41 1161.5 c 128,-1,29
 -49 1180 -49 1180 -49 1201 c 0,30,31
 -49 1244 -49 1244 -19 1275 c 2,32,-1
 130 1422 l 1,33,34
 157 1452 157 1452 202 1452 c 0,35,36
 246 1452 246 1452 276 1422 c 2,37,-1
 424 1275 l 2,38,39
 454 1244 454 1244 454 1201 c 0,40,41
 454 1179 454 1179 445.5 1160.5 c 128,-1,42
 437 1142 437 1142 423.5 1127.5 c 128,-1,43
 410 1113 410 1113 390.5 1105.5 c 128,-1,44
 371 1098 371 1098 351 1098 c 0,45,46
 306 1098 306 1098 277 1127 c 2,47,-1
 202 1202 l 1,48,-1
 165 1165 l 1,49,-1
 128 1127 l 1,23,24
EndSplineSet
EndChar
StartChar: eth
Encoding: 240 240 78
Width: 1034
Flags: W
LayerCount: 2
Back
Fore
SplineSet
184 1248 m 0,0,1
 148 1258 148 1258 127 1286 c 128,-1,2
 106 1314 106 1314 106 1348 c 0,3,4
 106 1371 106 1371 114.5 1390 c 128,-1,5
 123 1409 123 1409 137 1423 c 128,-1,6
 151 1437 151 1437 169.5 1444 c 128,-1,7
 188 1451 188 1451 208 1451 c 0,8,9
 221 1451 221 1451 236 1449 c 1,10,11
 307 1430 307 1430 362.5 1413 c 128,-1,12
 418 1396 418 1396 462 1381 c 1,13,-1
 578 1441 l 2,14,15
 599 1452 599 1452 624 1452 c 0,16,17
 646 1452 646 1452 665 1444 c 128,-1,18
 684 1436 684 1436 697.5 1421.5 c 128,-1,19
 711 1407 711 1407 719.5 1388.5 c 128,-1,20
 728 1370 728 1370 728 1349 c 0,21,22
 728 1325 728 1325 717.5 1302.5 c 128,-1,23
 707 1280 707 1280 688 1267 c 1,24,25
 755 1213 755 1213 802 1151.5 c 128,-1,26
 849 1090 849 1090 878.5 1014 c 128,-1,27
 908 938 908 938 922 842 c 128,-1,28
 936 746 936 746 936 622 c 0,29,30
 936 617 936 617 935.5 611 c 128,-1,31
 935 605 935 605 934 597 c 1,32,33
 935 572 935 572 935.5 552.5 c 128,-1,34
 936 533 936 533 936 519 c 0,35,36
 936 397 936 397 908.5 300.5 c 128,-1,37
 881 204 881 204 828 137.5 c 128,-1,38
 775 71 775 71 698 35.5 c 128,-1,39
 621 0 621 0 521 0 c 0,40,41
 425 0 425 0 348 33.5 c 128,-1,42
 271 67 271 67 217.5 132.5 c 128,-1,43
 164 198 164 198 135 295 c 128,-1,44
 106 392 106 392 106 519 c 0,45,46
 106 654 106 654 137.5 751.5 c 128,-1,47
 169 849 169 849 224 913 c 128,-1,48
 279 977 279 977 355 1007.5 c 128,-1,49
 431 1038 431 1038 521 1038 c 0,50,51
 588 1038 588 1038 642 1022 c 1,52,53
 615 1060 615 1060 573 1093.5 c 128,-1,54
 531 1127 531 1127 473 1153 c 1,55,-1
 272 1050 l 2,56,57
 260 1044 260 1044 249.5 1040.5 c 128,-1,58
 239 1037 239 1037 226 1037 c 0,59,60
 205 1037 205 1037 186 1044.5 c 128,-1,61
 167 1052 167 1052 152.5 1066 c 128,-1,62
 138 1080 138 1080 129 1098.5 c 128,-1,63
 120 1117 120 1117 120 1139 c 0,64,65
 121 1168 121 1168 134.5 1194 c 128,-1,66
 148 1220 148 1220 177 1233 c 1,67,-1
 199 1244 l 1,68,69
 197 1245 197 1245 193 1246 c 128,-1,70
 189 1247 189 1247 184 1248 c 0,0,1
671 766 m 1,71,72
 646 797 646 797 608.5 813.5 c 128,-1,73
 571 830 571 830 521 830 c 0,74,75
 413 830 413 830 363 754.5 c 128,-1,76
 313 679 313 679 313 519 c 0,77,78
 313 427 313 427 328.5 367 c 128,-1,79
 344 307 344 307 371 271.5 c 128,-1,80
 398 236 398 236 436.5 221.5 c 128,-1,81
 475 207 475 207 521 207 c 256,82,83
 567 207 567 207 605.5 221.5 c 128,-1,84
 644 236 644 236 671 272 c 128,-1,85
 698 308 698 308 713 367.5 c 128,-1,86
 728 427 728 427 728 519 c 0,87,88
 728 612 728 612 712.5 671 c 128,-1,89
 697 730 697 730 671 766 c 1,71,72
EndSplineSet
EndChar
StartChar: divide
Encoding: 247 247 169
Width: 1083
Flags: W
LayerCount: 2
Back
Fore
SplineSet
187 420 m 2,0,1
 165 420 165 420 146.5 428 c 128,-1,2
 128 436 128 436 113.5 450.5 c 128,-1,3
 99 465 99 465 91.5 483.5 c 128,-1,4
 84 502 84 502 84 524 c 0,5,6
 84 544 84 544 91.5 563 c 128,-1,7
 99 582 99 582 113 596 c 128,-1,8
 127 610 127 610 145.5 618.5 c 128,-1,9
 164 627 164 627 187 627 c 2,10,-1
 882 627 l 2,11,12
 902 627 902 627 921 618.5 c 128,-1,13
 940 610 940 610 954 596.5 c 128,-1,14
 968 583 968 583 976.5 563.5 c 128,-1,15
 985 544 985 544 985 524 c 0,16,17
 985 502 985 502 976.5 483.5 c 128,-1,18
 968 465 968 465 954 450.5 c 128,-1,19
 940 436 940 436 921 428 c 128,-1,20
 902 420 902 420 882 420 c 2,21,-1
 187 420 l 2,0,1
618 933 m 2,22,23
 618 888 618 888 588.5 858.5 c 128,-1,24
 559 829 559 829 515 829 c 0,25,26
 492 829 492 829 473.5 837.5 c 128,-1,27
 455 846 455 846 441 860.5 c 128,-1,28
 427 875 427 875 419.5 893.5 c 128,-1,29
 412 912 412 912 412 933 c 2,30,-1
 412 935 l 2,31,32
 412 955 412 955 419.5 974 c 128,-1,33
 427 993 427 993 441 1007 c 128,-1,34
 455 1021 455 1021 473.5 1029.5 c 128,-1,35
 492 1038 492 1038 515 1038 c 0,36,37
 536 1038 536 1038 555 1030 c 128,-1,38
 574 1022 574 1022 587.5 1008.5 c 128,-1,39
 601 995 601 995 609.5 976 c 128,-1,40
 618 957 618 957 618 935 c 2,41,-1
 618 934 l 1,42,-1
 618 933 l 2,22,23
618 104 m 2,43,44
 618 60 618 60 588.5 30.5 c 128,-1,45
 559 1 559 1 515 1 c 0,46,47
 492 1 492 1 473.5 9.5 c 128,-1,48
 455 18 455 18 441 32 c 128,-1,49
 427 46 427 46 419.5 65 c 128,-1,50
 412 84 412 84 412 104 c 2,51,-1
 412 106 l 2,52,53
 412 127 412 127 419.5 145.5 c 128,-1,54
 427 164 427 164 441 178.5 c 128,-1,55
 455 193 455 193 473.5 201 c 128,-1,56
 492 209 492 209 515 209 c 0,57,58
 536 209 536 209 555 201.5 c 128,-1,59
 574 194 574 194 587.5 180 c 128,-1,60
 601 166 601 166 609.5 147.5 c 128,-1,61
 618 129 618 129 618 106 c 2,62,-1
 618 105 l 1,63,-1
 618 104 l 2,43,44
EndSplineSet
EndChar
StartChar: oslash
Encoding: 248 248 147
Width: 1026
Flags: W
LayerCount: 2
Back
Fore
SplineSet
513 1038 m 0,0,1
 522 1038 522 1038 531 1037.5 c 128,-1,2
 540 1037 540 1037 548 1036 c 1,3,4
 562 1058 562 1058 586 1071.5 c 128,-1,5
 610 1085 610 1085 636 1085 c 0,6,7
 659 1085 659 1085 678.5 1075.5 c 128,-1,8
 698 1066 698 1066 711.5 1051.5 c 128,-1,9
 725 1037 725 1037 732.5 1018 c 128,-1,10
 740 999 740 999 740 980 c 2,11,-1
 740 974 l 1,12,13
 825 914 825 914 876.5 801.5 c 128,-1,14
 928 689 928 689 928 519 c 0,15,16
 928 396 928 396 900 299.5 c 128,-1,17
 872 203 872 203 819 137 c 128,-1,18
 766 71 766 71 688.5 35.5 c 128,-1,19
 611 0 611 0 513 0 c 2,20,-1
 490 0 l 1,21,22
 477 -24 477 -24 452 -39 c 128,-1,23
 427 -54 427 -54 398 -54 c 0,24,25
 374 -54 374 -54 355 -44.5 c 128,-1,26
 336 -35 336 -35 323 -20.5 c 128,-1,27
 310 -6 310 -6 302.5 13 c 128,-1,28
 295 32 295 32 295 52 c 2,29,-1
 295 57 l 1,30,31
 202 115 202 115 150 229.5 c 128,-1,32
 98 344 98 344 98 519 c 0,33,34
 98 654 98 654 129.5 751.5 c 128,-1,35
 161 849 161 849 216 913 c 128,-1,36
 271 977 271 977 347.5 1007.5 c 128,-1,37
 424 1038 424 1038 513 1038 c 0,0,1
428 816 m 1,38,39
 394 800 394 800 370.5 774 c 128,-1,40
 347 748 347 748 332.5 711 c 128,-1,41
 318 674 318 674 312 626 c 128,-1,42
 306 578 306 578 306 519 c 0,43,44
 306 433 306 433 318 378 c 128,-1,45
 330 323 330 323 353 287 c 1,46,-1
 490 829 l 1,47,48
 458 826 458 826 428 816 c 1,38,39
597 222 m 1,49,50
 659 246 659 246 689.5 321 c 128,-1,51
 720 396 720 396 720 519 c 0,52,53
 720 587 720 587 710.5 641 c 128,-1,54
 701 695 701 695 680 735 c 1,55,-1
 546 209 l 1,56,57
 574 212 574 212 597 222 c 1,49,50
EndSplineSet
EndChar
StartChar: oe
Encoding: 339 339 174
Width: 1637
Flags: W
LayerCount: 2
Back
Fore
SplineSet
1278 269 m 0,0,1
 1291 289 1291 289 1313 300 c 128,-1,2
 1335 311 1335 311 1361 311 c 0,3,4
 1380 311 1380 311 1398.5 303 c 128,-1,5
 1417 295 1417 295 1431.5 281 c 128,-1,6
 1446 267 1446 267 1454.5 248.5 c 128,-1,7
 1463 230 1463 230 1463 208 c 0,8,9
 1463 187 1463 187 1455 167.5 c 128,-1,10
 1447 148 1447 148 1434 132 c 128,-1,11
 1421 116 1421 116 1406.5 103 c 128,-1,12
 1392 90 1392 90 1380 81 c 0,13,14
 1344 52 1344 52 1311 36.5 c 128,-1,15
 1278 21 1278 21 1246.5 12.5 c 128,-1,16
 1215 4 1215 4 1186.5 2 c 128,-1,17
 1158 0 1158 0 1133 0 c 0,18,19
 1036 0 1036 0 959 34.5 c 128,-1,20
 882 69 882 69 829 135 c 0,21,22
 826 139 826 139 824 143 c 1,23,24
 821 140 821 140 819 137 c 0,25,26
 766 71 766 71 688.5 35.5 c 128,-1,27
 611 0 611 0 513 0 c 0,28,29
 417 0 417 0 340 33.5 c 128,-1,30
 263 67 263 67 209.5 132.5 c 128,-1,31
 156 198 156 198 127 295 c 128,-1,32
 98 392 98 392 98 519 c 0,33,34
 98 654 98 654 129.5 751.5 c 128,-1,35
 161 849 161 849 216 913 c 128,-1,36
 271 977 271 977 347.5 1007.5 c 128,-1,37
 424 1038 424 1038 513 1038 c 0,38,39
 604 1038 604 1038 681 1006 c 128,-1,40
 758 974 758 974 812 909 c 0,41,42
 818 902 818 902 824 895 c 1,43,-1
 833 907 l 1,44,45
 887 972 887 972 963 1005 c 128,-1,46
 1039 1038 1039 1038 1133 1038 c 0,47,48
 1219 1038 1219 1038 1294 1008 c 128,-1,49
 1369 978 1369 978 1424.5 914.5 c 128,-1,50
 1480 851 1480 851 1512 752.5 c 128,-1,51
 1544 654 1544 654 1544 519 c 0,52,53
 1544 497 1544 497 1535.5 478.5 c 128,-1,54
 1527 460 1527 460 1513 445.5 c 128,-1,55
 1499 431 1499 431 1480 423 c 128,-1,56
 1461 415 1461 415 1440 415 c 2,57,-1
 935 415 l 1,58,59
 941 366 941 366 955.5 327 c 128,-1,60
 970 288 970 288 993.5 261.5 c 128,-1,61
 1017 235 1017 235 1051.5 221 c 128,-1,62
 1086 207 1086 207 1133 207 c 0,63,64
 1166 207 1166 207 1190 213 c 128,-1,65
 1214 219 1214 219 1230.5 228 c 128,-1,66
 1247 237 1247 237 1258.5 247.5 c 128,-1,67
 1270 258 1270 258 1278 269 c 0,0,1
662 766 m 0,68,69
 637 798 637 798 599 814 c 128,-1,70
 561 830 561 830 513 830 c 0,71,72
 451 830 451 830 411 807 c 128,-1,73
 371 784 371 784 347.5 743 c 128,-1,74
 324 702 324 702 315 645 c 128,-1,75
 306 588 306 588 306 519 c 0,76,77
 306 427 306 427 320.5 367 c 128,-1,78
 335 307 335 307 362.5 271.5 c 128,-1,79
 390 236 390 236 428.5 221.5 c 128,-1,80
 467 207 467 207 513 207 c 0,81,82
 558 207 558 207 596.5 222 c 128,-1,83
 635 237 635 237 662.5 273.5 c 128,-1,84
 690 310 690 310 705 369 c 128,-1,85
 720 428 720 428 720 519 c 0,86,87
 720 600 720 600 706 663 c 128,-1,88
 692 726 692 726 662 766 c 0,68,69
986 767 m 1,89,90
 963 735 963 735 952 699 c 128,-1,91
 941 663 941 663 935 622 c 1,92,-1
 1330 622 l 1,93,94
 1323 666 1323 666 1310.5 704.5 c 128,-1,95
 1298 743 1298 743 1275.5 771 c 128,-1,96
 1253 799 1253 799 1218 814.5 c 128,-1,97
 1183 830 1183 830 1133 830 c 256,98,99
 1083 830 1083 830 1046.5 813.5 c 128,-1,100
 1010 797 1010 797 986 767 c 1,89,90
EndSplineSet
EndChar
StartChar: Scaron
Encoding: 352 352 182
Width: 1250
Flags: W
LayerCount: 2
Back
Fore
SplineSet
1131 1190 m 0,0,1
 1144 1167 1144 1167 1144 1142 c 0,2,3
 1144 1118 1144 1118 1135 1099 c 128,-1,4
 1126 1080 1126 1080 1111.5 1066 c 128,-1,5
 1097 1052 1097 1052 1078 1044.5 c 128,-1,6
 1059 1037 1059 1037 1040 1037 c 0,7,8
 1010 1037 1010 1037 990.5 1050 c 128,-1,9
 971 1063 971 1063 955.5 1082.5 c 128,-1,10
 940 1102 940 1102 927.5 1122 c 128,-1,11
 915 1142 915 1142 899 1157 c 1,12,13
 880 1173 880 1173 853.5 1189.5 c 128,-1,14
 827 1206 827 1206 793 1218 c 128,-1,15
 759 1230 759 1230 717 1237.5 c 128,-1,16
 675 1245 675 1245 625 1245 c 0,17,18
 563 1245 563 1245 509 1229 c 128,-1,19
 455 1213 455 1213 413 1186 c 128,-1,20
 371 1159 371 1159 345 1123.5 c 128,-1,21
 319 1088 319 1088 314 1049 c 1,22,-1
 314 1043 l 1,23,24
 313 1038 313 1038 313 1034.5 c 128,-1,25
 313 1031 313 1031 313 1026 c 0,26,27
 313 984 313 984 339 951 c 128,-1,28
 365 918 365 918 408.5 893.5 c 128,-1,29
 452 869 452 869 510.5 852.5 c 128,-1,30
 569 836 569 836 636 829 c 0,31,32
 753 817 753 817 846.5 782.5 c 128,-1,33
 940 748 940 748 1006 695.5 c 128,-1,34
 1072 643 1072 643 1107.5 574 c 128,-1,35
 1143 505 1143 505 1143 424 c 0,36,37
 1143 414 1143 414 1142.5 397.5 c 128,-1,38
 1142 381 1142 381 1140 379 c 1,39,-1
 1140 374 l 1,40,41
 1127 301 1127 301 1086 233.5 c 128,-1,42
 1045 166 1045 166 978.5 114 c 128,-1,43
 912 62 912 62 822.5 31 c 128,-1,44
 733 0 733 0 625 0 c 0,45,46
 523 0 523 0 441.5 21 c 128,-1,47
 360 42 360 42 297.5 78.5 c 128,-1,48
 235 115 235 115 190.5 162.5 c 128,-1,49
 146 210 146 210 119 262 c 0,50,51
 113 274 113 274 109.5 285.5 c 128,-1,52
 106 297 106 297 106 311 c 0,53,54
 106 331 106 331 114 350.5 c 128,-1,55
 122 370 122 370 136 384 c 128,-1,56
 150 398 150 398 169 406.5 c 128,-1,57
 188 415 188 415 208 415 c 0,58,59
 238 415 238 415 257 402.5 c 128,-1,60
 276 390 276 390 291 372 c 128,-1,61
 306 354 306 354 319.5 333.5 c 128,-1,62
 333 313 333 313 351 295 c 0,63,64
 393 254 393 254 467 230.5 c 128,-1,65
 541 207 541 207 625 207 c 0,66,67
 679 207 679 207 732 221 c 128,-1,68
 785 235 785 235 828.5 260.5 c 128,-1,69
 872 286 872 286 900.5 322.5 c 128,-1,70
 929 359 929 359 935 404 c 0,71,72
 935 405 935 405 935.5 406.5 c 128,-1,73
 936 408 936 408 936 409 c 2,74,-1
 936 410 l 1,75,-1
 936 422 l 2,76,77
 936 461 936 461 913.5 494 c 128,-1,78
 891 527 891 527 849.5 552.5 c 128,-1,79
 808 578 808 578 748.5 596 c 128,-1,80
 689 614 689 614 614 623 c 0,81,82
 495 636 495 636 401 671 c 128,-1,83
 307 706 307 706 241 758 c 128,-1,84
 175 810 175 810 140 877.5 c 128,-1,85
 105 945 105 945 105 1024 c 0,86,87
 105 1029 105 1029 105 1037 c 128,-1,88
 105 1045 105 1045 105.5 1052.5 c 128,-1,89
 106 1060 106 1060 107 1066 c 128,-1,90
 108 1072 108 1072 109 1073 c 1,91,-1
 109 1078 l 1,92,93
 122 1157 122 1157 165.5 1225 c 128,-1,94
 209 1293 209 1293 277 1343.5 c 128,-1,95
 345 1394 345 1394 434 1423 c 128,-1,96
 523 1452 523 1452 625 1452 c 0,97,98
 808 1452 808 1452 934.5 1383 c 128,-1,99
 1061 1314 1061 1314 1131 1190 c 0,0,1
703 1840 m 2,100,101
 732 1869 732 1869 776 1869 c 0,102,103
 799 1869 799 1869 817.5 1860.5 c 128,-1,104
 836 1852 836 1852 850 1838 c 128,-1,105
 864 1824 864 1824 872 1805.5 c 128,-1,106
 880 1787 880 1787 880 1766 c 0,107,108
 880 1723 880 1723 849 1692 c 2,109,-1
 701 1545 l 1,110,111
 673 1514 673 1514 628 1514 c 0,112,113
 585 1514 585 1514 554 1545 c 2,114,-1
 407 1692 l 2,115,116
 376 1723 376 1723 376 1766 c 0,117,118
 376 1788 376 1788 384.5 1806.5 c 128,-1,119
 393 1825 393 1825 407 1839 c 128,-1,120
 421 1853 421 1853 440 1861 c 128,-1,121
 459 1869 459 1869 480 1869 c 0,122,123
 525 1869 525 1869 553 1840 c 2,124,-1
 628 1765 l 1,125,-1
 665 1802 l 1,126,-1
 703 1840 l 2,100,101
EndSplineSet
EndChar
StartChar: zcaron
Encoding: 382 382 186
Width: 1032
Flags: W
LayerCount: 2
Back
Fore
SplineSet
205 830 m 2,0,1
 161 830 161 830 131.5 859.5 c 128,-1,2
 102 889 102 889 102 934 c 0,3,4
 102 954 102 954 110 973 c 128,-1,5
 118 992 118 992 132 1006 c 128,-1,6
 146 1020 146 1020 165 1029 c 128,-1,7
 184 1038 184 1038 205 1038 c 2,8,-1
 830 1038 l 2,9,10
 852 1038 852 1038 870.5 1029.5 c 128,-1,11
 889 1021 889 1021 903 1007 c 128,-1,12
 917 993 917 993 925.5 973.5 c 128,-1,13
 934 954 934 954 934 934 c 0,14,15
 934 911 934 911 927 894.5 c 128,-1,16
 920 878 920 878 907 864 c 1,17,-1
 414 207 l 1,18,-1
 828 207 l 2,19,20
 848 207 848 207 866.5 200 c 128,-1,21
 885 193 885 193 899.5 179 c 128,-1,22
 914 165 914 165 923 146 c 128,-1,23
 932 127 932 127 932 104 c 256,24,25
 932 81 932 81 923 61.5 c 128,-1,26
 914 42 914 42 899.5 28.5 c 128,-1,27
 885 15 885 15 866.5 7.5 c 128,-1,28
 848 0 848 0 828 0 c 2,29,-1
 205 0 l 1,30,-1
 205 1 l 1,31,32
 180 1 180 1 160.5 10.5 c 128,-1,33
 141 20 141 20 128 34 c 128,-1,34
 115 48 115 48 108.5 66.5 c 128,-1,35
 102 85 102 85 102 102 c 0,36,37
 103 119 103 119 107.5 135 c 128,-1,38
 112 151 112 151 123 166 c 2,39,-1
 623 830 l 1,40,-1
 415 830 l 1,41,-1
 205 830 l 2,0,1
593 1441 m 2,42,43
 622 1470 622 1470 666 1470 c 0,44,45
 689 1470 689 1470 707.5 1461.5 c 128,-1,46
 726 1453 726 1453 740 1439 c 128,-1,47
 754 1425 754 1425 761.5 1406.5 c 128,-1,48
 769 1388 769 1388 769 1367 c 0,49,50
 769 1324 769 1324 739 1293 c 2,51,-1
 591 1146 l 1,52,53
 563 1115 563 1115 518 1115 c 0,54,55
 475 1115 475 1115 444 1146 c 2,56,-1
 297 1293 l 2,57,58
 266 1324 266 1324 266 1367 c 0,59,60
 266 1389 266 1389 274.5 1407.5 c 128,-1,61
 283 1426 283 1426 297 1440 c 128,-1,62
 311 1454 311 1454 330 1462 c 128,-1,63
 349 1470 349 1470 370 1470 c 0,64,65
 415 1470 415 1470 443 1441 c 2,66,-1
 518 1366 l 1,67,-1
 555 1403 l 1,68,-1
 593 1441 l 2,42,43
EndSplineSet
EndChar
StartChar: endash
Encoding: 8211 8211 187
Width: 951
Flags: W
LayerCount: 2
Back
Fore
SplineSet
201 312 m 2,0,1
 181 312 181 312 161.5 320 c 128,-1,2
 142 328 142 328 128.5 342 c 128,-1,3
 115 356 115 356 106.5 375 c 128,-1,4
 98 394 98 394 98 415 c 0,5,6
 98 435 98 435 106 454.5 c 128,-1,7
 114 474 114 474 128 488 c 128,-1,8
 142 502 142 502 161 510.5 c 128,-1,9
 180 519 180 519 201 519 c 2,10,-1
 760 519 l 2,11,12
 780 519 780 519 799.5 510.5 c 128,-1,13
 819 502 819 502 832.5 488 c 128,-1,14
 846 474 846 474 854.5 454.5 c 128,-1,15
 863 435 863 435 863 415 c 0,16,17
 863 394 863 394 854.5 375 c 128,-1,18
 846 356 846 356 832.5 342 c 128,-1,19
 819 328 819 328 799.5 320 c 128,-1,20
 780 312 780 312 760 312 c 2,21,-1
 549 312 l 1,22,-1
 201 312 l 2,0,1
EndSplineSet
EndChar
StartChar: quoteleft
Encoding: 8216 8216 165
Width: 462
Flags: W
LayerCount: 2
Back
Fore
SplineSet
316 1096 m 2,0,1
 316 1076 316 1076 309 1057 c 128,-1,2
 302 1038 302 1038 288.5 1023 c 128,-1,3
 275 1008 275 1008 255.5 999.5 c 128,-1,4
 236 991 236 991 211 991 c 0,5,6
 193 991 193 991 174.5 998 c 128,-1,7
 156 1005 156 1005 142.5 1018.5 c 128,-1,8
 129 1032 129 1032 120 1050.5 c 128,-1,9
 111 1069 111 1069 110 1091 c 2,10,-1
 105 1270 l 1,11,-1
 105 1277 l 2,12,13
 105 1320 105 1320 129.5 1362 c 128,-1,14
 154 1404 154 1404 204 1434 c 0,15,16
 218 1442 218 1442 231.5 1446.5 c 128,-1,17
 245 1451 245 1451 259 1451 c 0,18,19
 281 1451 281 1451 300 1443 c 128,-1,20
 319 1435 319 1435 333.5 1420 c 128,-1,21
 348 1405 348 1405 356.5 1386.5 c 128,-1,22
 365 1368 365 1368 365 1347 c 0,23,24
 365 1293 365 1293 316 1260 c 1,25,-1
 313 1257 l 1,26,-1
 313 1176 l 1,27,-1
 316 1096 l 2,0,1
EndSplineSet
EndChar
StartChar: quotesinglbase
Encoding: 8218 8218 177
Width: 481
Flags: W
LayerCount: 2
Back
Fore
SplineSet
157 112 m 1,0,1
 155 134 155 134 162.5 153 c 128,-1,2
 170 172 170 172 183.5 186.5 c 128,-1,3
 197 201 197 201 216 209.5 c 128,-1,4
 235 218 235 218 257 218 c 0,5,6
 278 218 278 218 296 209.5 c 128,-1,7
 314 201 314 201 328.5 187 c 128,-1,8
 343 173 343 173 351.5 155 c 128,-1,9
 360 137 360 137 360 117 c 2,10,-1
 365 -61 l 1,11,-1
 365 -68 l 2,12,13
 365 -95 365 -95 351.5 -125.5 c 128,-1,14
 338 -156 338 -156 317 -182 c 128,-1,15
 296 -208 296 -208 268 -225 c 128,-1,16
 240 -242 240 -242 210 -242 c 0,17,18
 186 -242 186 -242 166 -232 c 128,-1,19
 146 -222 146 -222 133 -207.5 c 128,-1,20
 120 -193 120 -193 112.5 -174.5 c 128,-1,21
 105 -156 105 -156 105 -140 c 0,22,23
 105 -109 105 -109 119 -87 c 128,-1,24
 133 -65 133 -65 155 -49 c 1,25,-1
 157 -48 l 1,26,-1
 157 31 l 1,27,-1
 157 112 l 1,0,1
EndSplineSet
EndChar
StartChar: quotedblleft
Encoding: 8220 8220 163
Width: 911
Flags: W
LayerCount: 2
Back
Fore
SplineSet
316 1096 m 2,0,1
 316 1076 316 1076 309 1057 c 128,-1,2
 302 1038 302 1038 288.5 1023 c 128,-1,3
 275 1008 275 1008 255.5 999.5 c 128,-1,4
 236 991 236 991 211 991 c 0,5,6
 193 991 193 991 174.5 998 c 128,-1,7
 156 1005 156 1005 142.5 1018.5 c 128,-1,8
 129 1032 129 1032 120 1050.5 c 128,-1,9
 111 1069 111 1069 110 1091 c 2,10,-1
 105 1270 l 1,11,-1
 105 1277 l 2,12,13
 105 1320 105 1320 129.5 1362 c 128,-1,14
 154 1404 154 1404 204 1434 c 0,15,16
 218 1442 218 1442 231.5 1446.5 c 128,-1,17
 245 1451 245 1451 259 1451 c 0,18,19
 281 1451 281 1451 300 1443 c 128,-1,20
 319 1435 319 1435 333.5 1420 c 128,-1,21
 348 1405 348 1405 356.5 1386.5 c 128,-1,22
 365 1368 365 1368 365 1347 c 0,23,24
 365 1293 365 1293 316 1260 c 1,25,-1
 313 1257 l 1,26,-1
 313 1176 l 1,27,-1
 316 1096 l 2,0,1
762 1096 m 1,28,29
 763 1075 763 1075 755.5 1056 c 128,-1,30
 748 1037 748 1037 734.5 1022 c 128,-1,31
 721 1007 721 1007 702 999 c 128,-1,32
 683 991 683 991 659 991 c 0,33,34
 639 991 639 991 620.5 999 c 128,-1,35
 602 1007 602 1007 588 1021 c 128,-1,36
 574 1035 574 1035 565.5 1053 c 128,-1,37
 557 1071 557 1071 557 1091 c 2,38,-1
 552 1270 l 1,39,-1
 552 1277 l 2,40,41
 552 1320 552 1320 577.5 1363.5 c 128,-1,42
 603 1407 603 1407 652 1434 c 1,43,44
 678 1451 678 1451 707 1451 c 0,45,46
 729 1451 729 1451 748.5 1442.5 c 128,-1,47
 768 1434 768 1434 782 1419 c 128,-1,48
 796 1404 796 1404 804 1385.5 c 128,-1,49
 812 1367 812 1367 812 1348 c 0,50,51
 812 1320 812 1320 798.5 1297.5 c 128,-1,52
 785 1275 785 1275 763 1260 c 1,53,-1
 762 1259 l 1,54,55
 760 1259 760 1259 760 1257 c 2,56,-1
 762 1176 l 1,57,-1
 762 1096 l 1,28,29
EndSplineSet
EndChar
StartChar: quotedblbase
Encoding: 8222 8222 16
Width: 925
Flags: W
LayerCount: 2
Back
Fore
SplineSet
615 112 m 2,0,1
 615 133 615 133 622.5 152 c 128,-1,2
 630 171 630 171 643.5 185.5 c 128,-1,3
 657 200 657 200 676.5 209 c 128,-1,4
 696 218 696 218 720 218 c 0,5,6
 739 218 739 218 757 210 c 128,-1,7
 775 202 775 202 789 188.5 c 128,-1,8
 803 175 803 175 812 157 c 128,-1,9
 821 139 821 139 822 117 c 2,10,-1
 826 -61 l 1,11,12
 826 -118 826 -118 800 -156.5 c 128,-1,13
 774 -195 774 -195 727 -225 c 0,14,15
 702 -242 702 -242 672 -242 c 0,16,17
 648 -242 648 -242 628.5 -233 c 128,-1,18
 609 -224 609 -224 595.5 -209.5 c 128,-1,19
 582 -195 582 -195 574.5 -176 c 128,-1,20
 567 -157 567 -157 567 -139 c 0,21,22
 567 -109 567 -109 581 -86 c 128,-1,23
 595 -63 595 -63 617 -49 c 0,24,25
 618 -48 618 -48 619 -48 c 2,26,-1
 617 31 l 1,27,-1
 615 112 l 2,0,1
157 112 m 1,28,29
 155 134 155 134 162.5 153 c 128,-1,30
 170 172 170 172 183.5 186.5 c 128,-1,31
 197 201 197 201 216 209.5 c 128,-1,32
 235 218 235 218 257 218 c 0,33,34
 278 218 278 218 296 209.5 c 128,-1,35
 314 201 314 201 328.5 187 c 128,-1,36
 343 173 343 173 351.5 155 c 128,-1,37
 360 137 360 137 360 117 c 2,38,-1
 365 -61 l 1,39,-1
 365 -68 l 2,40,41
 365 -95 365 -95 351.5 -125.5 c 128,-1,42
 338 -156 338 -156 317 -182 c 128,-1,43
 296 -208 296 -208 268 -225 c 128,-1,44
 240 -242 240 -242 210 -242 c 0,45,46
 186 -242 186 -242 166 -232 c 128,-1,47
 146 -222 146 -222 133 -207.5 c 128,-1,48
 120 -193 120 -193 112.5 -174.5 c 128,-1,49
 105 -156 105 -156 105 -140 c 0,50,51
 105 -109 105 -109 119 -87 c 128,-1,52
 133 -65 133 -65 155 -49 c 1,53,-1
 157 -48 l 1,54,-1
 157 31 l 1,55,-1
 157 112 l 1,28,29
EndSplineSet
EndChar
StartChar: bullet
Encoding: 8226 8226 166
Width: 774
Flags: W
LayerCount: 2
Back
Fore
SplineSet
385 1038 m 0,0,1
 437 1038 437 1038 488.5 1014.5 c 128,-1,2
 540 991 540 991 580.5 947 c 128,-1,3
 621 903 621 903 646.5 840.5 c 128,-1,4
 672 778 672 778 672 701 c 0,5,6
 672 630 672 630 649.5 568.5 c 128,-1,7
 627 507 627 507 587.5 462 c 128,-1,8
 548 417 548 417 496 391 c 128,-1,9
 444 365 444 365 385 365 c 256,10,11
 326 365 326 365 274 390.5 c 128,-1,12
 222 416 222 416 183 461 c 128,-1,13
 144 506 144 506 121 567.5 c 128,-1,14
 98 629 98 629 98 701 c 0,15,16
 98 768 98 768 120 828.5 c 128,-1,17
 142 889 142 889 180 936 c 128,-1,18
 218 983 218 983 270.5 1010.5 c 128,-1,19
 323 1038 323 1038 385 1038 c 0,0,1
EndSplineSet
EndChar
StartChar: ellipsis
Encoding: 8230 8230 154
Width: 1209
Flags: W
LayerCount: 2
Back
Fore
SplineSet
305 104 m 2,0,1
 305 60 305 60 275.5 30.5 c 128,-1,2
 246 1 246 1 201 1 c 0,3,4
 179 1 179 1 160.5 9.5 c 128,-1,5
 142 18 142 18 128 32 c 128,-1,6
 114 46 114 46 106 65 c 128,-1,7
 98 84 98 84 98 104 c 2,8,-1
 98 106 l 2,9,10
 98 127 98 127 106 145.5 c 128,-1,11
 114 164 114 164 128 178.5 c 128,-1,12
 142 193 142 193 160.5 201 c 128,-1,13
 179 209 179 209 201 209 c 0,14,15
 222 209 222 209 241 201.5 c 128,-1,16
 260 194 260 194 274 180 c 128,-1,17
 288 166 288 166 296.5 147.5 c 128,-1,18
 305 129 305 129 305 106 c 2,19,-1
 305 105 l 1,20,-1
 305 104 l 2,0,1
708 104 m 2,21,22
 708 60 708 60 678.5 30.5 c 128,-1,23
 649 1 649 1 604 1 c 0,24,25
 582 1 582 1 563 9.5 c 128,-1,26
 544 18 544 18 530.5 32 c 128,-1,27
 517 46 517 46 509 65 c 128,-1,28
 501 84 501 84 501 104 c 2,29,-1
 501 106 l 2,30,31
 501 127 501 127 509 145.5 c 128,-1,32
 517 164 517 164 530.5 178.5 c 128,-1,33
 544 193 544 193 563 201 c 128,-1,34
 582 209 582 209 604 209 c 0,35,36
 625 209 625 209 644 201.5 c 128,-1,37
 663 194 663 194 677 180 c 128,-1,38
 691 166 691 166 699.5 147.5 c 128,-1,39
 708 129 708 129 708 106 c 2,40,-1
 708 105 l 1,41,-1
 708 104 l 2,21,22
1110 104 m 2,42,43
 1110 60 1110 60 1081 30.5 c 128,-1,44
 1052 1 1052 1 1007 1 c 0,45,46
 985 1 985 1 966 9.5 c 128,-1,47
 947 18 947 18 933.5 32 c 128,-1,48
 920 46 920 46 912 65 c 128,-1,49
 904 84 904 84 904 104 c 2,50,-1
 904 106 l 2,51,52
 904 127 904 127 912 145.5 c 128,-1,53
 920 164 920 164 933.5 178.5 c 128,-1,54
 947 193 947 193 966 201 c 128,-1,55
 985 209 985 209 1007 209 c 0,56,57
 1028 209 1028 209 1047 201.5 c 128,-1,58
 1066 194 1066 194 1080 180 c 128,-1,59
 1094 166 1094 166 1102 147.5 c 128,-1,60
 1110 129 1110 129 1110 106 c 2,61,-1
 1110 105 l 1,62,-1
 1110 104 l 2,42,43
EndSplineSet
EndChar
StartChar: perthousand
Encoding: 8240 8240 175
Width: 2321
Flags: W
LayerCount: 2
Back
Fore
SplineSet
896 1375 m 1,0,1
 906 1407 906 1407 933.5 1429.5 c 128,-1,2
 961 1452 961 1452 996 1452 c 0,3,4
 1020 1452 1020 1452 1039 1443.5 c 128,-1,5
 1058 1435 1058 1435 1072 1420 c 128,-1,6
 1086 1405 1086 1405 1093.5 1386.5 c 128,-1,7
 1101 1368 1101 1368 1101 1349 c 0,8,9
 1101 1337 1101 1337 1098 1324 c 2,10,-1
 779 78 l 2,11,12
 770 44 770 44 742.5 22 c 128,-1,13
 715 0 715 0 678 0 c 0,14,15
 654 0 654 0 635.5 9 c 128,-1,16
 617 18 617 18 603.5 32 c 128,-1,17
 590 46 590 46 582.5 64.5 c 128,-1,18
 575 83 575 83 575 101 c 0,19,20
 575 108 575 108 576 115 c 128,-1,21
 577 122 577 122 579 129 c 2,22,-1
 738 752 l 1,23,-1
 896 1375 l 1,0,1
1924 673 m 0,24,25
 1976 673 1976 673 2027.5 650 c 128,-1,26
 2079 627 2079 627 2120 583.5 c 128,-1,27
 2161 540 2161 540 2186.5 478 c 128,-1,28
 2212 416 2212 416 2212 337 c 0,29,30
 2212 269 2212 269 2189.5 208 c 128,-1,31
 2167 147 2167 147 2128 101 c 128,-1,32
 2089 55 2089 55 2036.5 27.5 c 128,-1,33
 1984 0 1984 0 1924 0 c 0,34,35
 1876 0 1876 0 1825.5 21 c 128,-1,36
 1775 42 1775 42 1733 84.5 c 128,-1,37
 1691 127 1691 127 1664.5 190 c 128,-1,38
 1638 253 1638 253 1638 337 c 0,39,40
 1638 414 1638 414 1662 476 c 128,-1,41
 1686 538 1686 538 1726.5 581.5 c 128,-1,42
 1767 625 1767 625 1818 649 c 128,-1,43
 1869 673 1869 673 1924 673 c 0,24,25
1973 437 m 256,44,45
 1961 453 1961 453 1948.5 459.5 c 128,-1,46
 1936 466 1936 466 1924 466 c 256,47,48
 1912 466 1912 466 1898.5 457.5 c 128,-1,49
 1885 449 1885 449 1873 433 c 128,-1,50
 1861 417 1861 417 1853.5 393 c 128,-1,51
 1846 369 1846 369 1846 337 c 0,52,53
 1846 311 1846 311 1851.5 287 c 128,-1,54
 1857 263 1857 263 1868 245.5 c 128,-1,55
 1879 228 1879 228 1893 217.5 c 128,-1,56
 1907 207 1907 207 1924 207 c 256,57,58
 1941 207 1941 207 1955.5 218 c 128,-1,59
 1970 229 1970 229 1981 247 c 128,-1,60
 1992 265 1992 265 1998 289 c 128,-1,61
 2004 313 2004 313 2004 337 c 0,62,63
 2004 373 2004 373 1994.5 397 c 128,-1,64
 1985 421 1985 421 1973 437 c 256,44,45
427 1452 m 0,65,66
 479 1452 479 1452 530 1428.5 c 128,-1,67
 581 1405 581 1405 621.5 1361.5 c 128,-1,68
 662 1318 662 1318 687.5 1255.5 c 128,-1,69
 713 1193 713 1193 713 1115 c 0,70,71
 713 1045 713 1045 690.5 983.5 c 128,-1,72
 668 922 668 922 629 876.5 c 128,-1,73
 590 831 590 831 537.5 805 c 128,-1,74
 485 779 485 779 427 779 c 0,75,76
 368 779 368 779 315.5 804.5 c 128,-1,77
 263 830 263 830 224.5 875.5 c 128,-1,78
 186 921 186 921 163 982.5 c 128,-1,79
 140 1044 140 1044 140 1115 c 0,80,81
 140 1182 140 1182 161.5 1243 c 128,-1,82
 183 1304 183 1304 221 1350.5 c 128,-1,83
 259 1397 259 1397 312 1424.5 c 128,-1,84
 365 1452 365 1452 427 1452 c 0,65,66
475 1217 m 1,85,86
 449 1245 449 1245 427 1245 c 0,87,88
 403 1245 403 1245 387.5 1230 c 128,-1,89
 372 1215 372 1215 363.5 1193.5 c 128,-1,90
 355 1172 355 1172 351 1150 c 128,-1,91
 347 1128 347 1128 347 1115 c 0,92,93
 347 1089 347 1089 353.5 1065.5 c 128,-1,94
 360 1042 360 1042 371 1024 c 128,-1,95
 382 1006 382 1006 396.5 996.5 c 128,-1,96
 411 987 411 987 427 987 c 0,97,98
 429 987 429 987 442.5 991 c 128,-1,99
 456 995 456 995 470 1008 c 128,-1,100
 484 1021 484 1021 495 1046.5 c 128,-1,101
 506 1072 506 1072 506 1115 c 0,102,103
 506 1146 506 1146 496.5 1172.5 c 128,-1,104
 487 1199 487 1199 475 1217 c 1,85,86
1254 673 m 0,105,106
 1306 673 1306 673 1357.5 650 c 128,-1,107
 1409 627 1409 627 1450 583.5 c 128,-1,108
 1491 540 1491 540 1516.5 478 c 128,-1,109
 1542 416 1542 416 1542 337 c 0,110,111
 1542 269 1542 269 1519.5 208 c 128,-1,112
 1497 147 1497 147 1458 101 c 128,-1,113
 1419 55 1419 55 1366.5 27.5 c 128,-1,114
 1314 0 1314 0 1254 0 c 0,115,116
 1206 0 1206 0 1155.5 21 c 128,-1,117
 1105 42 1105 42 1063 84.5 c 128,-1,118
 1021 127 1021 127 994.5 190 c 128,-1,119
 968 253 968 253 968 337 c 0,120,121
 968 414 968 414 992 476 c 128,-1,122
 1016 538 1016 538 1056.5 581.5 c 128,-1,123
 1097 625 1097 625 1148 649 c 128,-1,124
 1199 673 1199 673 1254 673 c 0,105,106
1303 437 m 0,125,126
 1290 453 1290 453 1278 459.5 c 128,-1,127
 1266 466 1266 466 1254 466 c 256,128,129
 1242 466 1242 466 1228.5 457.5 c 128,-1,130
 1215 449 1215 449 1203 433 c 128,-1,131
 1191 417 1191 417 1183 393 c 128,-1,132
 1175 369 1175 369 1175 337 c 0,133,134
 1175 311 1175 311 1181 287 c 128,-1,135
 1187 263 1187 263 1198 245.5 c 128,-1,136
 1209 228 1209 228 1223 217.5 c 128,-1,137
 1237 207 1237 207 1254 207 c 256,138,139
 1271 207 1271 207 1285.5 218 c 128,-1,140
 1300 229 1300 229 1311 247 c 128,-1,141
 1322 265 1322 265 1328 289 c 128,-1,142
 1334 313 1334 313 1334 337 c 0,143,144
 1334 373 1334 373 1324.5 397 c 128,-1,145
 1315 421 1315 421 1303 437 c 0,125,126
EndSplineSet
EndChar
StartChar: guilsinglleft
Encoding: 8249 8249 189
Width: 1041
Flags: W
LayerCount: 2
Back
Fore
SplineSet
774 1020 m 2,0,1
 801 1038 801 1038 832 1038 c 0,2,3
 855 1038 855 1038 874 1029 c 128,-1,4
 893 1020 893 1020 907 1006 c 128,-1,5
 921 992 921 992 928.5 973 c 128,-1,6
 936 954 936 954 936 936 c 0,7,8
 937 907 937 907 924 884 c 128,-1,9
 911 861 911 861 890 847 c 2,10,-1
 397 519 l 1,11,-1
 890 191 l 2,12,13
 911 177 911 177 923.5 153.5 c 128,-1,14
 936 130 936 130 936 101 c 0,15,16
 936 83 936 83 928.5 64.5 c 128,-1,17
 921 46 921 46 907 32.5 c 128,-1,18
 893 19 893 19 874.5 10 c 128,-1,19
 856 1 856 1 833 1 c 0,20,21
 799 1 799 1 774 18 c 2,22,-1
 154 431 l 2,23,24
 136 443 136 443 120.5 465 c 128,-1,25
 105 487 105 487 105 515 c 256,26,27
 105 543 105 543 117 566.5 c 128,-1,28
 129 590 129 590 152 605 c 2,29,-1
 464 813 l 1,30,-1
 774 1020 l 2,0,1
EndSplineSet
EndChar
StartChar: trademark
Encoding: 8482 8482 206
Width: 1725
Flags: W
LayerCount: 2
Back
Fore
SplineSet
158 1328 m 2,0,1
 144 1328 144 1328 133.5 1333 c 128,-1,2
 123 1338 123 1338 115 1346.5 c 128,-1,3
 107 1355 107 1355 102.5 1366.5 c 128,-1,4
 98 1378 98 1378 98 1390 c 256,5,6
 98 1402 98 1402 102.5 1413.5 c 128,-1,7
 107 1425 107 1425 115.5 1434 c 128,-1,8
 124 1443 124 1443 134.5 1447.5 c 128,-1,9
 145 1452 145 1452 158 1452 c 2,10,-1
 399 1452 l 1,11,-1
 639 1452 l 2,12,13
 652 1452 652 1452 662.5 1447.5 c 128,-1,14
 673 1443 673 1443 681 1434 c 128,-1,15
 689 1425 689 1425 694 1414 c 128,-1,16
 699 1403 699 1403 699 1390 c 0,17,18
 699 1378 699 1378 694.5 1366.5 c 128,-1,19
 690 1355 690 1355 681.5 1346.5 c 128,-1,20
 673 1338 673 1338 662.5 1333 c 128,-1,21
 652 1328 652 1328 639 1328 c 2,22,-1
 458 1328 l 1,23,-1
 458 644 l 2,24,25
 458 630 458 630 453.5 619 c 128,-1,26
 449 608 449 608 440.5 599.5 c 128,-1,27
 432 591 432 591 421.5 586 c 128,-1,28
 411 581 411 581 399 581 c 0,29,30
 386 581 386 581 375.5 586 c 128,-1,31
 365 591 365 591 356.5 599.5 c 128,-1,32
 348 608 348 608 343 619 c 128,-1,33
 338 630 338 630 338 644 c 2,34,-1
 338 1328 l 1,35,-1
 249 1328 l 1,36,-1
 158 1328 l 2,0,1
933 644 m 2,37,38
 933 630 933 630 928 619 c 128,-1,39
 923 608 923 608 914.5 599.5 c 128,-1,40
 906 591 906 591 895 586 c 128,-1,41
 884 581 884 581 873 581 c 0,42,43
 860 581 860 581 849 586 c 128,-1,44
 838 591 838 591 830 599.5 c 128,-1,45
 822 608 822 608 817.5 619 c 128,-1,46
 813 630 813 630 813 644 c 2,47,-1
 813 1390 l 2,48,49
 813 1402 813 1402 817.5 1413.5 c 128,-1,50
 822 1425 822 1425 830 1434 c 128,-1,51
 838 1443 838 1443 849 1447.5 c 128,-1,52
 860 1452 860 1452 873 1452 c 0,53,54
 892 1452 892 1452 907.5 1441 c 128,-1,55
 923 1430 923 1430 929 1412 c 1,56,-1
 1173 906 l 1,57,-1
 1421 1418 l 2,58,59
 1428 1433 1428 1433 1442 1442 c 128,-1,60
 1456 1451 1456 1451 1474 1451 c 0,61,62
 1486 1451 1486 1451 1497 1447 c 128,-1,63
 1508 1443 1508 1443 1516 1434 c 128,-1,64
 1524 1425 1524 1425 1529 1414 c 128,-1,65
 1534 1403 1534 1403 1534 1390 c 2,66,-1
 1534 644 l 2,67,68
 1534 630 1534 630 1529.5 619 c 128,-1,69
 1525 608 1525 608 1516.5 599.5 c 128,-1,70
 1508 591 1508 591 1497.5 586 c 128,-1,71
 1487 581 1487 581 1474 581 c 256,72,73
 1461 581 1461 581 1450.5 586 c 128,-1,74
 1440 591 1440 591 1432 599 c 128,-1,75
 1424 607 1424 607 1419 618.5 c 128,-1,76
 1414 630 1414 630 1414 644 c 2,77,-1
 1414 1128 l 1,78,-1
 1226 740 l 1,79,80
 1220 723 1220 723 1204 714.5 c 128,-1,81
 1188 706 1188 706 1173 706 c 0,82,83
 1154 706 1154 706 1140 716 c 128,-1,84
 1126 726 1126 726 1119 740 c 2,85,-1
 933 1127 l 1,86,-1
 933 644 l 2,37,38
EndSplineSet
EndChar
StartChar: .notdef
Encoding: 65536 -1 0
Width: 1023
Flags: W
LayerCount: 2
Back
Fore
SplineSet
403 1348 m 2,0,1
 403 1369 403 1369 411 1388 c 128,-1,2
 419 1407 419 1407 433 1421.5 c 128,-1,3
 447 1436 447 1436 465.5 1444 c 128,-1,4
 484 1452 484 1452 506 1452 c 256,5,6
 528 1452 528 1452 546.5 1444 c 128,-1,7
 565 1436 565 1436 579.5 1421.5 c 128,-1,8
 594 1407 594 1407 602 1388.5 c 128,-1,9
 610 1370 610 1370 610 1348 c 2,10,-1
 610 -311 l 2,11,12
 610 -332 610 -332 602 -351 c 128,-1,13
 594 -370 594 -370 579.5 -384 c 128,-1,14
 565 -398 565 -398 546 -406 c 128,-1,15
 527 -414 527 -414 506 -414 c 256,16,17
 485 -414 485 -414 466 -405.5 c 128,-1,18
 447 -397 447 -397 433.5 -383.5 c 128,-1,19
 420 -370 420 -370 411.5 -350.5 c 128,-1,20
 403 -331 403 -331 403 -311 c 2,21,-1
 403 519 l 1,22,-1
 403 1348 l 2,0,1
711 1348 m 2,23,24
 711 1369 711 1369 719 1388 c 128,-1,25
 727 1407 727 1407 741.5 1421.5 c 128,-1,26
 756 1436 756 1436 774.5 1444 c 128,-1,27
 793 1452 793 1452 815 1452 c 0,28,29
 836 1452 836 1452 855 1444 c 128,-1,30
 874 1436 874 1436 888 1421.5 c 128,-1,31
 902 1407 902 1407 910.5 1388.5 c 128,-1,32
 919 1370 919 1370 919 1348 c 2,33,-1
 919 -311 l 2,34,35
 919 -332 919 -332 910.5 -351 c 128,-1,36
 902 -370 902 -370 888 -384 c 128,-1,37
 874 -398 874 -398 854.5 -406 c 128,-1,38
 835 -414 835 -414 815 -414 c 0,39,40
 794 -414 794 -414 775 -405.5 c 128,-1,41
 756 -397 756 -397 742 -383.5 c 128,-1,42
 728 -370 728 -370 719.5 -350.5 c 128,-1,43
 711 -331 711 -331 711 -311 c 2,44,-1
 711 519 l 1,45,-1
 711 1348 l 2,23,24
98 1348 m 2,46,47
 98 1369 98 1369 106 1388 c 128,-1,48
 114 1407 114 1407 128 1421.5 c 128,-1,49
 142 1436 142 1436 161 1444 c 128,-1,50
 180 1452 180 1452 201 1452 c 0,51,52
 223 1452 223 1452 241.5 1444 c 128,-1,53
 260 1436 260 1436 274.5 1421.5 c 128,-1,54
 289 1407 289 1407 297.5 1388.5 c 128,-1,55
 306 1370 306 1370 306 1348 c 2,56,-1
 306 -311 l 2,57,58
 306 -332 306 -332 297.5 -351 c 128,-1,59
 289 -370 289 -370 274.5 -384 c 128,-1,60
 260 -398 260 -398 241 -406 c 128,-1,61
 222 -414 222 -414 201 -414 c 0,62,63
 181 -414 181 -414 161.5 -405.5 c 128,-1,64
 142 -397 142 -397 128.5 -383.5 c 128,-1,65
 115 -370 115 -370 106.5 -350.5 c 128,-1,66
 98 -331 98 -331 98 -311 c 2,67,-1
 98 519 l 1,68,-1
 98 1348 l 2,46,47
EndSplineSet
EndChar
